<?xml version="1.0" standalone="no"?>
<!DOCTYPE svg PUBLIC "-//W3C//DTD SVG 1.1//EN" "http://www.w3.org/Graphics/SVG/1.1/DTD/svg11.dtd" >
<svg xmlns="http://www.w3.org/2000/svg" xmlns:xlink="http://www.w3.org/1999/xlink" version="1.1">
<metadata>
Created by FontForge 20150824 at Wed Mar 23 06:58:11 2016
 By Everything Fonts
Copyright (c) 2011 By Svetoslav Simov (c) Fontfabric, LLC. All rights reserved.
</metadata>
<defs>
<font id="CodeProLC" horiz-adv-x="694" >
  <font-face 
    font-family="CodeProLC"
    font-weight="400"
    font-stretch="normal"
    units-per-em="1000"
    panose-1="2 0 0 0 0 0 0 0 0 0"
    ascent="750"
    descent="-250"
    x-height="541"
    cap-height="700"
    bbox="-133 -250 1681 927"
    underline-thickness="50"
    underline-position="-150"
    unicode-range="U+0020-FB04"
  />
<missing-glyph horiz-adv-x="530" 
d="M15 0v700h500v-700h-500zM265 395l170 255h-340zM295 350l170 -255v510zM65 95l170 255l-170 255v-510zM95 50h340l-170 255z" />
    <glyph glyph-name="f_f" unicode="ff" horiz-adv-x="671" 
d="M531 460v-460h-98v460h-220v-460h-98v460h-83v83h83q0 96 55 135.5t165 31.5v-82q-59 6 -90.5 -11.5t-31.5 -73.5h220q0 96 54.5 135.5t163.5 31.5v-82q-59 6 -89.5 -11.5t-30.5 -73.5h110v-83h-110z" />
    <glyph glyph-name="fi" unicode="fi" horiz-adv-x="614" 
d="M414 662q0 26 19 41.5t42 15.5t42 -15t19 -42q0 -36 -30.5 -50.5t-61 0t-30.5 50.5zM524 0v541h-311q0 56 31.5 74t90.5 12v82q-109 8 -164.5 -32t-55.5 -136h-83v-81h83v-460h98v460h213v-460h98z" />
    <glyph glyph-name="fl" unicode="fl" horiz-adv-x="620" 
d="M332 541v-81h-119v-460h-98v460h-83v81h83q0 96 55.5 136t164.5 32v-82q-59 6 -90.5 -12t-31.5 -74h119zM433 0v700h98v-700h-98z" />
    <glyph glyph-name="f_f_i" unicode="ffi" horiz-adv-x="865" 
d="M493 541q0 56 31.5 74t90.5 12v82q-109 8 -164.5 -32t-55.5 -136h-182q0 56 31.5 74t90.5 12v82q-109 8 -164.5 -32t-55.5 -136h-83v-81h83v-460h98v460h182v-460h98v460h184v-460h98v541h-282zM665 662q0 26 19 41.5t42 15.5t42 -15t19 -42q0 -36 -30.5 -50.5t-61 0
t-30.5 50.5z" />
    <glyph glyph-name="f_f_l" unicode="ffl" horiz-adv-x="865" 
d="M677 0v700h98v-700h-98zM616 541v-81h-123v-460h-98v460h-182v-460h-98v460h-83v81h83q0 96 55.5 136t164.5 32v-82q-59 6 -90.5 -12t-31.5 -74h182q0 96 55.5 136t164.5 32v-82q-59 6 -90.5 -12t-31.5 -74h123z" />
    <glyph glyph-name="f_j" unicode="fj" horiz-adv-x="564" 
d="M377 661q0 26 19 41.5t42 15.5t42 -15t19 -42q0 -36 -30.5 -50.5t-61 0t-30.5 50.5zM213 0v460h176v-455q0 -97 -122 -86v-86q220 -24 220 178v530h-274q0 56 31.5 74t90.5 12v82q-109 8 -164.5 -32t-55.5 -136h-83v-81h83v-460h98z" />
    <glyph glyph-name=".notdef" horiz-adv-x="530" 
d="M15 0v700h500v-700h-500zM265 395l170 255h-340zM295 350l170 -255v510zM65 95l170 255l-170 255v-510zM95 50h340l-170 255z" />
    <glyph glyph-name=".null" horiz-adv-x="0" 
 />
    <glyph glyph-name="nonmarkingreturn" horiz-adv-x="333" 
 />
    <glyph glyph-name="space" unicode=" " horiz-adv-x="249" 
 />
    <glyph glyph-name="exclam" unicode="!" horiz-adv-x="255" 
d="M60 700h105v-546h-105v546zM110 115q29 0 46.5 -17.5t17.5 -45.5q0 -23 -18 -40.5t-46 -17.5q-24 0 -42 17.5t-18 40.5q0 28 17.5 45.5t42.5 17.5z" />
    <glyph glyph-name="quotedbl" unicode="&#x22;" horiz-adv-x="308" 
d="M22 699h97v-248h-97v248zM162 699h97v-248h-97v248z" />
    <glyph glyph-name="numbersign" unicode="#" horiz-adv-x="566" 
d="M520 515l-2 -95h-89q-2 -14 -8.5 -51.5t-9.5 -59.5h76l-2 -94h-88l-33 -214h-92l32 214h-97l-35 -214h-93l33 214h-85l2 94h98q3 19 7.5 56t7.5 55h-83l2 95h96l30 194h95l-29 -194h97l30 194h92l-28 -194h76zM335 420h-97q-3 -20 -8 -57t-8 -54h98q3 19 7.5 56t7.5 55z
" />
    <glyph glyph-name="dollar" unicode="$" horiz-adv-x="570" 
d="M215 708v72h100v-72q74 -13 127 -55.5t62 -116.5l-99 -10q-7 31 -32.5 53t-57.5 27v-208q89 -3 148 -50t59 -138q0 -97 -56.5 -144t-150.5 -65v-61h-100v61q-77 13 -136 61t-67 123v7l101 1l1 -1q7 -31 37 -58.5t64 -36.5v206q-58 -6 -106 24t-71.5 77.5t-20.5 106.5
t38 108q56 73 160 89zM315 297v-200q62 -2 92 50.5t4.5 103.5t-96.5 46zM134 561h-1q-32 -49 -4.5 -103t86.5 -53v202q-57 -14 -81 -46z" />
    <glyph glyph-name="percent" unicode="%" horiz-adv-x="772" 
d="M344 536q0 -70 -50.5 -119.5t-121.5 -49.5q-70 0 -120.5 49.5t-50.5 119.5q0 71 50.5 120.5t120.5 49.5q71 0 121.5 -49.5t50.5 -120.5zM542 692h115l-456 -701h-114zM251 536q0 35 -23 59.5t-56 24.5t-55.5 -24.5t-22.5 -59.5t22.5 -59t55.5 -24q34 0 56.5 24t22.5 59z
M754 164q0 -70 -50.5 -119.5t-121.5 -49.5t-121 49.5t-50 119.5q0 71 50 120.5t121 49.5t121.5 -49.5t50.5 -120.5zM661 164q0 35 -23 59.5t-56 24.5t-56 -24.5t-23 -59.5t23 -59t56 -24q34 0 56.5 24t22.5 59z" />
    <glyph glyph-name="ampersand" unicode="&#x26;" horiz-adv-x="641" 
d="M653 40v-39h-104l-80 89q-84 -98 -197 -98q-96 0 -164 56t-68 148q0 66 38.5 110.5t105.5 86.5q-64 77 -64 145q0 77 55 123t131 46q68 0 119 -45.5t51 -114.5q0 -62 -34 -102t-93 -72l114 -119l46 79l87 -45l-66 -112zM406 163l-155 162q-110 -67 -110 -127
q0 -48 42 -78t97 -30q67 0 126 73zM303 613q-32 0 -55.5 -21t-23.5 -52q0 -44 55 -105q97 54 97 110q0 29 -21 48.5t-52 19.5z" />
    <glyph glyph-name="quotesingle" unicode="'" horiz-adv-x="179" 
d="M27 700h97v-248h-97v248z" />
    <glyph glyph-name="parenleft" unicode="(" horiz-adv-x="357" 
d="M334 737l-7 -11q-93 -59 -143.5 -160.5t-50.5 -216.5q0 -114 51.5 -217.5t149.5 -167.5v-115q-146 80 -224.5 213.5t-78.5 282.5q0 148 77.5 282t225.5 219v-109z" />
    <glyph glyph-name="parenright" unicode=")" horiz-adv-x="371" 
d="M204 347q0 110 -56.5 219t-149.5 165v114q138 -72 222.5 -210.5t84.5 -287.5q0 -148 -84.5 -286.5t-222.5 -211.5v110q93 56 149.5 167t56.5 221z" />
    <glyph glyph-name="asterisk" unicode="*" horiz-adv-x="406" 
d="M373 544l-119 -36l76 -100l-66 -48l-73 105l-72 -105l-66 48l74 100q-92 29 -117 36l24 76l117 -39q0 19 -0.5 62t-0.5 62h83l-2 -124q14 4 55.5 18.5t61.5 20.5z" />
    <glyph glyph-name="plus" unicode="+" horiz-adv-x="546" 
d="M32 304v90h177v187h97v-187h181v-90h-181v-212h-97v212h-177z" />
    <glyph glyph-name="comma" unicode="," horiz-adv-x="243" 
d="M103 -100h-89l73 184h109z" />
    <glyph glyph-name="hyphen" unicode="-" horiz-adv-x="438" 
d="M70 269v83h270v-83h-270z" />
    <glyph glyph-name="period" unicode="." horiz-adv-x="209" 
d="M100 120q28 0 45.5 -17t17.5 -45q0 -24 -18 -42.5t-45 -18.5q-24 0 -42 19t-18 42q0 27 17.5 44.5t42.5 17.5z" />
    <glyph glyph-name="slash" unicode="/" horiz-adv-x="419" 
d="M394 778l-287 -843h-98l288 843h97z" />
    <glyph glyph-name="zero" unicode="0" horiz-adv-x="634" 
d="M302 607q-80 0 -121 -73t-41 -185q0 -108 41 -182.5t121 -74.5t122 74.5t42 182.5q0 112 -41.5 185t-122.5 73zM302 -7q-65 0 -117 30.5t-84 81t-49 113.5t-17 131q0 93 28.5 172.5t91 132.5t147.5 53t147.5 -53t91.5 -132.5t29 -172.5q0 -92 -29 -171.5t-91.5 -132
t-147.5 -52.5z" />
    <glyph glyph-name="one" unicode="1" horiz-adv-x="381" 
d="M294 0h-100v520l-105 -138l-65 52l189 266h81v-700z" />
    <glyph glyph-name="two" unicode="2" horiz-adv-x="609" 
d="M147 479l-101 8q14 100 77 163.5t167 63.5q76 0 135 -31t86.5 -80.5t32.5 -105.5t-23 -112t-83 -94l-226 -194h321v-97h-491v78l329 290h-1q54 39 65 97.5t-28.5 103t-116.5 44.5q-62 0 -98 -36t-45 -98z" />
    <glyph glyph-name="three" unicode="3" horiz-adv-x="597" 
d="M196 323v92h105q49 0 72.5 27t23.5 66q0 53 -38.5 77.5t-94.5 24.5q-42 0 -76.5 -22.5t-43.5 -61.5l-91 22q18 76 77.5 117t133.5 41q95 0 163.5 -49.5t69.5 -148.5q0 -92 -64 -135q45 -26 68 -75t22 -104q-1 -83 -68 -145.5t-185 -62.5q-105 0 -164.5 52t-72.5 131
l94 17q7 -45 44 -75.5t99 -30.5q77 0 117.5 37.5t40.5 86.5q0 44 -32.5 81.5t-94.5 37.5h-105z" />
    <glyph glyph-name="four" unicode="4" horiz-adv-x="610" 
d="M33 229l371 478h78v-451h57v-98h-57v-158h-100v158h-349v71zM165 254h219v278z" />
    <glyph glyph-name="five" unicode="5" horiz-adv-x="609" 
d="M39 159l93 38q47 -95 146 -95q74 0 114.5 42t39.5 100q0 38 -21.5 72t-59.5 51q-122 50 -246 -23l-57 26v337h446v-98h-344v-144q126 41 237 -4q70 -29 108 -87.5t39 -129.5q1 -99 -67 -171.5t-189 -72.5q-176 0 -239 159z" />
    <glyph glyph-name="six" unicode="6" horiz-adv-x="620" 
d="M291 380q-73 0 -113.5 -41.5t-40.5 -98.5t40.5 -97.5t113.5 -40.5q74 0 114 40.5t40 97.5t-40.5 98.5t-113.5 41.5zM79 380l234 329h124l-177 -250q38 14 86 11t84 -23q56 -32 86 -88t30 -119q0 -98 -67.5 -169t-187.5 -71t-187.5 71.5t-67.5 168.5q0 75 43 140z" />
    <glyph glyph-name="seven" unicode="7" horiz-adv-x="604" 
d="M52 707h493v-69l-345 -638h-116l328 608h-360v99z" />
    <glyph glyph-name="eight" unicode="8" horiz-adv-x="613" 
d="M288 84q72 0 112.5 35.5t40.5 80.5t-40.5 79.5t-112.5 34.5q-71 0 -111.5 -34.5t-40.5 -79.5t40.5 -80.5t111.5 -35.5zM288 622q-48 0 -85.5 -29t-37.5 -77q0 -41 32.5 -75t90.5 -34t91 34t33 76q0 47 -38 76t-86 29zM512 514q0 -42 -24 -86t-64 -62q58 -22 88 -68
t30 -97q0 -85 -67 -148t-187 -63q-119 0 -185.5 61t-66.5 150q0 49 32 94.5t89 70.5q-35 14 -57 43.5t-28.5 55t-6.5 50.5q1 93 68 144.5t155 51.5q106 0 165 -58.5t59 -138.5z" />
    <glyph glyph-name="nine" unicode="9" horiz-adv-x="616" 
d="M290 323q74 0 114.5 42t40.5 99q0 58 -40.5 99t-114.5 41t-114.5 -41t-40.5 -99q0 -57 40.5 -99t114.5 -42zM505 323l-230 -323h-125l172 244q-39 -15 -87.5 -12t-83.5 23q-57 33 -87.5 89.5t-30.5 119.5q0 99 68 171t189 72t189.5 -72t68.5 -171q0 -74 -43 -141z" />
    <glyph glyph-name="colon" unicode=":" horiz-adv-x="169" 
d="M63 112q26 0 42.5 -16t16.5 -42q0 -22 -17 -39.5t-42 -17.5q-23 0 -39.5 17.5t-16.5 39.5q0 26 16 42t40 16zM63 412q26 0 42.5 -16t16.5 -42q0 -23 -17 -40t-42 -17q-23 0 -39.5 17.5t-16.5 39.5q0 26 16 42t40 16z" />
    <glyph glyph-name="semicolon" unicode=";" horiz-adv-x="162" 
d="M73 414q26 0 42.5 -16t16.5 -42q0 -23 -17 -40t-42 -17q-23 0 -39.5 17.5t-16.5 39.5q0 26 16 42t40 16zM-35 -127h90l87 184h-110z" />
    <glyph glyph-name="less" unicode="&#x3c;" horiz-adv-x="470" 
d="M424 602v-111l-283 -140l283 -142v-106l-408 212v69z" />
    <glyph glyph-name="equal" unicode="=" horiz-adv-x="506" 
d="M19 324v95h439v-95h-439zM19 156v95h439v-95h-439z" />
    <glyph glyph-name="greater" unicode="&#x3e;" horiz-adv-x="475" 
d="M21 480v112l409 -218v-69l-409 -212v109l283 140z" />
    <glyph glyph-name="question" unicode="?" horiz-adv-x="548" 
d="M292 227l1 -81h-98v82q0 26 7.5 47.5t15.5 34t28 27t30.5 20t37.5 19.5h-1q24 13 37 22.5t26 30.5t14 49q2 50 -38.5 88.5t-108.5 38.5q-51 0 -91.5 -29.5t-65.5 -80.5l-78 46q35 74 94.5 119t140.5 45q117 0 186.5 -68t67.5 -162q-1 -34 -11 -62.5t-20.5 -45t-35 -35
t-35 -24.5t-39.5 -22q-3 -1 -9.5 -4.5t-9.5 -5.5t-9 -5t-8.5 -5t-7.5 -5.5t-7 -6t-5 -6t-4.5 -6.5t-2.5 -7t-1 -8zM243 116q29 0 47.5 -18.5t18.5 -47.5q0 -24 -19 -44t-47 -20q-26 0 -44.5 20t-18.5 44q0 29 18 47.5t45 18.5z" />
    <glyph glyph-name="at" unicode="@" horiz-adv-x="794" 
d="M599 526q-32 40 -84 62t-113 22q-111 0 -184 -71.5t-92 -175.5q-24 -130 39 -210t203 -80q45 0 105 23l41 -80q-80 -31 -146 -31q-190 0 -276.5 112t-53.5 286q23 130 120.5 223t241.5 93q142 0 237.5 -85t95.5 -210q0 -141 -70 -215.5t-165 -74.5q-61 0 -63 71
q-40 -61 -112 -61q-76 0 -115 61.5t-20 145.5q21 98 78.5 161t147.5 63q29 0 58 -19.5t29 -50.5l23 38l72 -8l-73 -269v2l-1 -3q-3 -9 -4.5 -13t-3 -11t-0.5 -10t5 -3q36 -1 66.5 33t45.5 82.5t8 105.5t-40 97zM281 325q-3 -22 -5 -46.5t12 -44t43 -19.5q52 0 92 59t40 117
q0 73 -53 73q-51 1 -84 -40t-45 -99z" />
    <glyph glyph-name="A" unicode="A" horiz-adv-x="634" 
d="M315 548l-105 -276h210zM524 0l-67 177h-284l-68 -177h-109l281 709h74l281 -709h-108z" />
    <glyph glyph-name="B" unicode="B" horiz-adv-x="642" 
d="M186 611v-190h189q31 0 53.5 19.5t28.5 47.5t1.5 56t-26.5 47.5t-55 19.5h-191zM86 707h291q65 0 113 -36t66 -86t3.5 -106.5t-63.5 -93.5q56 -24 82.5 -71.5t26.5 -102.5q0 -85 -54 -148t-149 -63h-316v707zM186 321v-223h216q48 0 75 33.5t27 78.5t-27 78t-75 33h-216z
" />
    <glyph glyph-name="C" unicode="C" horiz-adv-x="754" 
d="M39 348q0 145 99 251q47 49 112.5 78t134.5 29q120 0 208 -71t118 -190h-100q-27 77 -87 119t-139 42q-102 0 -177 -78q-71 -74 -71 -180t70 -179q71 -74 178 -74q80 0 142.5 44t89.5 123h99q-30 -120 -120 -193.5t-211 -73.5q-146 0 -244 103q-102 109 -102 250z" />
    <glyph glyph-name="D" unicode="D" horiz-adv-x="725" 
d="M187 101h150q115 0 179.5 73.5t64.5 174.5q0 102 -65 179t-179 77h-150v-504zM86 706h251q83 0 150 -31t108.5 -82t63.5 -114t22 -130t-22 -128.5t-63.5 -111.5t-108.5 -79.5t-150 -29.5h-251v706z" />
    <glyph glyph-name="E" unicode="E" horiz-adv-x="558" 
d="M188 307v-206h325v-101h-427v707h426v-101h-324v-197h317v-102h-317z" />
    <glyph glyph-name="F" unicode="F" horiz-adv-x="525" 
d="M187 307v-307h-101v706h417v-98h-316v-207h280v-94h-280z" />
    <glyph glyph-name="G" unicode="G" horiz-adv-x="791" 
d="M733 454h-110q-20 79 -85.5 116.5t-144.5 37.5q-106 0 -177 -73.5t-71 -185.5q0 -113 71 -187.5t177 -74.5q70 0 132 39t92 113h-264v103h385q-8 -95 -20 -124v1q-36 -100 -130.5 -165.5t-194.5 -65.5q-151 0 -251 102t-100 259t101 259.5t250 102.5q54 0 106 -14
t100.5 -43t84 -80.5t49.5 -119.5z" />
    <glyph glyph-name="H" unicode="H" horiz-adv-x="671" 
d="M187 706v-284h296v284h102v-706h-102v322h-296v-322h-101v706h101z" />
    <glyph glyph-name="I" unicode="I" horiz-adv-x="532" 
d="M447 706v-93h-130v-519h130v-94h-361v94h130v519h-130v93h361z" />
    <glyph glyph-name="J" unicode="J" horiz-adv-x="455" 
d="M378 705v-402q0 -161 -86.5 -237.5t-283.5 -69.5v95q148 -8 208.5 46t60.5 166v310h-189v92h290z" />
    <glyph glyph-name="K" unicode="K" horiz-adv-x="596" 
d="M86 700h100v-700h-100v700zM205 324v51l244 325h125l-267 -348l295 -352h-130z" />
    <glyph glyph-name="L" unicode="L" horiz-adv-x="521" 
d="M187 700v-599h329v-101h-430v700h101z" />
    <glyph glyph-name="M" unicode="M" horiz-adv-x="795" 
d="M187 493v-493h-101v700h82l231 -340l231 340h80v-700h-100v493l-183 -272h-57z" />
    <glyph glyph-name="N" unicode="N" horiz-adv-x="691" 
d="M187 0h-101v700h78l341 -493v493h100v-700h-80l-338 489v-489z" />
    <glyph glyph-name="O" unicode="O" horiz-adv-x="804" 
d="M139 350q0 -108 75.5 -183.5t183.5 -75.5t184 75.5t76 183.5t-76 184t-184 76t-183.5 -76t-75.5 -184zM35 350q0 152 106 258t257 106q152 0 258 -106t106 -258q0 -151 -106 -257t-258 -106t-257.5 105.5t-105.5 257.5z" />
    <glyph glyph-name="P" unicode="P" horiz-adv-x="594" 
d="M86 700h256q107 0 167 -69.5t60 -164.5t-60 -164t-167 -69h-154v-233h-102v700zM188 333h154q60 0 93.5 39t33.5 93t-33.5 93.5t-93.5 39.5h-154v-265z" />
    <glyph glyph-name="Q" unicode="Q" horiz-adv-x="757" 
d="M364 302v-16v16zM364 286v16h122l119 -108q48 65 48 156q0 104 -75 181q-74 76 -180 76q-104 0 -180 -76q-75 -77 -75 -181q0 -105 75 -182q65 -65 153.5 -76t168.5 37zM792 22v-22h-110l-63 59q-117 -77 -253.5 -65.5t-219.5 103.5q-104 114 -104 253q0 146 104 253
q104 106 252 106q147 0 253 -106q104 -107 104 -253q0 -120 -76 -219z" />
    <glyph glyph-name="R" unicode="R" horiz-adv-x="596" 
d="M223 307v48h118q60 0 93.5 36t33.5 86t-34 90t-93 40h-155v-607h-100v709h255q107 0 167.5 -70.5t60.5 -161.5q0 -78 -47.5 -138.5t-133.5 -75.5l221 -263h-131z" />
    <glyph glyph-name="S" unicode="S" horiz-adv-x="595" 
d="M536 523l-100 -4q-10 44 -51.5 67t-91.5 22q-87 -2 -127 -53q-20 -26 -17 -65q1 -21 12 -36t24 -24t37 -15t40.5 -8t45.5 -5q43 -5 75.5 -13t70 -23.5t62 -44t34.5 -68.5q5 -25 5 -46q0 -96 -79 -154.5t-181 -58.5q-56 0 -110 20.5t-95 65t-47 103.5l-1 19l102 2l1 -15v4
q5 -46 51 -72.5t100 -26.5q61 0 109 31.5t48 82.5q0 10 -3 24q-4 19 -18 32t-38.5 20t-44.5 10.5t-53 6.5q-39 4 -67.5 9t-63 17.5t-57.5 31t-40 50t-20 73.5v-1q-6 75 38 133q34 44 91.5 68.5t120.5 24.5q89 0 157 -47t81 -137z" />
    <glyph glyph-name="T" unicode="T" horiz-adv-x="537" 
d="M319 0h-101v611h-212v96h524v-96h-211v-611z" />
    <glyph glyph-name="U" unicode="U" horiz-adv-x="671" 
d="M336 -7q-64 0 -121.5 23.5t-97.5 74.5t-40 119v497h102v-498q0 -54 48 -84.5t109 -30.5q60 0 108 31t48 85v497h102v-498q0 -67 -40 -118t-97.5 -74.5t-120.5 -23.5z" />
    <glyph glyph-name="V" unicode="V" horiz-adv-x="633" 
d="M320 176l213 531h108l-284 -709h-74l-284 709h110z" />
    <glyph glyph-name="W" unicode="W" horiz-adv-x="854" 
d="M552 -4l-123 337q-17 -48 -59 -163.5t-62 -173.5h-71l-238 711h105l170 -513l115 327h81l114 -326q18 56 78.5 238.5t90.5 273.5h106l-236 -711h-71z" />
    <glyph glyph-name="X" unicode="X" horiz-adv-x="653" 
d="M8 707h124l194 -264l197 264h123l-259 -351l253 -356h-123l-191 275l-190 -275h-124l253 356z" />
    <glyph glyph-name="Y" unicode="Y" horiz-adv-x="603" 
d="M-15 713h119l197 -321l199 321h120l-268 -428v-285h-102v285z" />
    <glyph glyph-name="Z" unicode="Z" horiz-adv-x="592" 
d="M547 707v-79l-390 -538h395v-90h-512v83l388 534h-388v90h507z" />
    <glyph glyph-name="bracketleft" unicode="[" horiz-adv-x="271" 
d="M246 799v-86h-83q0 -117 -0.5 -362.5t-0.5 -361.5h83v-83h-184l1 893h184z" />
    <glyph glyph-name="backslash" unicode="\" horiz-adv-x="421" 
d="M284 -63l-282 831h104l283 -831h-105z" />
    <glyph glyph-name="bracketright" unicode="]" horiz-adv-x="286" 
d="M8 710v87h184l1 -893h-184v86h83q0 116 -0.5 360t-0.5 360h-83z" />
    <glyph glyph-name="asciicircum" unicode="^" horiz-adv-x="541" 
d="M9 323l208 380h66l207 -380h-110l-131 247l-132 -247h-108z" />
    <glyph glyph-name="underscore" unicode="_" horiz-adv-x="568" 
d="M14 0h511v-88h-511v88z" />
    <glyph glyph-name="grave" unicode="`" horiz-adv-x="266" 
d="M208 614h-87l-105 107h128z" />
    <glyph glyph-name="a" unicode="a" horiz-adv-x="702" 
d="M539 541h98v-541h-98v73q-27 -41 -81.5 -61t-111.5 -21q-136 0 -213.5 82t-77.5 200q0 115 78.5 196t210.5 81q136 0 196 -81zM539 271q0 91 -60.5 142.5t-136.5 50.5q-87 -1 -138 -55t-51 -136t54 -139.5t143 -55.5q74 2 131.5 53t57.5 140z" />
    <glyph glyph-name="b" unicode="b" horiz-adv-x="681" 
d="M176 700v-229q58 79 182 79q131 0 204.5 -80.5t73.5 -196.5q0 -120 -72.5 -201t-207.5 -81q-127 2 -180 82v-73h-98v700h98zM176 271q0 -90 52 -140.5t124 -52.5q88 -2 137.5 56.5t48.5 138.5q-1 77 -47.5 133.5t-130.5 57.5q-75 1 -129.5 -50t-54.5 -143z" />
    <glyph glyph-name="c" unicode="c" horiz-adv-x="655" 
d="M504 206h101q-19 -102 -96 -157.5t-175 -56.5q-115 -2 -199 72t-84 207q0 132 83 205.5t198 73.5q98 0 176 -56t97 -159h-101q-17 62 -64.5 95t-106.5 33q-74 0 -129 -50.5t-55 -141.5q0 -92 54.5 -142.5t130.5 -50.5q59 0 106 33t64 95z" />
    <glyph glyph-name="d" unicode="d" horiz-adv-x="684" 
d="M509 471v229h98v-700h-98v73q-53 -80 -181 -82q-137 0 -212.5 78.5t-75.5 203.5q0 120 77 198.5t210 78.5q124 0 182 -79zM509 271q0 92 -54.5 143t-129.5 50q-84 -1 -135 -58t-52 -133q-1 -88 51 -142.5t143 -52.5q73 2 125 52.5t52 140.5z" />
    <glyph glyph-name="e" unicode="e" horiz-adv-x="660" 
d="M606 294q3 -24 -2 -47h-458q0 -75 57.5 -122.5t124.5 -47.5q52 0 95 23t66 67h101q-30 -85 -102.5 -131t-160.5 -46q-113 0 -196 74t-83 206t82.5 205.5t198.5 73.5q108 0 188.5 -67t88.5 -188zM150 328h353q-13 68 -61.5 101.5t-112.5 33.5q-65 0 -115 -33.5t-64 -101.5
z" />
    <glyph glyph-name="f" unicode="f" horiz-adv-x="351" 
d="M213 460v-460h-98v460h-83v85h83q0 95 55 133.5t165 30.5v-82q-60 6 -91 -10t-31 -72h110v-85h-110z" />
    <glyph glyph-name="g" unicode="g" 
d="M617 20q0 -60 -24 -106.5t-65 -73.5t-88.5 -40t-100.5 -13q-111 0 -187 45t-76 132h97q0 -47 50.5 -69t114.5 -21q73 1 127 37.5t54 108.5v57q-58 -76 -182 -76q-132 0 -209.5 77t-77.5 191q0 118 76.5 200t212.5 81q55 0 104 -20t77 -61v72h97v-521zM336 87q87 0 135 58
t48 139q0 76 -46 127t-130 53q-88 2 -141.5 -57t-53.5 -138q1 -75 51.5 -128.5t136.5 -53.5z" />
    <glyph glyph-name="h" unicode="h" horiz-adv-x="648" 
d="M169 700v-226q53 75 166 75q120 0 178 -68.5t58 -189.5v-291h-98v290q0 84 -30 127.5t-111 44.5q-76 1 -119.5 -46.5t-43.5 -121.5v-294h-97v700h97z" />
    <glyph glyph-name="i" unicode="i" horiz-adv-x="269" 
d="M179 0v547h-98v-547h98zM69 680q0 26 19 41.5t42 15.5t42 -15t19 -42q0 -36 -30.5 -50.5t-61 0t-30.5 50.5z" />
    <glyph glyph-name="j" unicode="j" horiz-adv-x="263" 
d="M76 683q0 26 19 41.5t42 15.5t42 -15t19 -42q0 -36 -30.5 -50.5t-61 0t-30.5 50.5zM88 547v-542q0 -97 -122 -86v-86q220 -24 220 178v536h-98z" />
    <glyph glyph-name="k" unicode="k" horiz-adv-x="557" 
d="M178 700v-418l83 99l150 160h118l-218 -233l232 -299v-9h-113l-182 240l-70 -75v-165h-98v700h98z" />
    <glyph glyph-name="l" unicode="l" horiz-adv-x="248" 
d="M173 700v-700h-98v700h98z" />
    <glyph glyph-name="m" unicode="m" horiz-adv-x="985" 
d="M88 550h98v-76q52 76 152 76q135 0 184 -94q51 92 173 94q107 0 160.5 -66.5t53.5 -175.5v-308h-98v307q0 152 -113 152q-70 0 -107 -42.5t-37 -111.5v-305h-98v304q0 65 -28.5 110t-90.5 45q-67 0 -109 -44t-42 -121v-294h-98v550z" />
    <glyph glyph-name="n" unicode="n" horiz-adv-x="648" 
d="M75 541h98v-67q52 75 166 75q119 0 177 -68.5t58 -189.5v-291h-97v290q0 84 -30 127.5t-111 44.5q-76 1 -119.5 -46.5t-43.5 -121.5v-294h-98v541z" />
    <glyph glyph-name="o" unicode="o" 
d="M635 270q0 -132 -87 -206t-206 -74q-75 0 -139.5 30t-107.5 95.5t-43 154.5q0 132 87 206t206 74q118 0 204 -74t86 -206zM150 270q0 -90 57 -140.5t135 -51.5q79 -1 137.5 50t58.5 142t-57.5 142t-135.5 51q-80 0 -137.5 -51t-57.5 -142z" />
    <glyph glyph-name="p" unicode="p" horiz-adv-x="689" 
d="M172 71v-229h-98v699h98v-72q28 41 77 61t104 20q91 0 156 -39.5t94.5 -102t29.5 -139.5q0 -117 -74 -197.5t-205 -80.5q-122 0 -182 80zM172 271q0 -92 54.5 -143t129.5 -50q84 1 131.5 57.5t47.5 133.5q1 80 -48.5 138.5t-137.5 56.5q-72 -2 -124.5 -53t-52.5 -140z
" />
    <glyph glyph-name="q" unicode="q" horiz-adv-x="691" 
d="M517 -158v229q-59 -80 -182 -80q-132 0 -212 81.5t-80 196.5q0 118 78.5 200t214.5 81q55 0 104 -20t77 -61v72h98v-699h-98zM517 271q0 89 -52.5 140t-124.5 53q-89 2 -144.5 -57t-54.5 -138q1 -75 54 -132.5t138 -58.5q75 -1 129.5 50t54.5 143z" />
    <glyph glyph-name="r" unicode="r" horiz-adv-x="420" 
d="M75 540h97v-66q74 103 217 70v-86q-83 25 -150 -26t-67 -139v-293h-97v540z" />
    <glyph glyph-name="s" unicode="s" horiz-adv-x="521" 
d="M143 385q0 -11 2.5 -20t8.5 -15.5t11 -11.5t15.5 -8.5t16 -5.5t19 -3.5l18 -2t19 -1.5t16.5 -1q218 -15 218 -162q0 -59 -36.5 -97.5t-84.5 -52t-105 -13.5q-93 0 -155.5 42.5t-67.5 132.5h98q3 -44 39.5 -67.5t90.5 -22.5q29 1 54.5 7t47 24.5t21.5 47.5q0 21 -13 36.5
t-35.5 22.5t-41.5 10t-41 4q-212 9 -212 155q0 59 33 98.5t79.5 55t103.5 15.5q87 0 145.5 -39.5t63.5 -119.5h-97q-4 34 -36 52.5t-79 18.5q-49 0 -82.5 -20t-33.5 -59z" />
    <glyph glyph-name="t" unicode="t" horiz-adv-x="344" 
d="M105 642l98 19v-120h119v-78h-119v-305q0 -56 29.5 -69.5t92.5 -7.5v-82q-108 -8 -164 25.5t-56 134.5v304h-81v78h81v101z" />
    <glyph glyph-name="u" unicode="u" horiz-adv-x="644" 
d="M567 0h-93v71q-54 -79 -171 -79q-119 0 -177 68.5t-58 189.5v296h98v-296q0 -83 29.5 -126.5t110.5 -44.5q77 -1 120 46t43 122v299h98v-546z" />
    <glyph glyph-name="v" unicode="v" horiz-adv-x="549" 
d="M274 131l66 188l88 222h104l-219 -545h-78l-220 545h104l89 -220z" />
    <glyph glyph-name="w" unicode="w" horiz-adv-x="784" 
d="M28 541h103l45 -148l65 -232l108 380h87l109 -380l64 232l46 148h103l-177 -545h-75l-66 212l-47 163l-47 -163l-67 -212h-74z" />
    <glyph glyph-name="x" unicode="x" horiz-adv-x="527" 
d="M27 541v8h102l135 -194l135 194h105v-3l-187 -269l183 -275v-3h-104l-132 204l-131 -204h-102v6l180 272z" />
    <glyph glyph-name="y" unicode="y" horiz-adv-x="562" 
d="M283 132l63 176l93 241h104l-284 -716h-104l76 195l-211 521h104l98 -240z" />
    <glyph glyph-name="z" unicode="z" horiz-adv-x="469" 
d="M35 458v86h404v-68l-300 -391h297v-43v-42h-413v77l296 381h-284z" />
    <glyph glyph-name="braceleft" unicode="{" horiz-adv-x="300" 
d="M258 804v-88h-25q-17 1 -25 -0.5t-14 -10.5t-6 -27v-189q0 -104 -47 -144q47 -39 47 -143v-184q0 -27 10 -33.5t35 -5.5h25v-88h-50q-55 0 -85.5 33t-30.5 88v172q0 116 -64 116v91q64 0 64 116v175q0 56 30.5 89t85.5 33h50z" />
    <glyph glyph-name="bar" unicode="|" horiz-adv-x="264" 
d="M65 -153v934h97v-934h-97z" />
    <glyph glyph-name="braceright" unicode="}" horiz-adv-x="298" 
d="M12 714v88h51q55 0 85 -33t30 -89v-173q0 -116 65 -116v-91q-65 0 -65 -116v-163q0 -55 -30 -88t-85 -33h-51v88h25q25 -1 35 5.5t10 33.5v175q0 104 47 143q-47 40 -47 144v187q0 26 -10 32.5t-35 5.5h-25z" />
    <glyph glyph-name="asciitilde" unicode="~" horiz-adv-x="526" 
d="M440 396l56 -53q-63 -108 -159 -98q-57 6 -109 47q-50 38 -86 30t-75 -62l-55 56q73 111 164 102q53 -4 115 -54q29 -24 52.5 -27.5t45.5 10.5t51 49z" />
    <glyph glyph-name="uni00A0" unicode="&#xa0;" horiz-adv-x="257" 
 />
    <glyph glyph-name="exclamdown" unicode="&#xa1;" horiz-adv-x="248" 
d="M47 -196h105v546h-105v-546zM102 389q-29 0 -46.5 17.5t-17.5 45.5q0 23 18 40.5t46 17.5q24 0 42 -17.5t18 -40.5q0 -28 -17.5 -45.5t-42.5 -17.5z" />
    <glyph glyph-name="cent" unicode="&#xa2;" horiz-adv-x="730" 
d="M310 700v92h95v-93q102 -14 175.5 -81t100.5 -173h-100q-23 64 -69 103t-107 50v-499q63 12 111.5 54.5t70.5 108.5h99q-27 -108 -102 -178.5t-179 -84.5v-100h-95v99q-116 15 -197 101q-100 107 -100 249q0 144 100 251q81 84 197 101zM183 528q-72 -75 -72 -180
q0 -103 72 -178q53 -56 127 -71v499q-74 -15 -127 -70z" />
    <glyph glyph-name="sterling" unicode="&#xa3;" horiz-adv-x="562" 
d="M512 527h-95q0 64 -59 89t-119.5 -5.5t-64.5 -102.5v-113h212v-82h-212v-225h336v-88h-492v72l55 15v226h-57v82h57v113q0 77 45 129t109.5 64.5t129.5 2t110 -58.5t45 -118z" />
    <glyph glyph-name="yen" unicode="&#xa5;" horiz-adv-x="624" 
d="M94 161v82h148v49l-3 5h-145v82h93l-204 320h119l191 -309l191 309h120l-206 -320h94v-82h-145l-3 -5v-49h148v-82h-148v-161h-102v161h-148z" />
    <glyph glyph-name="brokenbar" unicode="&#xa6;" horiz-adv-x="210" 
d="M44 -133v405h99v-405h-99zM143 777v-427h-99v427h99z" />
    <glyph glyph-name="section" unicode="&#xa7;" horiz-adv-x="498" 
d="M236 295q30 -4 65 -16q34 17 34 56q-1 28 -32.5 44.5t-70.5 22.5q-28 5 -57 13q-36 -20 -35 -58q0 -14 9 -25.5t26 -18.5t29 -10.5t32 -7.5zM38 357q0 61 61 94q-44 36 -44 97q0 71 59.5 113.5t139.5 42.5q102 0 171 -65l-61 -68q-56 44 -113 46q-37 1 -65 -17.5
t-27 -51.5q0 -44 95 -59q182 -34 182 -154q0 -69 -62 -93q46 -39 46 -99q0 -75 -63.5 -114.5t-140.5 -39.5q-126 0 -196 88l68 62q58 -65 128 -65q38 -1 68.5 17t29.5 52q0 49 -100 66q-176 27 -176 148z" />
    <glyph glyph-name="dieresis" unicode="&#xa8;" horiz-adv-x="382" 
d="M86 856q25 0 41 -15.5t16 -40.5q0 -21 -16 -38t-41 -17q-22 0 -38 17t-16 38q0 24 15.5 40t38.5 16zM276 856q25 0 41 -15.5t16 -40.5q0 -21 -16 -38t-41 -17q-22 0 -38 17t-16 38q0 24 15.5 40t38.5 16z" />
    <glyph glyph-name="copyright" unicode="&#xa9;" horiz-adv-x="811" 
d="M30 346q0 152 104 258.5t253 106.5q150 0 255 -106.5t105 -258.5t-105 -258t-255 -106q-149 0 -253 106t-104 258zM132 346q0 -115 73.5 -193.5t181.5 -78.5q109 0 184 78.5t75 193.5t-75 193.5t-184 78.5q-108 0 -181.5 -78.5t-73.5 -193.5zM194 345q0 -86 57 -144
t141 -58q70 0 121.5 46t70.5 121h-80q-14 -43 -43.5 -66.5t-68.5 -23.5q-50 0 -84.5 33.5t-34.5 91.5q0 54 34 90.5t85 36.5q79 0 109 -85h81q-19 75 -70 118.5t-120 43.5q-82 0 -140 -57.5t-58 -146.5z" />
    <glyph glyph-name="ordfeminine" unicode="&#xaa;" horiz-adv-x="645" 
d="M309 548l-88 -247h174zM518 0l-84 206h-251q-58 -138 -84 -206h-109l281 709h74l281 -709h-108zM-9 -123v85h635v-85h-635z" />
    <glyph glyph-name="guillemotleft" unicode="&#xab;" horiz-adv-x="495" 
d="M179 323l166 208h113l-165 -208q24 -31 81.5 -102.5t83.5 -104.5h-113zM177 116l-166 207l166 208h113l-165 -208q24 -31 81.5 -102.5t83.5 -104.5h-113z" />
    <glyph glyph-name="logicalnot" unicode="&#xac;" horiz-adv-x="564" 
d="M18 330v91h482v-276h-94v185h-388z" />
    <glyph glyph-name="uni00AD" unicode="&#xad;" horiz-adv-x="386" 
d="M26 285v99h304v-99h-304z" />
    <glyph glyph-name="registered" unicode="&#xae;" horiz-adv-x="790" 
d="M22 348q0 152 103.5 258.5t251.5 106.5q149 0 253.5 -106.5t104.5 -258.5t-104.5 -258.5t-253.5 -106.5q-148 0 -251.5 106.5t-103.5 258.5zM123 346q0 -115 73.5 -193.5t181.5 -78.5q109 0 184 78.5t75 193.5t-75 193.5t-184 78.5q-108 0 -181.5 -78.5t-73.5 -193.5z
M326 470v-339h-83v420h157q68 0 106 -41.5t38 -96.5q0 -44 -24 -79t-71 -49l97 -115l-72 -45l-132 165v66h58q28 0 44 17t16 40t-16 40t-44 17h-74z" />
    <glyph glyph-name="macron" unicode="&#xaf;" horiz-adv-x="342" 
d="M27 701v85h268v-85h-268z" />
    <glyph glyph-name="degree" unicode="&#xb0;" horiz-adv-x="357" 
d="M161 439q-58 0 -98.5 40t-40.5 96q0 55 41 95t98 40q58 0 99.5 -40t41.5 -95q0 -56 -41.5 -96t-99.5 -40zM161 515q25 0 41.5 17.5t16.5 42.5q0 26 -16.5 43t-41.5 17q-24 0 -40.5 -17.5t-16.5 -42.5t16.5 -42.5t40.5 -17.5z" />
    <glyph glyph-name="plusminus" unicode="&#xb1;" horiz-adv-x="563" 
d="M12 91h501v-91h-501v91zM23 333v95h201v196h99v-196h192v-95h-192v-198h-99v198h-201z" />
    <glyph glyph-name="twosuperior" unicode="&#xb2;" horiz-adv-x="389" 
d="M98 582l-83 3q0 66 45 110t117 44q77 0 121.5 -42t44.5 -101q0 -75 -70 -124h1l-76 -60l-40 -31h186v-78h-331v61l201 166q40 27 40 68q0 27 -20 44.5t-57 17.5q-36 0 -57.5 -20.5t-21.5 -57.5z" />
    <glyph glyph-name="threesuperior" unicode="&#xb3;" horiz-adv-x="410" 
d="M120 486v70h67q43 0 58 35q15 34 -13 59q-22 17 -59 18q-24 0 -43.5 -15t-24.5 -41l-84 7q7 61 52.5 94t99.5 33q67 0 117 -34t51 -98q0 -58 -53 -87q71 -32 69 -101q-1 -55 -47.5 -95.5t-131.5 -40.5q-146 0 -164 131l84 15q5 -28 24 -45t42.5 -20.5t47 1t39 20
t16.5 36.5q1 23 -17 40.5t-54 17.5h-76z" />
    <glyph glyph-name="acute" unicode="&#xb4;" horiz-adv-x="272" 
d="M120 642h-87l72 107h128z" />
    <glyph glyph-name="_181" unicode="&#xb5;" horiz-adv-x="720" 
d="M133 493v-493h-101v700h82l231 -340l231 340h80v-700h-100v493l-183 -272h-57z" />
    <glyph glyph-name="paragraph" unicode="&#xb6;" horiz-adv-x="624" 
d="M223 -77v343q-92 12 -146.5 73.5t-54.5 138.5q0 89 62.5 154t175.5 65h287v-774h-99v688h-125v-688h-100z" />
    <glyph glyph-name="periodcentered" unicode="&#xb7;" horiz-adv-x="226" 
d="M93 409q28 0 45.5 -17t17.5 -45q0 -24 -18 -42.5t-45 -18.5q-24 0 -42 19t-18 42q0 27 17.5 44.5t42.5 17.5z" />
    <glyph glyph-name="cedilla" unicode="&#xb8;" horiz-adv-x="302" 
d="M104 33h75l-17 -43q46 -3 70.5 -30.5t20.5 -63.5q-6 -56 -59.5 -86t-113.5 -14.5t-82 73.5l63 30q19 -25 44 -30t42.5 5t21.5 25q3 12 -4.5 23.5t-33.5 18.5t-66 2z" />
    <glyph glyph-name="onesuperior" unicode="&#xb9;" horiz-adv-x="283" 
d="M214 324h-96v280l-43 -50l-61 58l119 139h81v-427z" />
    <glyph glyph-name="ordmasculine" unicode="&#xba;" horiz-adv-x="406" 
d="M192 372q-74 0 -124 47.5t-50 121.5q0 71 50 118t123 47t123.5 -47t50.5 -118q0 -74 -50 -121.5t-123 -47.5zM192 450q34 0 58 26t24 65q0 38 -24 62.5t-58 24.5q-36 0 -60 -24.5t-24 -62.5q0 -39 24 -65t60 -26zM24 240v89h332v-89h-332z" />
    <glyph glyph-name="guillemotright" unicode="&#xbb;" horiz-adv-x="500" 
d="M184 133l166 207l-166 208h113l166 -208l-166 -207h-113zM12 133l166 207l-173 208h120l165 -208l-165 -207h-113z" />
    <glyph glyph-name="onequarter" unicode="&#xbc;" horiz-adv-x="846" 
d="M236 -31h-111l391 802h117zM126 324h96v427h-85l-119 -139l61 -53l47 50v-285zM740 160v295h-92l-246 -327l46 -55h199v-73h93v73h41v87h-41zM644 160h-114l117 157z" />
    <glyph glyph-name="onehalf" unicode="&#xbd;" horiz-adv-x="866" 
d="M221 -31h-111l406 802h117zM126 324h92v427h-81l-119 -139l61 -52l47 50v-286zM468 281l88 -3q1 49 39.5 66t76.5 0.5t38 -50.5q0 -41 -40 -68l-201 -166v-61h331v78h-186l40 31l76 60h-1q70 49 70 124q0 59 -44.5 101t-121.5 42q-73 0 -119 -44t-46 -110z" />
    <glyph glyph-name="threequarters" unicode="&#xbe;" horiz-adv-x="959" 
d="M348 -31h-111l396 802h117zM852 160v295h-92l-246 -327l46 -55h199v-73h93v73h41v87h-41zM756 160h-114l117 157zM132 475v77h67q44 0 58 35q15 33 -14 56q-22 16 -58 17q-24 0 -43.5 -14.5t-24.5 -40.5l-84 7q7 63 52 96t100 33q67 0 117 -34t51 -100q0 -60 -50 -87
q39 -17 53 -41.5t13 -59.5q-1 -55 -47.5 -95.5t-131.5 -40.5q-146 0 -164 131l84 15q5 -28 24 -44.5t42.5 -19t47 2.5t39 20t16.5 33q1 23 -17 38.5t-54 15.5h-76z" />
    <glyph glyph-name="questiondown" unicode="&#xbf;" horiz-adv-x="581" 
d="M246 371l1 -81q0 -13 -11 -25t-19 -16.5t-32 -17.5q-29 -16 -39.5 -22t-35 -24.5t-35 -35t-20.5 -45t-11 -62.5q-2 -94 67.5 -162t186.5 -68q81 0 140.5 45t94.5 119l-82 47q-52 -107 -153 -107q-69 0 -109 37t-38 87q1 28 14 48.5t25.5 29t37.5 22.5h-1q33 17 47 25.5
t35.5 26.5t30 41.5t8.5 55.5v82h-102zM298 401q-29 0 -47.5 18.5t-18.5 47.5q0 27 19.5 44.5t47.5 17.5q25 0 43.5 -17t18.5 -45q0 -29 -18 -47.5t-45 -18.5z" />
    <glyph glyph-name="Agrave" unicode="&#xc0;" horiz-adv-x="647" 
d="M311 548l-105 -276h210zM520 0l-67 177h-284l-68 -177h-109l281 709h74l281 -709h-108zM354 762h-87l-105 107h128z" />
    <glyph glyph-name="Aacute" unicode="&#xc1;" horiz-adv-x="647" 
d="M311 548l-105 -276h210zM520 0l-67 177h-284l-68 -177h-109l281 709h74l281 -709h-108zM353 770h-87l72 107h128z" />
    <glyph glyph-name="Acircumflex" unicode="&#xc2;" horiz-adv-x="647" 
d="M311 548l-105 -276h210zM520 0l-67 177h-284l-68 -177h-109l281 709h74l281 -709h-108zM258 764h-110l121 109h86l119 -109h-108l-57 47z" />
    <glyph glyph-name="Atilde" unicode="&#xc3;" horiz-adv-x="647" 
d="M421 889l52 -38q-16 -37 -44 -56.5t-62 -19.5q-23 1 -55.5 19.5t-48.5 18.5q-33 0 -59 -36l-57 35q42 77 114 77q25 -1 58.5 -20t45.5 -19q31 0 56 39zM311 548l-105 -276h210zM520 0l-67 177h-284l-68 -177h-109l281 709h74l281 -709h-108z" />
    <glyph glyph-name="Adieresis" unicode="&#xc4;" horiz-adv-x="647" 
d="M311 548l-105 -276h210zM520 0l-67 177h-284l-68 -177h-109l281 709h74l281 -709h-108zM214 849q25 0 41 -15.5t16 -40.5q0 -21 -16 -38t-41 -17q-22 0 -38 17t-16 38q0 24 15.5 40t38.5 16zM404 849q25 0 41 -15.5t16 -40.5q0 -21 -16 -38t-41 -17q-22 0 -38 17t-16 38
q0 24 15.5 40t38.5 16z" />
    <glyph glyph-name="Aring" unicode="&#xc5;" horiz-adv-x="647" 
d="M311 548l-105 -276h210zM520 0l-67 177h-284l-68 -177h-109l281 709h74l281 -709h-108zM307 698q-39 0 -66.5 23t-27.5 60q0 38 27.5 61t66.5 23q38 0 66 -23t28 -61q0 -37 -28 -60t-66 -23zM307 744q17 0 27.5 10.5t10.5 26.5q0 18 -10.5 28.5t-27.5 10.5t-27.5 -10.5
t-10.5 -28.5q0 -17 10.5 -27t27.5 -10z" />
    <glyph glyph-name="AE" unicode="&#xc6;" horiz-adv-x="875" 
d="M188 154l-83 -154h-114l384 706h445v-101h-324v-212h317v-98h-317v-194h326v-101h-427l3 154h-210zM399 249l6 314l-166 -314h160z" />
    <glyph glyph-name="Ccedilla" unicode="&#xc7;" horiz-adv-x="741" 
d="M24 348q0 144 100 251q101 104 242 104q120 0 208 -69.5t118 -188.5h-100q-27 77 -87 117.5t-139 40.5q-100 0 -172 -75t-72 -180q0 -103 72 -178t172 -75q80 0 142.5 44t89.5 123h99q-29 -113 -110 -185t-192 -80l-12 -31q46 -3 70.5 -30.5t20.5 -63.5q-6 -56 -59.5 -86
t-113.5 -14.5t-82 73.5l63 30q19 -25 44 -30t42.5 5t21.5 25q3 12 -4.5 23.5t-33.5 18.5t-66 2l34 79q-115 15 -196 101q-100 107 -100 249z" />
    <glyph glyph-name="Egrave" unicode="&#xc8;" horiz-adv-x="498" 
d="M124 101v198h317v102h-317v204h324v101h-426v-706h427v101h-325zM319 776h-87l-105 107h128z" />
    <glyph glyph-name="Eacute" unicode="&#xc9;" horiz-adv-x="498" 
d="M124 299v-198h325v-101h-427v706h426v-101h-324v-204h317v-102h-317zM273 778h-87l72 107h128z" />
    <glyph glyph-name="Ecircumflex" unicode="&#xca;" horiz-adv-x="498" 
d="M124 299v-198h325v-101h-427v707h426v-101h-324v-205h317v-102h-317zM197 780h-110l121 109h86l119 -109h-108l-57 47z" />
    <glyph glyph-name="Edieresis" unicode="&#xcb;" horiz-adv-x="498" 
d="M124 101v209h317v102h-317v193h324v101h-426v-706h427v101h-325zM152 881q25 0 41 -15.5t16 -40.5q0 -21 -16 -38t-41 -17q-22 0 -38 17t-16 38q0 24 15.5 40t38.5 16zM342 881q25 0 41 -15.5t16 -40.5q0 -21 -16 -38t-41 -17q-22 0 -38 17t-16 38q0 24 15.5 40t38.5 16z
" />
    <glyph glyph-name="Igrave" unicode="&#xcc;" horiz-adv-x="409" 
d="M365 606v100h-361v-100h130v-505h-130v-101h361v101h-130v505h130zM242 786h-87l-105 107h128z" />
    <glyph glyph-name="Iacute" unicode="&#xcd;" horiz-adv-x="408" 
d="M369 706v-96h-130v-513h130v-97h-361v97h130v513h-130v96h361zM225 782h-87l72 107h128z" />
    <glyph glyph-name="Icircumflex" unicode="&#xce;" horiz-adv-x="408" 
d="M369 706v-96h-130v-513h130v-97h-361v97h130v513h-130v96h361zM136 781h-110l121 109h86l119 -109h-108l-57 47z" />
    <glyph glyph-name="Idieresis" unicode="&#xcf;" horiz-adv-x="408" 
d="M369 610v96h-361v-96h130v-513h-130v-97h361v97h-130v513h130zM93 883q25 0 41 -15.5t16 -40.5q0 -21 -16 -38t-41 -17q-22 0 -38 17t-16 38q0 24 15.5 40t38.5 16zM283 883q25 0 41 -15.5t16 -40.5q0 -21 -16 -38t-41 -17q-22 0 -38 17t-16 38q0 24 15.5 40t38.5 16z
" />
    <glyph glyph-name="Eth" unicode="&#xd0;" 
d="M0 313v91h50v302h251q83 0 150 -31t108.5 -82t63.5 -114t22 -130t-22 -128.5t-63.5 -111.5t-108.5 -79.5t-150 -29.5h-251v313h-50zM151 101h150q115 0 179.5 73.5t64.5 174.5q0 102 -65 179t-179 77h-150v-201h132v-91h-132v-212z" />
    <glyph glyph-name="Ntilde" unicode="&#xd1;" horiz-adv-x="621" 
d="M404 892l53 -37q-32 -76 -105 -76q-23 0 -56.5 18.5t-48.5 18.5q-33 0 -58 -37l-58 35q41 78 113 78q24 -1 58.5 -19.5t46.5 -18.5q31 0 55 38zM140 0h-101v700h78l341 -493v493h100v-700h-80l-338 489v-489z" />
    <glyph glyph-name="Ograve" unicode="&#xd2;" horiz-adv-x="793" 
d="M634 350q0 -105 -74 -181q-76 -76 -181 -76t-179 76q-75 75 -75 181t75 181q74 76 179 76t181 -76q74 -76 74 -181zM23 350q0 -146 104 -253q103 -106 252 -106t253 106q104 107 104 253t-104 253q-106 106 -253 106q-148 0 -252 -106q-104 -107 -104 -253zM442 779h-87
l-105 107h128z" />
    <glyph glyph-name="Oacute" unicode="&#xd3;" horiz-adv-x="793" 
d="M634 350q0 105 -74 181q-76 76 -181 76t-179 -76q-75 -75 -75 -181t75 -181q74 -76 179 -76t181 76q74 76 74 181zM23 350q0 146 104 253q104 106 252 106q147 0 253 -106q104 -107 104 -253t-104 -253q-104 -106 -253 -106t-252 106q-104 107 -104 253zM413 780h-87
l72 107h128z" />
    <glyph glyph-name="Ocircumflex" unicode="&#xd4;" horiz-adv-x="793" 
d="M634 350q0 105 -74 181q-76 76 -181 76t-179 -76q-75 -75 -75 -181t75 -181q74 -76 179 -76t181 76q74 76 74 181zM23 350q0 146 104 253q104 106 252 106q147 0 253 -106q104 -107 104 -253t-104 -253q-104 -106 -253 -106t-252 106q-104 107 -104 253zM327 785h-110
l121 109h86l119 -109h-108l-57 47z" />
    <glyph glyph-name="Otilde" unicode="&#xd5;" horiz-adv-x="793" 
d="M497 917l55 -39q-32 -75 -105 -77q-23 0 -56 18t-49 18q-32 0 -58 -37l-59 36q20 38 50.5 58.5t63.5 20.5q25 0 59.5 -18.5t45.5 -18.5q28 0 53 39zM634 350q0 105 -74 181q-76 76 -181 76t-179 -76q-75 -75 -75 -181t75 -181q74 -76 179 -76t181 76q74 76 74 181z
M23 350q0 146 104 253q104 106 252 106q147 0 253 -106q104 -107 104 -253t-104 -253q-104 -106 -253 -106t-252 106q-104 107 -104 253z" />
    <glyph glyph-name="Odieresis" unicode="&#xd6;" horiz-adv-x="793" 
d="M634 350q0 -105 -74 -181q-76 -76 -181 -76t-179 76q-75 75 -75 181t75 181q74 76 179 76t181 -76q74 -76 74 -181zM23 350q0 -146 104 -253q103 -106 252 -106t253 106q104 107 104 253t-104 253q-106 106 -253 106q-148 0 -252 -106q-104 -107 -104 -253zM282 885
q25 0 41 -15.5t16 -40.5q0 -21 -16 -38t-41 -17q-22 0 -38 17t-16 38q0 24 15.5 40t38.5 16zM472 885q25 0 41 -15.5t16 -40.5q0 -21 -16 -38t-41 -17q-22 0 -38 17t-16 38q0 24 15.5 40t38.5 16z" />
    <glyph glyph-name="multiply" unicode="&#xd7;" horiz-adv-x="475" 
d="M18 455l68 68l143 -143l138 139l68 -67l-140 -138l138 -138l-68 -67l-137 136l-140 -140l-68 67l141 140z" />
    <glyph glyph-name="Oslash" unicode="&#xd8;" horiz-adv-x="793" 
d="M23 350q0 146 104 253q104 106 252 106q79 0 152 -35l62 97h106l-93 -145q14 -11 26 -23q104 -107 104 -253t-104 -253q-104 -106 -253 -106q-82 0 -156 36l-57 -89h-107l89 139q-11 8 -21 20q-104 107 -104 253zM634 350q0 105 -74 181l-9 8l-272 -425q50 -21 100 -21
q105 0 181 76q74 76 74 181zM379 607q-105 0 -179 -76q-75 -75 -75 -181t75 -181l4 -5l271 423q-46 20 -96 20z" />
    <glyph glyph-name="Ugrave" unicode="&#xd9;" horiz-adv-x="609" 
d="M287 -7q63 0 120.5 23.5t97.5 74.5t40 118v501h-102v-500q0 -54 -48 -85t-108 -31q-61 0 -109 30.5t-48 84.5v501h-102v-500q0 -68 40 -119t97.5 -74.5t121.5 -23.5zM358 772h-87l-105 107h128z" />
    <glyph glyph-name="Uacute" unicode="&#xda;" horiz-adv-x="609" 
d="M287 -7q-64 0 -121.5 23.5t-97.5 74.5t-40 119v506h102v-507q0 -54 48 -84.5t109 -30.5q60 0 108 31t48 85v506h102v-507q0 -67 -40 -118t-97.5 -74.5t-120.5 -23.5zM315 780h-87l72 107h128z" />
    <glyph glyph-name="Ucircumflex" unicode="&#xdb;" horiz-adv-x="609" 
d="M287 -7q-64 0 -121.5 23.5t-97.5 74.5t-40 119v504h102v-505q0 -54 48 -84.5t109 -30.5q60 0 108 31t48 85v504h102v-505q0 -67 -40 -118t-97.5 -74.5t-120.5 -23.5zM234 772h-110l121 109h86l119 -109h-108l-57 47z" />
    <glyph glyph-name="Udieresis" unicode="&#xdc;" horiz-adv-x="609" 
d="M287 -7q63 0 120.5 23.5t97.5 74.5t40 118v501h-102v-500q0 -54 -48 -85t-108 -31q-61 0 -109 30.5t-48 84.5v501h-102v-500q0 -68 40 -119t97.5 -74.5t121.5 -23.5zM194 882q25 0 41 -15.5t16 -40.5q0 -21 -16 -38t-41 -17q-22 0 -38 17t-16 38q0 24 15.5 40t38.5 16z
M384 882q25 0 41 -15.5t16 -40.5q0 -21 -16 -38t-41 -17q-22 0 -38 17t-16 38q0 24 15.5 40t38.5 16z" />
    <glyph glyph-name="Yacute" unicode="&#xdd;" horiz-adv-x="630" 
d="M-17 707h119l195 -315l195 315h120l-264 -422v-285h-102v285zM316 776h-87l72 107h128z" />
    <glyph glyph-name="Thorn" unicode="&#xde;" horiz-adv-x="553" 
d="M24 0v707h102v-113h154q107 0 167 -69.5t60 -164.5t-60 -164t-167 -69h-154v-127h-102zM126 227h154q60 0 93.5 39t33.5 93t-33.5 93.5t-93.5 39.5h-154v-265z" />
    <glyph glyph-name="germandbls" unicode="&#xdf;" horiz-adv-x="626" 
d="M189 521v-521h-108v521q0 84 65.5 135t155.5 51t153.5 -49.5t63.5 -132.5q0 -40 -19 -80t-57 -66q59 -25 90.5 -73t30.5 -103q2 -101 -68 -155.5t-173 -54.5q-51 0 -114 20v98q53 -30 100 -30q69 0 108.5 36.5t39.5 85.5q0 50 -39.5 86t-108.5 36h-73v93h73
q50 0 79.5 33.5t26.5 74.5q-3 40 -36 64.5t-78 24.5q-44 0 -78 -26.5t-34 -67.5z" />
    <glyph glyph-name="agrave" unicode="&#xe0;" horiz-adv-x="686" 
d="M523 541h98v-541h-98v73q-27 -41 -81.5 -61t-111.5 -21q-136 0 -213.5 82t-77.5 200q0 115 78.5 196t210.5 81q136 0 196 -81zM523 271q0 91 -60.5 142.5t-136.5 50.5q-87 -1 -138 -55t-51 -136t54 -139.5t143 -55.5q74 2 131.5 53t57.5 140zM407 643h-87l-105 107h128z
" />
    <glyph glyph-name="aacute" unicode="&#xe1;" horiz-adv-x="686" 
d="M523 541h98v-541h-98v73q-27 -41 -81.5 -61t-111.5 -21q-136 0 -213.5 82t-77.5 200q0 115 78.5 196t210.5 81q136 0 196 -81zM523 271q0 91 -60.5 142.5t-136.5 50.5q-87 -1 -138 -55t-51 -136t54 -139.5t143 -55.5q74 2 131.5 53t57.5 140zM355 650h-87l72 107h128z
" />
    <glyph glyph-name="acircumflex" unicode="&#xe2;" horiz-adv-x="686" 
d="M523 541h98v-541h-98v73q-27 -41 -81.5 -61t-111.5 -21q-136 0 -213.5 82t-77.5 200q0 115 78.5 196t210.5 81q136 0 196 -81zM523 271q0 91 -60.5 142.5t-136.5 50.5q-87 -1 -138 -55t-51 -136t54 -139.5t143 -55.5q74 2 131.5 53t57.5 140zM302 650h-110l121 109h86
l119 -109h-108l-57 47z" />
    <glyph glyph-name="atilde" unicode="&#xe3;" horiz-adv-x="686" 
d="M523 541h98v-541h-98v73q-27 -41 -81.5 -61t-111.5 -21q-136 0 -213.5 82t-77.5 200q0 115 78.5 196t210.5 81q136 0 196 -81zM523 271q0 91 -60.5 142.5t-136.5 50.5q-87 -1 -138 -55t-51 -136t54 -139.5t143 -55.5q74 2 131.5 53t57.5 140zM480 762l51 -40
q-36 -74 -109 -71q-23 1 -55 21t-48 21q-32 2 -60 -34l-56 38q45 75 117 72q25 -2 58 -22t45 -21q30 -2 57 36z" />
    <glyph glyph-name="adieresis" unicode="&#xe4;" horiz-adv-x="686" 
d="M523 541h98v-541h-98v73q-27 -41 -81.5 -61t-111.5 -21q-136 0 -213.5 82t-77.5 200q0 115 78.5 196t210.5 81q136 0 196 -81zM523 271q0 91 -60.5 142.5t-136.5 50.5q-87 -1 -138 -55t-51 -136t54 -139.5t143 -55.5q74 2 131.5 53t57.5 140zM259 763q25 0 41 -15.5
t16 -40.5q0 -21 -16 -38t-41 -17q-22 0 -38 17t-16 38q0 24 15.5 40t38.5 16zM449 763q25 0 41 -15.5t16 -40.5q0 -21 -16 -38t-41 -17q-22 0 -38 17t-16 38q0 24 15.5 40t38.5 16z" />
    <glyph glyph-name="aring" unicode="&#xe5;" horiz-adv-x="686" 
d="M343 618q-39 0 -66.5 23t-27.5 60q0 38 27.5 61t66.5 23q38 0 66 -23t28 -61q0 -37 -28 -60t-66 -23zM343 664q17 0 27.5 10.5t10.5 26.5q0 18 -10.5 28.5t-27.5 10.5t-27.5 -10.5t-10.5 -28.5q0 -17 10.5 -27t27.5 -10zM523 541h98v-541h-98v73q-27 -41 -81.5 -61
t-111.5 -21q-136 0 -213.5 82t-77.5 200q0 115 78.5 196t210.5 81q136 0 196 -81zM523 271q0 91 -60.5 142.5t-136.5 50.5q-87 -1 -138 -55t-51 -136t54 -139.5t143 -55.5q74 2 131.5 53t57.5 140z" />
    <glyph glyph-name="ae" unicode="&#xe6;" horiz-adv-x="1112" 
d="M512 541h84l1 -76q54 57 134.5 73.5t154 -6t126.5 -92t53 -170.5q0 -15 -2 -39h-453q11 -74 61 -114t115 -40q52 0 95 23t66 67h101q-30 -85 -102.5 -131t-160.5 -46q-132 0 -186 88v-78h-87v73q-27 -41 -79 -61t-109 -21q-136 0 -213.5 82t-77.5 200q0 115 78.5 196
t210.5 81q131 0 191 -81zM514 271q0 91 -59 142.5t-135 50.5q-85 -1 -136.5 -58t-52.5 -133q-1 -79 53.5 -138t143.5 -57q74 2 130 53t56 140zM610 313h353q-9 48 -36.5 83t-63 51t-77 16t-77 -16t-63 -51t-36.5 -83z" />
    <glyph glyph-name="ccedilla" unicode="&#xe7;" horiz-adv-x="655" 
d="M505 209h101q-18 -93 -83.5 -148.5t-152.5 -66.5l-12 -29q45 -3 69 -29.5t20 -61.5q-4 -45 -43 -73t-89 -28q-39 0 -71.5 19t-46.5 56l62 29q23 -31 55 -31q20 -1 34.5 7.5t16.5 23.5q2 12 -5.5 22.5t-32.5 17.5t-64 3l32 74q-104 11 -178.5 83.5t-74.5 193.5
q0 89 43.5 154t107.5 95t137 30q99 0 177.5 -56.5t98.5 -160.5h-101q-17 63 -66 97t-108 34q-75 0 -133 -51.5t-58 -141.5q0 -91 58.5 -142.5t134.5 -50.5q59 1 107 35t65 96z" />
    <glyph glyph-name="egrave" unicode="&#xe8;" horiz-adv-x="660" 
d="M606 294q3 -24 -2 -47h-458q0 -75 57.5 -122.5t124.5 -47.5q52 0 95 23t66 67h101q-30 -85 -102.5 -131t-160.5 -46q-113 0 -196 74t-83 206t82.5 205.5t198.5 73.5q108 0 188.5 -67t88.5 -188zM150 328h353q-13 68 -61.5 101.5t-112.5 33.5q-65 0 -115 -33.5t-64 -101.5
zM405 646h-87l-105 107h128z" />
    <glyph glyph-name="eacute" unicode="&#xe9;" horiz-adv-x="660" 
d="M606 294q3 -24 -2 -47h-458q0 -75 57.5 -122.5t124.5 -47.5q52 0 95 23t66 67h101q-30 -85 -102.5 -131t-160.5 -46q-113 0 -196 74t-83 206t82.5 205.5t198.5 73.5q108 0 188.5 -67t88.5 -188zM150 328h353q-13 68 -61.5 101.5t-112.5 33.5q-65 0 -115 -33.5t-64 -101.5
zM357 642h-87l72 107h128z" />
    <glyph glyph-name="ecircumflex" unicode="&#xea;" horiz-adv-x="660" 
d="M606 294q3 -24 -2 -47h-458q0 -75 57.5 -122.5t124.5 -47.5q52 0 95 23t66 67h101q-30 -85 -102.5 -131t-160.5 -46q-113 0 -196 74t-83 206t82.5 205.5t198.5 73.5q108 0 188.5 -67t88.5 -188zM150 328h353q-13 68 -61.5 101.5t-112.5 33.5q-65 0 -115 -33.5t-64 -101.5
zM289 627h-110l121 109h86l119 -109h-108l-57 47z" />
    <glyph glyph-name="edieresis" unicode="&#xeb;" horiz-adv-x="660" 
d="M606 294q3 -24 -2 -47h-458q0 -75 57.5 -122.5t124.5 -47.5q52 0 95 23t66 67h101q-30 -85 -102.5 -131t-160.5 -46q-113 0 -196 74t-83 206t82.5 205.5t198.5 73.5q108 0 188.5 -67t88.5 -188zM150 328h353q-13 68 -61.5 101.5t-112.5 33.5q-65 0 -115 -33.5t-64 -101.5
zM234 769q25 0 41 -15.5t16 -40.5q0 -21 -16 -38t-41 -17q-22 0 -38 17t-16 38q0 24 15.5 40t38.5 16zM424 769q25 0 41 -15.5t16 -40.5q0 -21 -16 -38t-41 -17q-22 0 -38 17t-16 38q0 24 15.5 40t38.5 16z" />
    <glyph glyph-name="igrave" unicode="&#xec;" horiz-adv-x="269" 
d="M179 551v-551h-98v551h98zM196 644h-87l-105 107h128z" />
    <glyph glyph-name="iacute" unicode="&#xed;" horiz-adv-x="269" 
d="M179 551v-551h-98v551h98zM157 642h-87l72 107h128z" />
    <glyph glyph-name="icircumflex" unicode="&#xee;" horiz-adv-x="269" 
d="M179 551v-551h-98v551h98zM77 642h-110l121 109h86l119 -109h-108l-57 47z" />
    <glyph glyph-name="idieresis" unicode="&#xef;" horiz-adv-x="269" 
d="M34 763q25 0 41 -15.5t16 -40.5q0 -21 -16 -38t-41 -17q-22 0 -38 17t-16 38q0 24 15.5 40t38.5 16zM224 763q25 0 41 -15.5t16 -40.5q0 -21 -16 -38t-41 -17q-22 0 -38 17t-16 38q0 24 15.5 40t38.5 16zM179 551v-551h-98v551h98z" />
    <glyph glyph-name="eth" unicode="&#xf0;" horiz-adv-x="657" 
d="M611 270q0 -133 -84 -207t-199 -73q-113 1 -194.5 75t-81.5 205q0 127 82 197.5t195 70.5q23 0 45 -3l-49 73l-134 -23v59l13 2l42 7t39 7l-51 69h118l35 -50l121 22v-58l-84 -16l136 -190l6 -8q19 -25 32 -70t13 -89zM148 270q0 -90 54 -141t128 -52t128.5 50.5
t54.5 142.5q0 90 -52.5 138.5t-126.5 49.5q-76 1 -131 -47.5t-55 -140.5z" />
    <glyph glyph-name="ntilde" unicode="&#xf1;" horiz-adv-x="648" 
d="M75 541h98v-67q52 75 166 75q119 0 177 -68.5t58 -189.5v-291h-97v290q0 84 -30 127.5t-111 44.5q-76 1 -119.5 -46.5t-43.5 -121.5v-294h-98v541zM448 744l51 -40q-36 -74 -109 -71q-23 1 -55 21t-48 21q-32 2 -60 -34l-56 38q45 75 117 72q25 -2 58 -22t45 -21
q30 -2 57 36z" />
    <glyph glyph-name="ograve" unicode="&#xf2;" 
d="M635 270q0 -132 -87 -206t-206 -74q-75 0 -139.5 30t-107.5 95.5t-43 154.5q0 132 87 206t206 74q118 0 204 -74t86 -206zM150 270q0 -90 57 -140.5t135 -51.5q79 -1 137.5 50t58.5 142t-57.5 142t-135.5 51q-80 0 -137.5 -51t-57.5 -142zM430 645h-87l-105 107h128z" />
    <glyph glyph-name="oacute" unicode="&#xf3;" 
d="M635 270q0 -132 -87 -206t-206 -74q-75 0 -139.5 30t-107.5 95.5t-43 154.5q0 132 87 206t206 74q118 0 204 -74t86 -206zM150 270q0 -90 57 -140.5t135 -51.5q79 -1 137.5 50t58.5 142t-57.5 142t-135.5 51q-80 0 -137.5 -51t-57.5 -142zM373 642h-87l72 107h128z" />
    <glyph glyph-name="ocircumflex" unicode="&#xf4;" 
d="M635 270q0 -132 -87 -206t-206 -74q-75 0 -139.5 30t-107.5 95.5t-43 154.5q0 132 87 206t206 74q118 0 204 -74t86 -206zM150 270q0 -90 57 -140.5t135 -51.5q79 -1 137.5 50t58.5 142t-57.5 142t-135.5 51q-80 0 -137.5 -51t-57.5 -142zM294 641h-110l121 109h86
l119 -109h-108l-57 47z" />
    <glyph glyph-name="otilde" unicode="&#xf5;" 
d="M635 270q0 -132 -87 -206t-206 -74q-75 0 -139.5 30t-107.5 95.5t-43 154.5q0 132 87 206t206 74q118 0 204 -74t86 -206zM150 270q0 -90 57 -140.5t135 -51.5q79 -1 137.5 50t58.5 142t-57.5 142t-135.5 51q-80 0 -137.5 -51t-57.5 -142zM467 758l51 -40
q-36 -74 -109 -71q-23 1 -55 21t-48 21q-32 2 -60 -34l-56 38q45 75 117 72q25 -2 58 -22t45 -21q30 -2 57 36z" />
    <glyph glyph-name="odieresis" unicode="&#xf6;" 
d="M635 270q0 -132 -87 -206t-206 -74q-75 0 -139.5 30t-107.5 95.5t-43 154.5q0 132 87 206t206 74q118 0 204 -74t86 -206zM150 270q0 -90 57 -140.5t135 -51.5q79 -1 137.5 50t58.5 142t-57.5 142t-135.5 51q-80 0 -137.5 -51t-57.5 -142zM254 760q25 0 41 -15.5
t16 -40.5q0 -21 -16 -38t-41 -17q-22 0 -38 17t-16 38q0 24 15.5 40t38.5 16zM444 760q25 0 41 -15.5t16 -40.5q0 -21 -16 -38t-41 -17q-22 0 -38 17t-16 38q0 24 15.5 40t38.5 16z" />
    <glyph glyph-name="divide" unicode="&#xf7;" horiz-adv-x="539" 
d="M19 295v94h472v-94h-472zM247 227q28 0 45.5 -17t17.5 -45q0 -24 -18 -42.5t-45 -18.5q-24 0 -42 19t-18 42q0 27 17.5 44.5t42.5 17.5zM247 584q28 0 45.5 -17t17.5 -45q0 -24 -18 -42.5t-45 -18.5q-24 0 -42 19t-18 42q0 27 17.5 44.5t42.5 17.5z" />
    <glyph glyph-name="oslash" unicode="&#xf8;" 
d="M634 270q0 -132 -87 -206t-206 -74q-62 0 -120 23l-50 -83h-94l74 122q-100 80 -100 218q0 132 87 206t206 74q53 0 100 -16l43 70h93l-64 -104q118 -79 118 -230zM537 270q0 97 -69 151l-200 -330q37 -13 73 -13q79 -1 137.5 50t58.5 142zM149 270q0 -84 52 -136
l196 322q-32 7 -53 7q-80 0 -137.5 -51t-57.5 -142z" />
    <glyph glyph-name="ugrave" unicode="&#xf9;" horiz-adv-x="644" 
d="M567 0h-93v71q-54 -79 -171 -79q-119 0 -177 68.5t-58 189.5v291h98v-291q0 -83 29.5 -126.5t110.5 -44.5q77 -1 120 46t43 122v294h98v-541zM393 639h-87l-105 107h128z" />
    <glyph glyph-name="uacute" unicode="&#xfa;" horiz-adv-x="644" 
d="M567 0h-93v71q-54 -79 -171 -79q-119 0 -177 68.5t-58 189.5v291h98v-291q0 -83 29.5 -126.5t110.5 -44.5q77 -1 120 46t43 122v294h98v-541zM345 637h-87l72 107h128z" />
    <glyph glyph-name="ucircumflex" unicode="&#xfb;" horiz-adv-x="644" 
d="M262 639h-108l121 109h86l119 -109h-106l-59 47zM567 0h-93v71q-54 -79 -171 -79q-119 0 -177 68.5t-58 189.5v291h98v-291q0 -83 29.5 -126.5t110.5 -44.5q77 -1 120 46t43 122v294h98v-541z" />
    <glyph glyph-name="udieresis" unicode="&#xfc;" horiz-adv-x="644" 
d="M567 0h-93v71q-54 -79 -171 -79q-119 0 -177 68.5t-58 189.5v291h98v-291q0 -83 29.5 -126.5t110.5 -44.5q77 -1 120 46t43 122v294h98v-541zM223 757q25 0 41 -15.5t16 -40.5q0 -21 -16 -38t-41 -17q-22 0 -38 17t-16 38q0 24 15.5 40t38.5 16zM413 757q25 0 41 -15.5
t16 -40.5q0 -21 -16 -38t-41 -17q-22 0 -38 17t-16 38q0 24 15.5 40t38.5 16z" />
    <glyph glyph-name="yacute" unicode="&#xfd;" horiz-adv-x="562" 
d="M283 132l63 176l89 233h104l-278 -699h-104l74 186l-206 513h104l93 -232zM317 638h-87l72 107h128z" />
    <glyph glyph-name="thorn" unicode="&#xfe;" horiz-adv-x="681" 
d="M172 71v-229h-98v862h98v-235q28 41 77 61t104 20q91 0 155.5 -39.5t94 -102t29.5 -139.5q0 -117 -73.5 -197.5t-204.5 -80.5q-122 0 -182 80zM172 271q0 -92 54.5 -143t129.5 -50q84 1 131 57.5t47 133.5q1 80 -48 138.5t-137 56.5q-72 -2 -124.5 -53t-52.5 -140z" />
    <glyph glyph-name="ydieresis" unicode="&#xff;" horiz-adv-x="562" 
d="M283 132l63 176l89 233h104l-278 -699h-104l74 186l-206 513h104l93 -232zM187 758q25 0 41 -15.5t16 -40.5q0 -21 -16 -38t-41 -17q-22 0 -38 17t-16 38q0 24 15.5 40t38.5 16zM377 758q25 0 41 -15.5t16 -40.5q0 -21 -16 -38t-41 -17q-22 0 -38 17t-16 38q0 24 15.5 40
t38.5 16z" />
    <glyph glyph-name="Amacron" unicode="&#x100;" horiz-adv-x="650" 
d="M184 751v83h245v-83h-245zM311 548l-105 -276h210zM520 0l-67 177h-284l-68 -177h-109l281 709h74l281 -709h-108z" />
    <glyph glyph-name="amacron" unicode="&#x101;" horiz-adv-x="702" 
d="M539 541h98v-541h-98v73q-27 -41 -81.5 -61t-111.5 -21q-136 0 -213.5 82t-77.5 200q0 115 78.5 196t210.5 81q136 0 196 -81zM539 271q0 91 -60.5 142.5t-136.5 50.5q-87 -1 -138 -55t-51 -136t54 -139.5t143 -55.5q74 2 131.5 53t57.5 140zM241 666v83h245v-83h-245z
" />
    <glyph glyph-name="Abreve" unicode="&#x102;" horiz-adv-x="646" 
d="M358 847h80q0 -53 -36 -79t-91 -26q-54 0 -90 25.5t-36 79.5h75q0 -26 24.5 -36.5t49 0t24.5 36.5zM311 548l-105 -276h210zM520 0l-67 177h-284l-68 -177h-109l281 709h74l281 -709h-108z" />
    <glyph glyph-name="abreve" unicode="&#x103;" horiz-adv-x="702" 
d="M417 753h80q0 -54 -36.5 -80.5t-90.5 -26.5t-90 26.5t-36 80.5h75q0 -26 24.5 -36.5t49 0t24.5 36.5zM539 541h98v-541h-98v73q-27 -41 -81.5 -61t-111.5 -21q-136 0 -213.5 82t-77.5 200q0 115 78.5 196t210.5 81q136 0 196 -81zM539 271q0 91 -60.5 142.5t-136.5 50.5
q-87 -1 -138 -55t-51 -136t54 -139.5t143 -55.5q74 2 131.5 53t57.5 140z" />
    <glyph glyph-name="Aogonek" unicode="&#x104;" horiz-adv-x="646" 
d="M455 -107q-4 26 6 47.5t23.5 33t35.5 26.5l-67 177h-284l-68 -177h-109l281 709h74l280 -708l1 -1h-4q-45 -12 -66 -43.5t-5 -60t65 -33.5l-55 -49h-10.5t-23.5 4t-31 11.5t-27 24t-16 39.5zM311 548l-105 -276h210z" />
    <glyph glyph-name="aogonek" unicode="&#x105;" horiz-adv-x="702" 
d="M539 541h98v-540l1 -1h-4q-51 -16 -69.5 -48.5t4 -60t77.5 -29.5l-55 -49q-60 -4 -94.5 35t-23.5 86.5t66 67.5v71q-27 -41 -81.5 -61t-111.5 -21q-136 0 -213.5 82t-77.5 200q0 115 78.5 196t210.5 81q136 0 196 -81zM539 271q0 91 -60.5 142.5t-136.5 50.5
q-87 -1 -138 -55t-51 -136t54 -139.5t143 -55.5q74 2 131.5 53t57.5 140z" />
    <glyph glyph-name="Cacute" unicode="&#x106;" horiz-adv-x="730" 
d="M13 348q0 149 100 256q101 104 242 104q120 0 208 -69.5t118 -188.5h-100q-27 77 -87 117.5t-139 40.5q-100 0 -172 -75t-72 -185q0 -103 72 -178t172 -75q80 0 142.5 44t89.5 123h99q-30 -120 -120 -193.5t-211 -73.5q-143 0 -242 104q-100 107 -100 249zM392 763h-87
l72 107h128z" />
    <glyph glyph-name="cacute" unicode="&#x107;" horiz-adv-x="655" 
d="M363 628h-87l72 107h128zM504 209h101q-20 -104 -98.5 -161t-177.5 -56q-113 1 -195.5 74t-82.5 205q0 68 24 122.5t64.5 88t90 51t103.5 17.5q98 -1 175.5 -57.5t96.5 -159.5h-101q-17 63 -65.5 97t-107.5 34q-74 0 -128 -51t-54 -142t54 -142t128 -51q59 0 107.5 34
t65.5 97z" />
    <glyph glyph-name="Ccircumflex" unicode="&#x108;" horiz-adv-x="730" 
d="M310 765h-110l121 109h86l119 -109h-108l-57 47zM13 348q0 149 100 256q101 104 242 104q120 0 208 -69.5t118 -188.5h-100q-27 77 -87 117.5t-139 40.5q-100 0 -172 -75t-72 -185q0 -103 72 -178t172 -75q80 0 142.5 44t89.5 123h99q-30 -120 -120 -193.5t-211 -73.5
q-143 0 -242 104q-100 107 -100 249z" />
    <glyph glyph-name="ccircumflex" unicode="&#x109;" horiz-adv-x="656" 
d="M285 640h-110l121 109h86l119 -109h-108l-54 47zM504 209h101q-20 -103 -97.5 -159.5t-175.5 -57.5q-114 -1 -197.5 73t-83.5 206q0 133 84 208t198 74q98 -1 175.5 -57.5t96.5 -159.5h-101q-17 62 -65 96t-106 35q-74 1 -129 -51.5t-55 -144.5q0 -93 55.5 -144
t130.5 -49q58 2 105 36t64 95z" />
    <glyph glyph-name="Cdotaccent" unicode="&#x10a;" horiz-adv-x="730" 
d="M303 838q0 28 18.5 44t43.5 16t43 -16t18 -44t-19 -43.5t-44 -15.5t-42.5 15.5t-17.5 43.5zM13 348q0 149 100 256q101 104 242 104q120 0 208 -69.5t118 -188.5h-100q-27 77 -87 117.5t-139 40.5q-100 0 -172 -75t-72 -185q0 -103 72 -178t172 -75q80 0 142.5 44
t89.5 123h99q-30 -120 -120 -193.5t-211 -73.5q-143 0 -242 104q-100 107 -100 249z" />
    <glyph glyph-name="cdotaccent" unicode="&#x10b;" horiz-adv-x="664" 
d="M281 690q0 28 18.5 44t43.5 16t43 -15.5t18 -44.5q0 -27 -18 -42.5t-42 -16.5q-25 -1 -44 14.5t-19 44.5zM513 209h101q-20 -103 -97.5 -159.5t-175.5 -57.5q-73 -1 -137.5 29t-108.5 95.5t-44 154.5q0 132 88 207.5t203 74.5q98 -1 175.5 -57.5t96.5 -159.5h-101
q-17 62 -65 96t-106 35q-75 1 -134 -52t-59 -144q0 -92 59.5 -143.5t135.5 -49.5q58 2 105 36t64 95z" />
    <glyph glyph-name="Ccaron" unicode="&#x10c;" horiz-adv-x="730" 
d="M415 870h110l-121 -109h-86l-119 109h108l57 -47zM13 348q0 149 100 256q101 104 242 104q120 0 208 -69.5t118 -188.5h-100q-27 77 -87 117.5t-139 40.5q-100 0 -172 -75t-72 -185q0 -103 72 -178t172 -75q80 0 142.5 44t89.5 123h99q-30 -120 -120 -193.5t-211 -73.5
q-143 0 -242 104q-100 107 -100 249z" />
    <glyph glyph-name="ccaron" unicode="&#x10d;" horiz-adv-x="655" 
d="M384 739h110l-121 -109h-86l-119 109h108l57 -47zM504 206h101q-19 -102 -96 -157.5t-175 -56.5q-115 -2 -199 72t-84 207q0 132 83 205.5t198 73.5q98 0 176 -56t97 -159h-101q-17 62 -64.5 95t-106.5 33q-74 0 -129 -50.5t-55 -141.5q0 -92 54.5 -142.5t130.5 -50.5
q59 0 106 33t64 95z" />
    <glyph glyph-name="Dcaron" unicode="&#x10e;" horiz-adv-x="725" 
d="M187 101h150q115 0 179.5 73.5t64.5 174.5q0 102 -65 179t-179 77h-150v-504zM86 706h251q83 0 150 -31t108.5 -82t63.5 -114t22 -130t-22 -128.5t-63.5 -111.5t-108.5 -79.5t-150 -29.5h-251v706zM393 868h110l-121 -109h-86l-119 109h108l57 -47z" />
    <glyph glyph-name="dcaron" unicode="&#x10f;" horiz-adv-x="773" 
d="M509 700v-229q-58 79 -182 79q-131 0 -204.5 -80.5t-73.5 -196.5q0 -120 72 -201t207 -81q128 2 181 82v-73h98v700h-98zM509 271q0 -90 -52 -140.5t-125 -52.5q-88 -2 -137 56.5t-48 138.5q1 77 47.5 133.5t130.5 57.5q75 1 129.5 -50t54.5 -143zM656 550l34 151h104
l-57 -151h-81z" />
    <glyph glyph-name="Dcroat" unicode="&#x110;" horiz-adv-x="744" 
d="M19 301v91h86v314h251q83 0 150 -31t108.5 -82t63.5 -114t22 -130t-22 -128.5t-63.5 -111.5t-108.5 -79.5t-150 -29.5h-251v301h-86zM206 101h150q115 0 179.5 73.5t64.5 174.5q0 102 -65 179t-179 77h-150v-213h132v-91h-132v-200z" />
    <glyph glyph-name="dcroat" unicode="&#x111;" horiz-adv-x="684" 
d="M432 577v67h77v56h98v-56h67v-67h-67v-577h-98v73q-53 -80 -181 -82q-135 0 -207 81t-72 201q0 116 73.5 196.5t204.5 80.5q124 0 182 -79v106h-77zM509 271q0 92 -54.5 143t-129.5 50q-84 -1 -130.5 -57.5t-47.5 -133.5q-1 -80 48 -138.5t137 -56.5q73 2 125 52.5
t52 140.5z" />
    <glyph glyph-name="Emacron" unicode="&#x112;" horiz-adv-x="558" 
d="M196 787v78h252v-78h-252zM188 307v-206h325v-101h-427v707h426v-101h-324v-197h317v-102h-317z" />
    <glyph glyph-name="emacron" unicode="&#x113;" horiz-adv-x="660" 
d="M606 294q3 -24 -2 -47h-458q0 -75 57.5 -122.5t124.5 -47.5q52 0 95 23t66 67h101q-30 -85 -102.5 -131t-160.5 -46q-113 0 -196 74t-83 206t82.5 205.5t198.5 73.5q108 0 188.5 -67t88.5 -188zM150 328h353q-13 68 -61.5 101.5t-112.5 33.5q-65 0 -115 -33.5t-64 -101.5
zM209 670v78h252v-78h-252z" />
    <glyph glyph-name="Ebreve" unicode="&#x114;" horiz-adv-x="558" 
d="M360 872h80q0 -53 -36 -79t-91 -26q-54 0 -90 25.5t-36 79.5h75q0 -26 24.5 -36.5t49 0t24.5 36.5zM188 307v-206h325v-101h-427v707h426v-101h-324v-197h317v-102h-317z" />
    <glyph glyph-name="ebreve" unicode="&#x115;" horiz-adv-x="660" 
d="M606 294q3 -24 -2 -47h-458q0 -75 57.5 -122.5t124.5 -47.5q52 0 95 23t66 67h101q-30 -85 -102.5 -131t-160.5 -46q-113 0 -196 74t-83 206t82.5 205.5t198.5 73.5q108 0 188.5 -67t88.5 -188zM150 328h353q-13 68 -61.5 101.5t-112.5 33.5q-65 0 -115 -33.5t-64 -101.5
zM384 750h80q0 -53 -36 -79t-91 -26q-54 0 -90 25.5t-36 79.5h75q0 -26 24.5 -36.5t49 0t24.5 36.5z" />
    <glyph glyph-name="Edotaccent" unicode="&#x116;" horiz-adv-x="558" 
d="M253 844q0 28 18.5 44t43.5 16t43 -15.5t18 -44.5q0 -28 -19 -43.5t-44 -15.5t-42.5 15.5t-17.5 43.5zM188 307v-206h325v-101h-427v707h426v-101h-324v-197h317v-102h-317z" />
    <glyph glyph-name="edotaccent" unicode="&#x117;" horiz-adv-x="660" 
d="M606 294q3 -24 -2 -47h-458q0 -75 57.5 -122.5t124.5 -47.5q52 0 95 23t66 67h101q-30 -85 -102.5 -131t-160.5 -46q-113 0 -196 74t-83 206t82.5 205.5t198.5 73.5q108 0 188.5 -67t88.5 -188zM150 328h353q-13 68 -61.5 101.5t-112.5 33.5q-65 0 -115 -33.5t-64 -101.5
zM271 697q0 28 18.5 44t43.5 16t43 -15.5t18 -44.5q0 -28 -19 -43.5t-44 -15.5t-42.5 15.5t-17.5 43.5z" />
    <glyph glyph-name="Eogonek" unicode="&#x118;" horiz-adv-x="564" 
d="M188 307v-206h325v-101q-60 -29 -63 -73.5t69 -58.5l-45 -55q-4 0 -11 0.5t-25.5 4.5t-33 11.5t-28 24t-16.5 39.5q-5 33 11.5 61.5t49.5 45.5h-335v707h426v-101h-324v-197h317v-102h-317z" />
    <glyph glyph-name="eogonek" unicode="&#x119;" horiz-adv-x="654" 
d="M606 294q3 -24 -2 -47h-458q0 -75 57.5 -122.5t124.5 -47.5q52 0 95 23t66 67h101q-30 -87 -110 -136q-38 -18 -56 -48.5t-2.5 -55t66.5 -24.5l-44 -55h-11t-25.5 3.5t-33 10.5t-28.5 23t-17 39q-6 39 23 67q-4 0 -12 -0.5t-13 -0.5q-113 0 -196 74t-83 206t82.5 205.5
t198.5 73.5q108 0 188.5 -67t88.5 -188zM150 328h353q-13 68 -61.5 101.5t-112.5 33.5q-65 0 -115 -33.5t-64 -101.5z" />
    <glyph glyph-name="Ecaron" unicode="&#x11a;" horiz-adv-x="558" 
d="M372 867h110l-121 -107h-86l-119 107h108l57 -47zM188 307v-206h325v-101h-427v707h426v-101h-324v-197h317v-102h-317z" />
    <glyph glyph-name="ecaron" unicode="&#x11b;" horiz-adv-x="660" 
d="M606 294q3 -24 -2 -47h-458q0 -75 57.5 -122.5t124.5 -47.5q52 0 95 23t66 67h101q-30 -85 -102.5 -131t-160.5 -46q-113 0 -196 74t-83 206t82.5 205.5t198.5 73.5q108 0 188.5 -67t88.5 -188zM150 328h353q-13 68 -61.5 101.5t-112.5 33.5q-65 0 -115 -33.5t-64 -101.5
zM393 750h110l-121 -107h-86l-119 107h108l57 -47z" />
    <glyph glyph-name="Gcircumflex" unicode="&#x11c;" horiz-adv-x="791" 
d="M733 454h-110q-20 79 -85.5 116.5t-144.5 37.5q-106 0 -177 -73.5t-71 -185.5q0 -113 71 -187.5t177 -74.5q70 0 132 39t92 113h-264v103h385q-8 -95 -20 -124v1q-36 -100 -130.5 -165.5t-194.5 -65.5q-151 0 -251 102t-100 259t101 259.5t250 102.5q54 0 106 -14
t100.5 -43t84 -80.5t49.5 -119.5zM354 777h-110l121 109h86l119 -109h-108l-57 47z" />
    <glyph glyph-name="gcircumflex" unicode="&#x11d;" 
d="M617 20q0 -60 -24 -106.5t-65 -73.5t-88.5 -40t-100.5 -13q-111 0 -187 45t-76 132h97q0 -47 50.5 -69t114.5 -21q73 1 127 37.5t54 108.5v57q-58 -76 -182 -76q-132 0 -209.5 77t-77.5 191q0 118 76.5 200t212.5 81q55 0 104 -20t77 -61v72h97v-521zM336 87q87 0 135 58
t48 139q0 76 -46 127t-130 53q-88 2 -141.5 -57t-53.5 -138q1 -75 51.5 -128.5t136.5 -53.5zM304 645h-110l121 109h86l119 -109h-108l-57 47z" />
    <glyph glyph-name="Gbreve" unicode="&#x11e;" horiz-adv-x="791" 
d="M733 454h-110q-20 79 -85.5 116.5t-144.5 37.5q-106 0 -177 -73.5t-71 -185.5q0 -113 71 -187.5t177 -74.5q70 0 132 39t92 113h-264v103h385q-8 -95 -20 -124v1q-36 -100 -130.5 -165.5t-194.5 -65.5q-151 0 -251 102t-100 259t101 259.5t250 102.5q54 0 106 -14
t100.5 -43t84 -80.5t49.5 -119.5zM446 881h80q1 -40 -25 -68t-63.5 -34.5t-75.5 0t-64 34t-25 68.5h75q0 -25 24.5 -35.5t49 0t24.5 35.5z" />
    <glyph glyph-name="gbreve" unicode="&#x11f;" 
d="M617 20q0 -60 -24 -106.5t-65 -73.5t-88.5 -40t-100.5 -13q-111 0 -187 45t-76 132h97q0 -47 50.5 -69t114.5 -21q73 1 127 37.5t54 108.5v57q-58 -76 -182 -76q-132 0 -209.5 77t-77.5 191q0 118 76.5 200t212.5 81q55 0 104 -20t77 -61v72h97v-521zM336 87q87 0 135 58
t48 139q0 76 -46 127t-130 53q-88 2 -141.5 -57t-53.5 -138q1 -75 51.5 -128.5t136.5 -53.5zM402 750h80q1 -40 -25 -68t-63.5 -34.5t-75.5 0t-64 34t-25 68.5h75q0 -25 24.5 -35.5t49 0t24.5 35.5z" />
    <glyph glyph-name="Gdotaccent" unicode="&#x120;" horiz-adv-x="791" 
d="M733 454h-110q-20 79 -85.5 116.5t-144.5 37.5q-106 0 -177 -73.5t-71 -185.5q0 -113 71 -187.5t177 -74.5q70 0 132 39t92 113h-264v103h385q-8 -95 -20 -124v1q-36 -100 -130.5 -165.5t-194.5 -65.5q-151 0 -251 102t-100 259t101 259.5t250 102.5q54 0 106 -14
t100.5 -43t84 -80.5t49.5 -119.5zM400 901q29 0 46.5 -18.5t17.5 -41.5t-17 -41.5t-47 -18.5q-38 0 -54 30t-0.5 60t54.5 30z" />
    <glyph glyph-name="gdotaccent" unicode="&#x121;" 
d="M617 20q0 -60 -24 -106.5t-65 -73.5t-88.5 -40t-100.5 -13q-111 0 -187 45t-76 132h97q0 -47 50.5 -69t114.5 -21q73 1 127 37.5t54 108.5v57q-58 -76 -182 -76q-132 0 -209.5 77t-77.5 191q0 118 76.5 200t212.5 81q55 0 104 -20t77 -61v72h97v-521zM336 87q87 0 135 58
t48 139q0 76 -46 127t-130 53q-88 2 -141.5 -57t-53.5 -138q1 -75 51.5 -128.5t136.5 -53.5zM352 754q29 0 46.5 -19t17.5 -41t-17 -41t-47 -19q-38 0 -54 30t-0.5 60t54.5 30z" />
    <glyph glyph-name="Gcommaaccent" unicode="&#x122;" horiz-adv-x="791" 
d="M733 454h-110q-20 79 -85.5 116.5t-144.5 37.5q-106 0 -177 -73.5t-71 -185.5q0 -113 71 -187.5t177 -74.5q70 0 132 39t92 113h-264v103h385q-8 -95 -20 -124v1q-36 -100 -130.5 -165.5t-194.5 -65.5q-151 0 -251 102t-100 259t101 259.5t250 102.5q54 0 106 -14
t100.5 -43t84 -80.5t49.5 -119.5zM352 -94h105q27 -92 -27 -156l-86 1q12 33 16.5 54t3.5 47t-12 54z" />
    <glyph glyph-name="gcommaaccent" unicode="&#x123;" 
d="M617 20q0 -60 -24 -106.5t-65 -73.5t-88.5 -40t-100.5 -13q-111 0 -187 45t-76 132h97q0 -47 50.5 -69t114.5 -21q73 1 127 37.5t54 108.5v57q-58 -76 -182 -76q-132 0 -209.5 77t-77.5 191q0 118 76.5 200t212.5 81q55 0 104 -20t77 -61v72h97v-521zM336 87q87 0 135 58
t48 139q0 76 -46 127t-130 53q-88 2 -141.5 -57t-53.5 -138q1 -75 51.5 -128.5t136.5 -53.5zM405 628h-102q-26 89 27 151l83 -1q-16 -49 -19 -75t11 -75z" />
    <glyph glyph-name="Hcircumflex" unicode="&#x124;" horiz-adv-x="583" 
d="M126 700v-296h296v296h102v-700h-102v304h-296v-304h-101v700h101zM215 751h-110l121 109h86l119 -109h-108l-57 47z" />
    <glyph glyph-name="hcircumflex" unicode="&#x125;" horiz-adv-x="648" 
d="M80 747h-110l121 109h86l119 -109h-108l-57 47zM169 700v-226q53 75 166 75q120 0 178 -68.5t58 -189.5v-291h-98v290q0 84 -30 127.5t-111 44.5q-76 1 -119.5 -46.5t-43.5 -121.5v-294h-97v700h97z" />
    <glyph glyph-name="Hbar" unicode="&#x126;" horiz-adv-x="618" 
d="M-10 509v86h49v105h101v-105h296v105h102v-105h54v-86h-54v-509h-102v304h-296v-304h-101v509h-49zM140 509v-105h296v105h-296z" />
    <glyph glyph-name="hbar" unicode="&#x127;" horiz-adv-x="648" 
d="M9 582v66h63v52h97v-52h81v-66h-81v-108q53 75 166 75q120 0 178 -68.5t58 -189.5v-291h-98v290q0 84 -30 127.5t-111 44.5q-76 1 -119.5 -46.5t-43.5 -121.5v-294h-97v582h-63z" />
    <glyph glyph-name="Itilde" unicode="&#x128;" horiz-adv-x="408" 
d="M369 706v-95h-130v-510h130v-101h-361v101h130v510h-130v95h361zM305 891l50 -41q-39 -74 -110 -69q-23 2 -54.5 22.5t-47.5 21.5q-33 2 -61 -33l-55 39q46 73 118 70q25 -2 57.5 -23t44.5 -22q32 -2 58 35z" />
    <glyph glyph-name="itilde" unicode="&#x129;" horiz-adv-x="269" 
d="M221 753l42 -41q-31 -69 -92 -64q-20 2 -46.5 20.5t-39.5 19.5q-27 2 -51 -33l-46 39q18 34 47 50.5t57 14.5q21 -2 45.5 -19.5t34.5 -18.5q29 -2 49 32zM179 547v-547h-98v547h98z" />
    <glyph glyph-name="Imacron" unicode="&#x12a;" horiz-adv-x="408" 
d="M63 783v81h255v-81h-255zM369 706v-95h-130v-510h130v-101h-361v101h130v510h-130v95h361z" />
    <glyph glyph-name="imacron" unicode="&#x12b;" horiz-adv-x="269" 
d="M9 632v77h247v-77h-247zM179 0v547h-98v-547h98z" />
    <glyph glyph-name="Ibreve" unicode="&#x12c;" horiz-adv-x="408" 
d="M235 879h80q0 -53 -36 -79t-91 -26q-54 0 -90 25.5t-36 79.5h75q0 -26 24.5 -36.5t49 0t24.5 36.5zM369 706v-95h-130v-510h130v-101h-361v101h130v510h-130v95h361z" />
    <glyph glyph-name="ibreve" unicode="&#x12d;" horiz-adv-x="269" 
d="M175 709h80q0 -53 -36 -79t-91 -26q-54 0 -90 25.5t-36 79.5h75q0 -26 24.5 -36.5t49 0t24.5 36.5zM179 0v547h-98v-547h98z" />
    <glyph glyph-name="Iogonek" unicode="&#x12e;" horiz-adv-x="408" 
d="M369 712v-100h-130v-511h130v-101h-118q-62 -32 -54 -85q2 -15 19.5 -27.5t33.5 -17.5l17 -4l-48 -52q-4 0 -11 0.5t-26 5t-33.5 12t-28.5 24.5t-17 40q-5 30 8 58.5t43 45.5h-146v101h130v511h-130v100h361z" />
    <glyph glyph-name="iogonek" unicode="&#x12f;" horiz-adv-x="269" 
d="M179 547v-547h-3q-59 -32 -51 -84q2 -15 19.5 -27.5t33.5 -16.5l17 -5l-48 -52q-4 0 -11.5 0.5t-26.5 5t-34 12t-29 24.5t-17 40q-5 30 8.5 58.5t43.5 45.5v546h98z" />
    <glyph glyph-name="Idotaccent" unicode="&#x130;" horiz-adv-x="408" 
d="M369 607v100h-361v-100h130v-506h-130v-101h361v101h-130v506h130zM187 893q38 0 54 -29t0.5 -58t-54.5 -29q-37 0 -52.5 29t-0.5 58t53 29z" />
    <glyph glyph-name="dotlessi" unicode="&#x131;" horiz-adv-x="269" 
d="M179 551v-551h-98v551h98z" />
    <glyph glyph-name="IJ" unicode="&#x132;" horiz-adv-x="774" 
d="M369 706v-92h-130v-518h130v-96h-361v96h130v518h-130v92h361zM427 0v98q108 0 152 53t44 152v311h-189v92h290v-403q0 -148 -70 -225.5t-227 -77.5z" />
    <glyph glyph-name="ij" unicode="&#x133;" horiz-adv-x="492" 
d="M179 0v557h-98v-557h98zM304 660q0 26 18.5 41t43.5 15t42.5 -14.5t17.5 -41.5t-18.5 -42t-43.5 -15q-24 0 -42 15t-18 42zM316 556v-552q0 -97 -122 -86v-86q220 -24 220 178v546h-98zM72 660q0 26 19 41.5t42 15.5t42 -15t19 -42q0 -36 -30.5 -50.5t-61 0t-30.5 50.5z
" />
    <glyph glyph-name="Jcircumflex" unicode="&#x134;" horiz-adv-x="469" 
d="M378 706v-403q0 -158 -85.5 -230.5t-284.5 -72.5v95q150 0 209.5 49.5t59.5 158.5v311h-189v92h290zM176 773h-110l121 109h86l119 -109h-108l-57 47z" />
    <glyph glyph-name="jcircumflex" unicode="&#x135;" horiz-adv-x="344" 
d="M90 606h-96l106 112h75l104 -112h-94l-50 48zM88 547h98v-567q0 -202 -220 -178v86q122 -11 122 86v573z" />
    <glyph glyph-name="Kcommaaccent" unicode="&#x136;" horiz-adv-x="598" 
d="M86 699h100v-699h-100v699zM205 324v51l244 324h127l-267 -347l295 -352h-132zM267 -44h101q26 -89 -31 -156l-78 1q12 33 16.5 54t3.5 47t-12 54z" />
    <glyph glyph-name="kcommaaccent" unicode="&#x137;" horiz-adv-x="557" 
d="M241 -55h101q27 -92 -27 -156l-82 1q12 33 16.5 54t3.5 47t-12 54zM178 705v-423l83 99l150 160h118l-218 -233l232 -299v-9h-113l-182 240l-70 -75v-165h-98v705h98z" />
    <glyph glyph-name="kgreenlandic" unicode="&#x138;" horiz-adv-x="557" 
d="M178 556v-274l83 99l161 174h112l-223 -247l232 -299v-9h-113l-182 240l-70 -75v-165h-98v556h98z" />
    <glyph glyph-name="Lacute" unicode="&#x139;" horiz-adv-x="521" 
d="M187 707v-606h329v-101h-430v707h101zM181 760h-87l72 107h128z" />
    <glyph glyph-name="lacute" unicode="&#x13a;" horiz-adv-x="248" 
d="M161 768h-87l57 107h121zM173 700v-700h-98v700h98z" />
    <glyph glyph-name="Lcommaaccent" unicode="&#x13b;" horiz-adv-x="521" 
d="M187 711v-610h329v-101h-430v711h101zM251 -74h101q26 -89 -31 -156l-78 1q12 33 16.5 54t3.5 47t-12 54z" />
    <glyph glyph-name="lcommaaccent" unicode="&#x13c;" horiz-adv-x="248" 
d="M73 -75h101q26 -89 -31 -156l-78 1q12 33 16.5 54t3.5 47t-12 54zM173 701v-701h-98v701h98z" />
    <glyph glyph-name="Lcaron" unicode="&#x13d;" horiz-adv-x="563" 
d="M187 707v-606h329v-101h-430v707h101zM403 699h101q26 -89 -31 -156l-78 1q12 33 16.5 54t3.5 47t-12 54z" />
    <glyph glyph-name="lcaron" unicode="&#x13e;" horiz-adv-x="374" 
d="M256 699h95q28 -96 -28 -162l-72 1q31 76 5 161zM173 700v-700h-98v700h98z" />
    <glyph glyph-name="Ldot" unicode="&#x13f;" horiz-adv-x="521" 
d="M187 706v-605h329v-101h-430v706h101zM312 374q0 37 31 53t61.5 1t30.5 -54q0 -27 -19 -43t-42.5 -16.5t-42.5 15.5t-19 44z" />
    <glyph glyph-name="ldot" unicode="&#x140;" horiz-adv-x="422" 
d="M270 384q0 28 18.5 44t43.5 16t43 -15.5t18 -44.5q0 -27 -18 -42.5t-43 -16.5t-43.5 15t-18.5 44zM173 700v-700h-98v700h98z" />
    <glyph glyph-name="Lslash" unicode="&#x141;" horiz-adv-x="527" 
d="M193 326v-225h329v-101h-430v268l-66 -38v100l66 39v338h101v-280l109 63v-102z" />
    <glyph glyph-name="lslash" unicode="&#x142;" horiz-adv-x="248" 
d="M173 343v-343h-98v288l-61 -34v95l61 34v323h98v-267l71 41v-97z" />
    <glyph glyph-name="Nacute" unicode="&#x143;" horiz-adv-x="691" 
d="M187 0h-101v700h78l341 -493v493h100v-700h-80l-338 489v-489zM351 784h-84l66 107h122z" />
    <glyph glyph-name="nacute" unicode="&#x144;" horiz-adv-x="648" 
d="M341 643h-84l66 107h122zM75 541h98v-67q52 75 166 75q119 0 177 -68.5t58 -189.5v-291h-97v290q0 84 -30 127.5t-111 44.5q-76 1 -119.5 -46.5t-43.5 -121.5v-294h-98v541z" />
    <glyph glyph-name="Ncommaaccent" unicode="&#x145;" horiz-adv-x="691" 
d="M187 0h-101v700h78l341 -493v493h100v-700h-80l-338 489v-489zM309 -68h101q26 -89 -31 -156l-78 1q12 33 16.5 54t3.5 47t-12 54z" />
    <glyph glyph-name="ncommaaccent" unicode="&#x146;" horiz-adv-x="648" 
d="M279 -59h101q26 -89 -31 -156l-78 1q12 33 16.5 54t3.5 47t-12 54zM75 541h98v-67q52 75 166 75q119 0 177 -68.5t58 -189.5v-291h-97v290q0 84 -30 127.5t-111 44.5q-76 1 -119.5 -46.5t-43.5 -121.5v-294h-98v541z" />
    <glyph glyph-name="Ncaron" unicode="&#x147;" horiz-adv-x="691" 
d="M187 0h-101v700h78l341 -493v493h100v-700h-80l-338 489v-489zM390 877h108l-121 -109h-86l-119 109h106l59 -49z" />
    <glyph glyph-name="ncaron" unicode="&#x148;" horiz-adv-x="648" 
d="M379 749h108l-121 -109h-86l-119 109h106l59 -49zM75 541h98v-67q52 75 166 75q119 0 177 -68.5t58 -189.5v-291h-97v290q0 84 -30 127.5t-111 44.5q-76 1 -119.5 -46.5t-43.5 -121.5v-294h-98v541z" />
    <glyph glyph-name="napostrophe" unicode="&#x149;" horiz-adv-x="691" 
d="M8 703h94q19 -70 -18 -145h-83q16 46 18.5 72.5t-11.5 72.5zM118 541h98v-67q52 75 166 75q119 0 177 -68.5t58 -189.5v-291h-97v290q0 84 -30 127.5t-111 44.5q-76 1 -119.5 -46.5t-43.5 -121.5v-294h-98v541z" />
    <glyph glyph-name="Eng" unicode="&#x14a;" horiz-adv-x="691" 
d="M187 0h-101v700h78l341 -493v493h100v-733q0 -84 -58 -130t-158 -39v82q58 0 88.5 19t30.5 68v57l-321 465v-489z" />
    <glyph glyph-name="eng" unicode="&#x14b;" horiz-adv-x="648" 
d="M75 541h98v-67q52 75 166 75q119 0 177 -68.5t58 -189.5v-324q0 -84 -58 -130t-158 -39v82q58 0 88.5 19t30.5 68v323q0 84 -30 127.5t-111 44.5q-76 1 -119.5 -46.5t-43.5 -121.5v-294h-98v541z" />
    <glyph glyph-name="Omacron" unicode="&#x14c;" horiz-adv-x="790" 
d="M267 786v89h255v-89h-255zM646 350q0 -105 -74 -181q-76 -76 -181 -76t-179 76q-75 75 -75 181t75 181q74 76 179 76t181 -76q74 -76 74 -181zM35 350q0 -146 104 -253q103 -106 252 -106t253 106q104 107 104 253t-104 253q-106 106 -253 106q-148 0 -252 -106
q-104 -107 -104 -253z" />
    <glyph glyph-name="omacron" unicode="&#x14d;" 
d="M635 270q0 -132 -87 -206t-206 -74q-75 0 -139.5 30t-107.5 95.5t-43 154.5q0 132 87 206t206 74q118 0 204 -74t86 -206zM150 270q0 -90 57 -140.5t135 -51.5q79 -1 137.5 50t58.5 142t-57.5 142t-135.5 51q-80 0 -137.5 -51t-57.5 -142zM220 658v89h255v-89h-255z" />
    <glyph glyph-name="Obreve" unicode="&#x14e;" horiz-adv-x="790" 
d="M646 350q0 -105 -74 -181q-76 -76 -181 -76t-179 76q-75 75 -75 181t75 181q74 76 179 76t181 -76q74 -76 74 -181zM35 350q0 -146 104 -253q103 -106 252 -106t253 106q104 107 104 253t-104 253q-106 106 -253 106q-148 0 -252 -106q-104 -107 -104 -253zM433 880h80
q0 -53 -36 -79t-91 -26q-54 0 -90 25.5t-36 79.5h75q0 -26 24.5 -36.5t49 0t24.5 36.5z" />
    <glyph glyph-name="obreve" unicode="&#x14f;" 
d="M635 270q0 -132 -87 -206t-206 -74q-75 0 -139.5 30t-107.5 95.5t-43 154.5q0 132 87 206t206 74q118 0 204 -74t86 -206zM150 270q0 -90 57 -140.5t135 -51.5q79 -1 137.5 50t58.5 142t-57.5 142t-135.5 51q-80 0 -137.5 -51t-57.5 -142zM392 750h80q0 -53 -36 -79
t-91 -26q-54 0 -90 25.5t-36 79.5h75q0 -26 24.5 -36.5t49 0t24.5 36.5z" />
    <glyph glyph-name="Ohungarumlaut" unicode="&#x150;" horiz-adv-x="790" 
d="M420 778l68 113h107l-87 -113h-88zM272 778l63 113h100l-76 -113h-87zM646 350q0 -105 -74 -181q-76 -76 -181 -76t-179 76q-75 75 -75 181t75 181q74 76 179 76t181 -76q74 -76 74 -181zM35 350q0 -146 104 -253q103 -106 252 -106t253 106q104 107 104 253t-104 253
q-106 106 -253 106q-148 0 -252 -106q-104 -107 -104 -253z" />
    <glyph glyph-name="ohungarumlaut" unicode="&#x151;" 
d="M635 270q0 -132 -87 -206t-206 -74q-75 0 -139.5 30t-107.5 95.5t-43 154.5q0 132 87 206t206 74q118 0 204 -74t86 -206zM150 270q0 -90 57 -140.5t135 -51.5q79 -1 137.5 50t58.5 142t-57.5 142t-135.5 51q-80 0 -137.5 -51t-57.5 -142zM371 636l68 113h107l-87 -113
h-88zM223 636l63 113h100l-76 -113h-87z" />
    <glyph glyph-name="OE" unicode="&#x152;" horiz-adv-x="904" 
d="M537 317v-216h325v-101h-414q-39 -9 -80 -9q-153 0 -254.5 97.5t-101.5 261.5q0 166 93 267t263 101q45 0 84 -10h409v-92h-324v-196h317v-103h-317zM368 620q-122 0 -188 -74.5t-66 -195.5q0 -128 74.5 -197.5t179.5 -69.5q34 0 67 9v518q-31 10 -67 10z" />
    <glyph glyph-name="oe" unicode="&#x153;" horiz-adv-x="1114" 
d="M1067 270q0 -15 -2 -39h-456q11 -73 62.5 -113.5t116.5 -40.5q52 0 95 23t66 67h101q-30 -85 -102.5 -131t-160.5 -46q-70 0 -130.5 31.5t-97.5 92.5q-33 -50 -84.5 -80.5t-107 -38.5t-112.5 6t-101.5 47t-73 90.5t-28.5 131.5t28.5 132.5t74 91.5t102.5 47t113 5.5
t107.5 -41t83.5 -84.5q30 51 80 82.5t106 40t113.5 -5t103 -46.5t74.5 -90.5t29 -131.5zM150 270q0 -53 20 -94.5t52 -63t70.5 -31.5t77.5 0t71 31.5t52 63t20 94.5t-20 94.5t-52 63t-70.5 31.5t-77.5 0t-71 -31.5t-52 -63t-20 -94.5zM609 313h356q-9 48 -36.5 83t-64 51
t-77.5 16t-77.5 -16t-64 -51t-36.5 -83z" />
    <glyph glyph-name="Racute" unicode="&#x154;" horiz-adv-x="596" 
d="M223 307v48h118q60 0 93.5 36t33.5 86t-34 90t-93 40h-155v-607h-100v709h255q107 0 167.5 -70.5t60.5 -161.5q0 -78 -47.5 -138.5t-133.5 -75.5l221 -263h-131zM328 769h-81l67 100h105z" />
    <glyph glyph-name="racute" unicode="&#x155;" horiz-adv-x="420" 
d="M250 607h-81l67 100h105zM75 540h97v-66q74 103 217 70v-86q-83 25 -150 -26t-67 -139v-293h-97v540z" />
    <glyph glyph-name="Rcommaaccent" unicode="&#x156;" horiz-adv-x="596" 
d="M223 307v48h118q60 0 93.5 36t33.5 86t-34 90t-93 40h-155v-607h-100v709h255q107 0 167.5 -70.5t60.5 -161.5q0 -78 -47.5 -138.5t-133.5 -75.5l221 -263h-131zM289 -66h95q25 -84 -29 -146l-73 1q16 46 18.5 72.5t-11.5 72.5z" />
    <glyph glyph-name="rcommaaccent" unicode="&#x157;" horiz-adv-x="426" 
d="M82 -76h95q25 -84 -29 -146l-73 1q16 46 18.5 72.5t-11.5 72.5zM81 540h97v-66q74 103 217 70v-86q-83 25 -150 -26t-67 -139v-293h-97v540z" />
    <glyph glyph-name="Rcaron" unicode="&#x158;" horiz-adv-x="596" 
d="M223 307v48h118q60 0 93.5 36t33.5 86t-34 90t-93 40h-155v-607h-100v709h255q107 0 167.5 -70.5t60.5 -161.5q0 -78 -47.5 -138.5t-133.5 -75.5l221 -263h-131zM363 873h107l-118 -106h-83l-116 106h105l55 -46z" />
    <glyph glyph-name="rcaron" unicode="&#x159;" horiz-adv-x="426" 
d="M288 739h107l-118 -106h-83l-116 106h105l55 -46zM75 540h97v-66q74 103 217 70v-86q-83 25 -150 -26t-67 -139v-293h-97v540z" />
    <glyph glyph-name="Sacute" unicode="&#x15a;" horiz-adv-x="595" 
d="M536 523l-100 -4q-10 44 -51.5 67t-91.5 22q-87 -2 -127 -53q-20 -26 -17 -65q1 -21 12 -36t24 -24t37 -15t40.5 -8t45.5 -5q43 -5 75.5 -13t70 -23.5t62 -44t34.5 -68.5q5 -25 5 -46q0 -96 -79 -154.5t-181 -58.5q-56 0 -110 20.5t-95 65t-47 103.5l-1 19l102 2l1 -15v4
q5 -46 51 -72.5t100 -26.5q61 0 109 31.5t48 82.5q0 10 -3 24q-4 19 -18 32t-38.5 20t-44.5 10.5t-53 6.5q-39 4 -67.5 9t-63 17.5t-57.5 31t-40 50t-20 73.5v-1q-6 75 38 133q34 44 91.5 68.5t120.5 24.5q89 0 157 -47t81 -137zM326 779h-87l72 107h128z" />
    <glyph glyph-name="sacute" unicode="&#x15b;" horiz-adv-x="521" 
d="M289 641h-87l72 107h128zM143 385q0 -11 2.5 -20t8.5 -15.5t11 -11.5t15.5 -8.5t16 -5.5t19 -3.5l18 -2t19 -1.5t16.5 -1q218 -15 218 -162q0 -59 -36.5 -97.5t-84.5 -52t-105 -13.5q-93 0 -155.5 42.5t-67.5 132.5h98q3 -44 39.5 -67.5t90.5 -22.5q29 1 54.5 7t47 24.5
t21.5 47.5q0 21 -13 36.5t-35.5 22.5t-41.5 10t-41 4q-212 9 -212 155q0 59 33 98.5t79.5 55t103.5 15.5q87 0 145.5 -39.5t63.5 -119.5h-97q-4 34 -36 52.5t-79 18.5q-49 0 -82.5 -20t-33.5 -59z" />
    <glyph glyph-name="Scircumflex" unicode="&#x15c;" horiz-adv-x="595" 
d="M536 523l-100 -4q-10 44 -51.5 67t-91.5 22q-87 -2 -127 -53q-20 -26 -17 -65q1 -21 12 -36t24 -24t37 -15t40.5 -8t45.5 -5q43 -5 75.5 -13t70 -23.5t62 -44t34.5 -68.5q5 -25 5 -46q0 -96 -79 -154.5t-181 -58.5q-56 0 -110 20.5t-95 65t-47 103.5l-1 19l102 2l1 -15v4
q5 -46 51 -72.5t100 -26.5q61 0 109 31.5t48 82.5q0 10 -3 24q-4 19 -18 32t-38.5 20t-44.5 10.5t-53 6.5q-39 4 -67.5 9t-63 17.5t-57.5 31t-40 50t-20 73.5v-1q-6 75 38 133q34 44 91.5 68.5t120.5 24.5q89 0 157 -47t81 -137zM261 772h-110l121 109h86l119 -109h-108
l-57 47z" />
    <glyph glyph-name="scircumflex" unicode="&#x15d;" horiz-adv-x="521" 
d="M222 638h-110l121 109h86l119 -109h-108l-57 47zM143 385q0 -11 2.5 -20t8.5 -15.5t11 -11.5t15.5 -8.5t16 -5.5t19 -3.5l18 -2t19 -1.5t16.5 -1q218 -15 218 -162q0 -59 -36.5 -97.5t-84.5 -52t-105 -13.5q-93 0 -155.5 42.5t-67.5 132.5h98q3 -44 39.5 -67.5
t90.5 -22.5q29 1 54.5 7t47 24.5t21.5 47.5q0 21 -13 36.5t-35.5 22.5t-41.5 10t-41 4q-212 9 -212 155q0 59 33 98.5t79.5 55t103.5 15.5q87 0 145.5 -39.5t63.5 -119.5h-97q-4 34 -36 52.5t-79 18.5q-49 0 -82.5 -20t-33.5 -59z" />
    <glyph glyph-name="Scedilla" unicode="&#x15e;" horiz-adv-x="595" 
d="M536 523l-100 -4q-10 44 -51.5 67t-91.5 22q-87 -2 -127 -53q-20 -26 -17 -65q1 -21 12 -36t24 -24t37 -15t40.5 -8t45.5 -5q43 -5 75.5 -13t70 -23.5t62 -44t34.5 -68.5q5 -25 5 -46q0 -85 -64 -141.5t-153 -68.5l-13 -32q43 -2 66.5 -27.5t19.5 -57.5q-4 -38 -36.5 -64
t-72 -31.5t-78.5 12.5t-55 58l60 28q17 -23 41 -28t41 4.5t21 23.5q3 11 -4.5 21t-32.5 16.5t-63 1.5l33 74q-83 8 -148.5 57.5t-73.5 129.5l-1 19l102 2l1 -15v4q5 -46 51 -72.5t100 -26.5q61 0 109 31.5t48 82.5q0 10 -3 24q-4 19 -18 32t-38.5 20t-44.5 10.5t-53 6.5
q-39 4 -67.5 9t-63 17.5t-57.5 31t-40 50t-20 73.5v-1q-6 75 38 133q34 44 91.5 68.5t120.5 24.5q89 0 157 -47t81 -137z" />
    <glyph glyph-name="scedilla" unicode="&#x15f;" horiz-adv-x="521" 
d="M143 385q0 -11 2.5 -20t8.5 -15.5t11 -11.5t15.5 -8.5t16 -5.5t19 -3.5l18 -2t19 -1.5t16.5 -1q218 -15 218 -162q0 -75 -52.5 -114t-130.5 -47l-13 -49q51 -2 79.5 -23.5t19.5 -58.5q-5 -51 -58.5 -78.5t-113 -13.5t-80.5 67l60 28q17 -23 44 -28t46.5 4.5t22.5 23.5
t-8 23.5t-36.5 13.5t-66.5 -1l31 92q-82 6 -135.5 48t-57.5 125h98q3 -44 39.5 -67.5t90.5 -22.5q29 1 54.5 7t47 24.5t21.5 47.5q0 21 -13 36.5t-35.5 22.5t-41.5 10t-41 4q-212 9 -212 155q0 59 33 98.5t79.5 55t103.5 15.5q87 0 145.5 -39.5t63.5 -119.5h-97
q-4 34 -36 52.5t-79 18.5q-49 0 -82.5 -20t-33.5 -59z" />
    <glyph glyph-name="Scaron" unicode="&#x160;" horiz-adv-x="574" 
d="M508 523l-100 -4q-10 44 -51.5 67t-91.5 22q-87 -2 -127 -53q-20 -26 -17 -65q1 -21 12 -36t24 -24t37 -15t40.5 -8t45.5 -5q43 -5 75.5 -13t70 -23.5t62 -44t34.5 -68.5q5 -25 5 -46q0 -96 -79 -154.5t-181 -58.5q-56 0 -110 20.5t-95 65t-47 103.5l-1 19l102 2l1 -15v4
q5 -46 51 -72.5t100 -26.5q61 0 109 31.5t48 82.5q0 10 -3 24q-4 19 -18 32t-38.5 20t-44.5 10.5t-53 6.5q-39 4 -67.5 9t-63 17.5t-57.5 31t-40 50t-20 73.5v-1q-6 75 38 133q34 44 91.5 68.5t120.5 24.5q89 0 157 -47t81 -137zM329 875h110l-123 -111h-86l-122 111h108
l60 -50z" />
    <glyph glyph-name="scaron" unicode="&#x161;" horiz-adv-x="517" 
d="M139 385q0 -11 2.5 -20t8.5 -15.5t11 -11.5t15.5 -8.5t16 -5.5t19 -3.5l18 -2t19 -1.5t16.5 -1q218 -15 218 -162q0 -59 -36.5 -97.5t-84.5 -52t-105 -13.5q-93 0 -155.5 42.5t-67.5 132.5h98q3 -44 39.5 -67.5t90.5 -22.5q29 1 54.5 7t47 24.5t21.5 47.5q0 21 -13 36.5
t-35.5 22.5t-41.5 10t-41 4q-212 9 -212 155q0 59 33 98.5t79.5 55t103.5 15.5q87 0 145.5 -39.5t63.5 -119.5h-97q-4 34 -36 52.5t-79 18.5q-49 0 -82.5 -20t-33.5 -59zM317 704h110l-123 -111h-86l-122 111h108l60 -50z" />
    <glyph glyph-name="Tcommaaccent" unicode="&#x162;" horiz-adv-x="537" 
d="M193 -107l25 104v615h-212v97h524v-97h-211v-615h-21l-10 -53q45 -2 74 -30t22 -63q-5 -51 -58 -78.5t-112 -13.5t-80 67l60 28q17 -23 41 -28t41 4.5t21 23.5q3 11 -5.5 21t-34.5 16.5t-64 1.5z" />
    <glyph glyph-name="tcommaaccent" unicode="&#x163;" horiz-adv-x="347" 
d="M105 642l98 19v-120h119v-78h-119v-305q0 -56 29.5 -69.5t92.5 -7.5v-82q-34 -3 -71 -1l-22 -61q44 -2 70.5 -28t22.5 -58q-3 -40 -35.5 -66t-73.5 -31t-82 13.5t-58 59.5l60 28q28 -35 65 -31.5t41 30.5q2 13 -6.5 23t-32.5 17t-68 0l45 120q-75 34 -75 145v304h-81v78
h81v101z" />
    <glyph glyph-name="Tcaron" unicode="&#x164;" horiz-adv-x="537" 
d="M319 0h-101v610h-212v96h524v-96h-211v-610zM319 881h110l-121 -109h-86l-119 109h108l57 -47z" />
    <glyph glyph-name="tcaron" unicode="&#x165;" horiz-adv-x="368" 
d="M105 642l98 19v-120h119v-78h-119v-298q0 -56 30.5 -72t91.5 -10v-82q-107 -8 -163.5 28t-56.5 137v297h-81v78h81v101zM329 605h-82q14 41 16 66.5t-12 67.5h91q18 -67 -13 -134z" />
    <glyph glyph-name="Tbar" unicode="&#x166;" horiz-adv-x="537" 
d="M319 0h-101v307h-121v86h121v216h-212v97h524v-97h-211v-216h124v-86h-124v-307z" />
    <glyph glyph-name="tbar" unicode="&#x167;" horiz-adv-x="344" 
d="M105 642l98 19v-120h119v-78h-119v-127h91v-72h-91v-106q0 -56 29.5 -69.5t92.5 -7.5v-82q-108 -8 -164 25.5t-56 134.5v105h-71v72h71v127h-81v78h81v101z" />
    <glyph glyph-name="Utilde" unicode="&#x168;" horiz-adv-x="671" 
d="M336 -7q-64 0 -121.5 23.5t-97.5 74.5t-40 119v497h102v-498q0 -54 48 -84.5t109 -30.5q60 0 108 31t48 85v497h102v-498q0 -67 -40 -118t-97.5 -74.5t-120.5 -23.5zM449 892l52 -38q-16 -37 -44 -56.5t-62 -19.5q-23 1 -55.5 19.5t-48.5 18.5q-33 0 -59 -36l-57 35
q42 77 114 77q25 -1 58.5 -20t45.5 -19q31 0 56 39z" />
    <glyph glyph-name="utilde" unicode="&#x169;" horiz-adv-x="644" 
d="M431 758l52 -38q-16 -37 -44 -56.5t-62 -19.5q-23 1 -55.5 19.5t-48.5 18.5q-33 0 -59 -36l-57 35q42 77 114 77q25 -1 58.5 -20t45.5 -19q31 0 56 39zM567 0h-93v71q-54 -79 -171 -79q-119 0 -177 68.5t-58 189.5v291h98v-291q0 -83 29.5 -126.5t110.5 -44.5
q77 -1 120 46t43 122v294h98v-541z" />
    <glyph glyph-name="Umacron" unicode="&#x16a;" horiz-adv-x="671" 
d="M336 -7q-64 0 -121.5 23.5t-97.5 74.5t-40 119v497h102v-498q0 -54 48 -84.5t109 -30.5q60 0 108 31t48 85v497h102v-498q0 -67 -40 -118t-97.5 -74.5t-120.5 -23.5zM206 781v78h255v-78h-255z" />
    <glyph glyph-name="umacron" unicode="&#x16b;" horiz-adv-x="644" 
d="M190 670v78h255v-78h-255zM567 0h-93v71q-54 -79 -171 -79q-119 0 -177 68.5t-58 189.5v298h98v-298q0 -83 29.5 -126.5t110.5 -44.5q77 -1 120 46t43 122v301h98v-548z" />
    <glyph glyph-name="Ubreve" unicode="&#x16c;" horiz-adv-x="671" 
d="M336 -7q-64 0 -121.5 23.5t-97.5 74.5t-40 119v497h102v-498q0 -54 48 -84.5t109 -30.5q60 0 108 31t48 85v497h102v-498q0 -67 -40 -118t-97.5 -74.5t-120.5 -23.5zM380 877h80q0 -53 -36 -79t-91 -26q-54 0 -90 25.5t-36 79.5h75q0 -26 24.5 -36.5t49 0t24.5 36.5z" />
    <glyph glyph-name="ubreve" unicode="&#x16d;" horiz-adv-x="644" 
d="M370 749h80q0 -53 -36 -79t-91 -26q-54 0 -90 25.5t-36 79.5h75q0 -26 24.5 -36.5t49 0t24.5 36.5zM567 0h-93v71q-54 -79 -171 -79q-119 0 -177 68.5t-58 189.5v291h98v-291q0 -83 29.5 -126.5t110.5 -44.5q77 -1 120 46t43 122v294h98v-541z" />
    <glyph glyph-name="Uring" unicode="&#x16e;" horiz-adv-x="671" 
d="M336 -7q-64 0 -121.5 23.5t-97.5 74.5t-40 119v497h102v-498q0 -54 48 -84.5t109 -30.5q60 0 108 31t48 85v497h102v-498q0 -67 -40 -118t-97.5 -74.5t-120.5 -23.5zM338 750q-41 0 -70.5 24.5t-29.5 63.5q0 40 29.5 64.5t70.5 24.5t70.5 -24.5t29.5 -64.5
q0 -39 -29.5 -63.5t-70.5 -24.5zM338 802q16 0 26.5 10t10.5 26q0 17 -10.5 27.5t-26.5 10.5q-17 0 -27 -10.5t-10 -27.5q0 -16 10.5 -26t26.5 -10z" />
    <glyph glyph-name="uring" unicode="&#x16f;" horiz-adv-x="644" 
d="M309 583q-39 0 -66.5 23t-27.5 60q0 38 27.5 61t66.5 23q38 0 66 -23t28 -61q0 -37 -28 -60t-66 -23zM309 629q17 0 27.5 10.5t10.5 26.5q0 18 -10.5 28.5t-27.5 10.5t-27.5 -10.5t-10.5 -28.5q0 -17 10.5 -27t27.5 -10zM567 0h-93v71q-54 -79 -171 -79q-119 0 -177 68.5
t-58 189.5v291h98v-291q0 -83 29.5 -126.5t110.5 -44.5q77 -1 120 46t43 122v294h98v-541z" />
    <glyph glyph-name="Uhungarumlaut" unicode="&#x170;" horiz-adv-x="671" 
d="M336 -7q-64 0 -121.5 23.5t-97.5 74.5t-40 119v497h102v-498q0 -54 48 -84.5t109 -30.5q60 0 108 31t48 85v497h102v-498q0 -67 -40 -118t-97.5 -74.5t-120.5 -23.5zM363 774l68 113h107l-87 -113h-88zM215 774l63 113h100l-76 -113h-87z" />
    <glyph glyph-name="uhungarumlaut" unicode="&#x171;" horiz-adv-x="644" 
d="M340 637l68 113h97l-87 -113h-78zM182 637l63 113h91l-76 -113h-78zM567 0h-93v71q-54 -79 -171 -79q-119 0 -177 68.5t-58 189.5v291h98v-291q0 -83 29.5 -126.5t110.5 -44.5q77 -1 120 46t43 122v294h98v-541z" />
    <glyph glyph-name="Uogonek" unicode="&#x172;" horiz-adv-x="671" 
d="M336 -7q-64 0 -121.5 23.5t-97.5 74.5t-40 119v497h102v-498q0 -54 48 -84.5t109 -30.5q60 0 108 31t48 85v497h102v-498q0 -102 -88 -164q-39 -35 -39 -61q0 -18 16.5 -34.5t32.5 -23.5l16 -7l-58 -59q-55 5 -85.5 49.5t-1.5 88.5q-28 -5 -51 -5z" />
    <glyph glyph-name="uogonek" unicode="&#x173;" horiz-adv-x="644" 
d="M567 0h-6q-24 -18 -26.5 -42t18 -42.5t56.5 -19.5l-56 -58q-75 5 -101 57t22 105v71q-54 -79 -171 -79q-119 0 -177 68.5t-58 189.5v291h98v-291q0 -83 29.5 -126.5t110.5 -44.5q77 -1 120 46t43 122v294h98v-541z" />
    <glyph glyph-name="Wcircumflex" unicode="&#x174;" horiz-adv-x="867" 
d="M540 -4l-123 337q-17 -48 -59 -163.5t-62 -173.5h-71l-235 704h105l167 -506l115 327h81l114 -326q25 76 82.5 248t85.5 257h106l-235 -704h-71zM367 751h-110l121 109h86l119 -109h-108l-57 47z" />
    <glyph glyph-name="wcircumflex" unicode="&#x175;" horiz-adv-x="784" 
d="M340 603h-110l121 109h86l119 -109h-108l-57 47zM506 -4l-66 212l-47 163l-47 -163l-67 -212h-74l-182 545h104l24.5 -73.5t24.5 -74.5q36 -108 65 -232l108 365h87l109 -365q23 104 64 232q28 82 50 148h104l-182 -545h-75z" />
    <glyph glyph-name="Ycircumflex" unicode="&#x176;" horiz-adv-x="603" 
d="M-15 713h119l197 -321l199 321h120l-268 -428v-285h-102v285zM247 798h-110l121 109h86l119 -109h-108l-57 47z" />
    <glyph glyph-name="ycircumflex" unicode="&#x177;" horiz-adv-x="562" 
d="M223 641h-110l121 109h86l119 -109h-108l-57 47zM283 132l63 176l89 233h104l-278 -699h-104l74 186l-206 513h104l93 -232z" />
    <glyph glyph-name="Ydieresis" unicode="&#x178;" horiz-adv-x="587" 
d="M79 699h-119l259 -414v-285h102v285l260 414h-120l-191 -307zM171 883q25 0 41 -15.5t16 -40.5q0 -21 -16 -38t-41 -17q-22 0 -38 17t-16 38q0 24 15.5 40t38.5 16zM376 883q25 0 41 -15.5t16 -40.5q0 -21 -16 -38t-41 -17q-22 0 -38 17t-16 38q0 24 15.5 40t38.5 16z
" />
    <glyph glyph-name="Zacute" unicode="&#x179;" horiz-adv-x="592" 
d="M547 707v-79l-390 -538h395v-90h-512v83l388 534h-388v90h507zM327 773h-83l69 102h122z" />
    <glyph glyph-name="zacute" unicode="&#x17a;" horiz-adv-x="469" 
d="M35 458v86h404v-68l-300 -391h297v-43v-42h-413v77l296 381h-284zM270 657h-83l69 102h122z" />
    <glyph glyph-name="Zdotaccent" unicode="&#x17b;" horiz-adv-x="592" 
d="M547 707v-79l-390 -538h395v-90h-512v83l388 534h-388v90h507zM244 832q0 29 18.5 44.5t44.5 15.5q25 0 42.5 -16t17.5 -44t-18.5 -43.5t-43.5 -15.5t-43 15.5t-18 43.5z" />
    <glyph glyph-name="zdotaccent" unicode="&#x17c;" horiz-adv-x="469" 
d="M35 458v86h404v-68l-300 -391h297v-43v-42h-413v77l296 381h-284zM181 700q0 29 18.5 44.5t44.5 15.5q25 0 42.5 -16t17.5 -44t-18.5 -43.5t-43.5 -15.5t-43 15.5t-18 43.5z" />
    <glyph glyph-name="Zcaron" unicode="&#x17d;" horiz-adv-x="568" 
d="M529 706v-79l-390 -537h395v-90h-512v83l388 533h-388v90h507zM343 882h110l-123 -111h-86l-122 111h108l60 -50z" />
    <glyph glyph-name="zcaron" unicode="&#x17e;" horiz-adv-x="469" 
d="M35 461v86h404v-68l-300 -394h297v-43v-42h-413v77l296 384h-284zM306 732h110l-123 -111h-86l-122 111h108l60 -50z" />
    <glyph glyph-name="longs" unicode="&#x17f;" horiz-adv-x="478" 
d="M123 602v-602h-101v700h417v-98h-316z" />
    <glyph glyph-name="florin" unicode="&#x192;" horiz-adv-x="497" 
d="M467 703l-14 -85q-18 3 -33.5 3.5t-28 -2.5t-22.5 -6.5t-18 -10.5t-13.5 -13t-10.5 -16.5t-8 -17.5t-6 -20l-4.5 -19.5t-3.5 -20.5h104l-15 -90h-104l-84 -444q-19 -107 -89.5 -147.5t-176.5 -12.5l13 86q65 -17 98 1.5t52 89.5l81 427h-91l15 90h94q1 4 2 9t2 8
q10 46 27 81t46 64t77 41.5t111 4.5z" />
    <glyph glyph-name="Scommaaccent" unicode="&#x218;" horiz-adv-x="595" 
d="M536 523l-100 -4q-10 44 -51.5 67t-91.5 22q-87 -2 -127 -53q-20 -26 -17 -65q1 -21 12 -36t24 -24t37 -15t40.5 -8t45.5 -5q43 -5 75.5 -13t70 -23.5t62 -44t34.5 -68.5q5 -25 5 -46q0 -96 -79 -154.5t-181 -58.5q-56 0 -110 20.5t-95 65t-47 103.5l-1 19l102 2l1 -15v4
q5 -46 51 -72.5t100 -26.5q61 0 109 31.5t48 82.5q0 10 -3 24q-4 19 -18 32t-38.5 20t-44.5 10.5t-53 6.5q-39 4 -67.5 9t-63 17.5t-57.5 31t-40 50t-20 73.5v-1q-6 75 38 133q34 44 91.5 68.5t120.5 24.5q89 0 157 -47t81 -137zM245 -82h101q18 -75 -18 -144h-90
q15 28 17.5 67t-10.5 77z" />
    <glyph glyph-name="scommaaccent" unicode="&#x219;" horiz-adv-x="521" 
d="M213 -77h101q18 -75 -18 -144h-90q32 77 7 144zM143 385q0 -11 2.5 -20t8.5 -15.5t11 -11.5t15.5 -8.5t16 -5.5t19 -3.5l18 -2t19 -1.5t16.5 -1q218 -15 218 -162q0 -59 -36.5 -97.5t-84.5 -52t-105 -13.5q-93 0 -155.5 42.5t-67.5 132.5h98q3 -44 39.5 -67.5t90.5 -22.5
q29 1 54.5 7t47 24.5t21.5 47.5q0 21 -13 36.5t-35.5 22.5t-41.5 10t-41 4q-212 9 -212 155q0 59 33 98.5t79.5 55t103.5 15.5q87 0 145.5 -39.5t63.5 -119.5h-97q-4 34 -36 52.5t-79 18.5q-49 0 -82.5 -20t-33.5 -59z" />
    <glyph glyph-name="uni021A" unicode="&#x21a;" horiz-adv-x="537" 
d="M319 0h-101v610h-212v97h524v-97h-211v-610zM221 -77h101q18 -75 -18 -144h-90q32 77 7 144z" />
    <glyph glyph-name="uni021B" unicode="&#x21b;" horiz-adv-x="344" 
d="M163 -68h98q18 -75 -18 -144h-87q32 77 7 144zM105 642l98 19v-120h119v-78h-119v-305q0 -56 29.5 -69.5t92.5 -7.5v-82q-108 -8 -164 25.5t-56 134.5v304h-81v78h81v101z" />
    <glyph glyph-name="circumflex" unicode="&#x2c6;" horiz-adv-x="332" 
d="M106 624h-110l121 109h86l119 -109h-108l-57 47z" />
    <glyph glyph-name="caron" unicode="&#x2c7;" horiz-adv-x="368" 
d="M232 760h110l-123 -111h-86l-122 111h108l60 -50z" />
    <glyph glyph-name="breve" unicode="&#x2d8;" horiz-adv-x="354" 
d="M210 787h80q0 -53 -36 -79t-91 -26q-54 0 -90 25.5t-36 79.5h75q0 -26 24.5 -36.5t49 0t24.5 36.5z" />
    <glyph glyph-name="dotaccent" unicode="&#x2d9;" horiz-adv-x="345" 
d="M99 805q0 37 30.5 53t61.5 1t31 -54q0 -27 -19 -43t-42.5 -16.5t-42.5 15.5t-19 44z" />
    <glyph glyph-name="ring" unicode="&#x2da;" horiz-adv-x="292" 
d="M130 734q-39 0 -66.5 23t-27.5 60q0 38 27.5 61t66.5 23q38 0 66 -23t28 -61q0 -37 -28 -60t-66 -23zM130 790q12 0 20 7.5t8 19.5q0 13 -8 21t-20 8q-28 0 -28 -29q0 -12 7.5 -19.5t20.5 -7.5z" />
    <glyph glyph-name="ogonek" unicode="&#x2db;" horiz-adv-x="519" 
d="M144 -114q-3 22 4.5 43.5t20.5 36t26.5 26t23.5 16.5l10 6l108 -2q-4 -2 -10.5 -5t-23 -13.5t-29.5 -21.5t-23 -27t-10 -32q0 -17 17.5 -27.5t33 -13t30.5 -2.5l-60 -58q-1 1 -11 -0.5t-27 2.5t-33.5 10.5t-30 22.5t-16.5 39z" />
    <glyph glyph-name="tilde" unicode="&#x2dc;" horiz-adv-x="382" 
d="M296 835l51 -40q-36 -74 -109 -71q-23 1 -55 21t-48 21q-32 2 -60 -34l-56 38q45 75 117 72q25 -2 58 -22t45 -21q30 -2 57 36z" />
    <glyph glyph-name="hungarumlaut" unicode="&#x2dd;" horiz-adv-x="426" 
d="M184 748l68 113h105l-87 -113h-86zM41 748l68 113h105l-87 -113h-86z" />
    <glyph glyph-name="tonos" unicode="&#x384;" horiz-adv-x="341" 
d="M80 748l68 113h105l-87 -113h-86z" />
    <glyph glyph-name="dieresistonos" unicode="&#x385;" horiz-adv-x="519" 
d="M254 765l80 130h-115l-56 -130h91zM45 832q0 32 26 45.5t52.5 0.5t26.5 -46q0 -31 -26 -44.5t-52.5 -0.5t-26.5 45zM341 832q0 32 26.5 45.5t52.5 0.5t26 -46q0 -31 -26 -44.5t-52.5 -0.5t-26.5 45z" />
    <glyph glyph-name="Alphatonos" unicode="&#x386;" horiz-adv-x="646" 
d="M311 548l-105 -276h210zM520 0l-67 177h-284l-68 -177h-109l281 709h74l281 -709h-108zM197 710l-75 -138h-88l56 138h107z" />
    <glyph glyph-name="Epsilontonos" unicode="&#x388;" horiz-adv-x="641" 
d="M267 300v-199h325v-101h-427v700h426v-101h-324v-197h317v-102h-317zM150 700l-75 -138h-88l56 138h107z" />
    <glyph glyph-name="Etatonos" unicode="&#x389;" horiz-adv-x="719" 
d="M262 700v-296h296v296h102v-700h-102v304h-296v-304h-101v700h101zM143 700l-75 -138h-88l56 138h107z" />
    <glyph glyph-name="Iotatonos" unicode="&#x38a;" horiz-adv-x="554" 
d="M515 700v-96h-130v-507h130v-97h-361v97h130v507h-130v96h361zM143 700l-75 -138h-88l56 138h107z" />
    <glyph glyph-name="Omicrontonos" unicode="&#x38c;" horiz-adv-x="830" 
d="M671 350q0 105 -74 181q-76 76 -181 76t-179 -76q-75 -75 -75 -181t75 -181q74 -76 179 -76t181 76q74 76 74 181zM60 350q0 146 104 253q104 106 252 106q147 0 253 -106q104 -107 104 -253t-104 -253q-104 -106 -253 -106t-252 106q-104 107 -104 253zM151 700
l-75 -138h-88l56 138h107z" />
    <glyph glyph-name="Upsilontonos" unicode="&#x38e;" horiz-adv-x="789" 
d="M146 699h119l191 -307l191 307h120l-260 -414v-285h-102v285zM144 700l-75 -138h-88l56 138h107z" />
    <glyph glyph-name="Omegatonos" unicode="&#x38f;" horiz-adv-x="822" 
d="M409 616q-111 0 -183 -74.5t-72 -185.5q0 -99 53 -168.5t145 -107.5l-20 -80h-300v88h145q-59 41 -92 113t-33 155q0 157 100 256t257 99q158 0 257.5 -100.5t99.5 -254.5q0 -78 -35 -153t-91 -116h147v-87h-294l-16 82q92 43 140 108.5t48 165.5q0 111 -72.5 185.5
t-183.5 74.5zM151 700l-75 -138h-88l56 138h107z" />
    <glyph glyph-name="iotadieresistonos" unicode="&#x390;" horiz-adv-x="409" 
d="M370 604v96h-361v-96h130v-507h-130v-97h361v97h-130v507h130zM215 734l68 130h-115l-44 -130h91zM6 801q0 32 26 45.5t52.5 0.5t26.5 -46q0 -31 -26 -44.5t-52.5 -0.5t-26.5 45zM288 801q0 32 26 45.5t52.5 0.5t26.5 -46q0 -31 -26.5 -44.5t-52.5 -0.5t-26 45z" />
    <glyph glyph-name="Alpha" unicode="&#x391;" horiz-adv-x="647" 
d="M311 548l-105 -276h210zM520 0l-67 177h-284l-68 -177h-109l281 709h74l281 -709h-108z" />
    <glyph glyph-name="Beta" unicode="&#x392;" horiz-adv-x="590" 
d="M126 604v-183h189q31 0 53 19t27 45.5t0.5 53.5t-26 46t-52.5 19h-191zM26 700h291q80 0 133 -57.5t51 -134t-66 -123.5q56 -24 83 -71.5t27 -102.5q0 -85 -54 -148t-149 -63h-316v700zM126 321v-223h216q48 0 75 33.5t27 78.5t-27 78t-75 33h-216z" />
    <glyph glyph-name="Gamma" unicode="&#x393;" horiz-adv-x="498" 
d="M124 602v-602h-102v700h426v-98h-324z" />
    <glyph glyph-name="Delta" unicode="&#x394;" horiz-adv-x="649" 
d="M-8 0l281 709h74l281 -709h-636zM311 548l-176 -460h351z" />
    <glyph glyph-name="Epsilon" unicode="&#x395;" horiz-adv-x="501" 
d="M127 300v-199h325v-101h-427v700h426v-101h-324v-197h317v-102h-317z" />
    <glyph glyph-name="Zeta" unicode="&#x396;" horiz-adv-x="578" 
d="M22 608v92h484l34 -64l-396 -546h390v-90h-491l-41 56l404 552h-384z" />
    <glyph glyph-name="Eta" unicode="&#x397;" horiz-adv-x="583" 
d="M126 700v-296h296v296h102v-700h-102v304h-296v-304h-101v700h101z" />
    <glyph glyph-name="Theta" unicode="&#x398;" horiz-adv-x="793" 
d="M182 302v93h395v-93h-395zM634 350q0 105 -74 181q-76 76 -181 76t-179 -76q-75 -75 -75 -181t75 -181q74 -76 179 -76t181 76q74 76 74 181zM23 350q0 146 104 253q104 106 252 106q147 0 253 -106q104 -107 104 -253t-104 -253q-104 -106 -253 -106t-252 106
q-104 107 -104 253z" />
    <glyph glyph-name="Iota" unicode="&#x399;" horiz-adv-x="408" 
d="M369 699v-96h-130v-506h130v-97h-361v97h130v506h-130v96h361z" />
    <glyph glyph-name="Kappa" unicode="&#x39a;" horiz-adv-x="555" 
d="M27 699h100v-699h-100v699zM146 324v51l244 324h127l-267 -347l295 -352h-132z" />
    <glyph glyph-name="Lambda" unicode="&#x39b;" horiz-adv-x="650" 
d="M311 539l-208 -539h-111l281 709h74l281 -709h-110z" />
    <glyph glyph-name="Mu" unicode="&#x39c;" horiz-adv-x="719" 
d="M130 493v-493h-101v700h82l231 -340l231 340h80v-700h-100v493l-183 -272h-57z" />
    <glyph glyph-name="Nu" unicode="&#x39d;" horiz-adv-x="622" 
d="M138 0h-101v701l78 -1l341 -493v493h100v-700h-80l-338 489v-489z" />
    <glyph glyph-name="Xi" unicode="&#x39e;" horiz-adv-x="507" 
d="M457 600h-436v100h436v-100zM21 99h437v-99h-437v99zM439 301h-404v98h404v-98z" />
    <glyph glyph-name="Omicron" unicode="&#x39f;" horiz-adv-x="793" 
d="M634 350q0 105 -74 181q-76 76 -181 76t-179 -76q-75 -75 -75 -181t75 -181q74 -76 179 -76t181 76q74 76 74 181zM23 350q0 146 104 253q104 106 252 106q147 0 253 -106q104 -107 104 -253t-104 -253q-104 -106 -253 -106t-252 106q-104 107 -104 253z" />
    <glyph glyph-name="Pi" unicode="&#x3a0;" horiz-adv-x="583" 
d="M25 700h499v-700h-102v601h-296v-601h-101v700z" />
    <glyph glyph-name="Rho" unicode="&#x3a1;" horiz-adv-x="547" 
d="M24 700h256q107 0 167 -69.5t60 -164.5t-60 -164t-167 -69h-154v-233h-102v700zM126 333h154q60 0 93.5 39t33.5 93t-33.5 93.5t-93.5 39.5h-154v-265z" />
    <glyph glyph-name="Sigma" unicode="&#x3a3;" horiz-adv-x="585" 
d="M333 382v-30l-184 -263h391v-89h-487l-41 56l217 312l-211 266l34 66h484v-91h-382z" />
    <glyph glyph-name="Tau" unicode="&#x3a4;" horiz-adv-x="564" 
d="M320 0h-101v604h-212v96h524v-96h-211v-604z" />
    <glyph glyph-name="Upsilon" unicode="&#x3a5;" horiz-adv-x="630" 
d="M-13 701h119l191 -309l191 309h120l-260 -416v-285h-102v285z" />
    <glyph glyph-name="Phi" unicode="&#x3a6;" horiz-adv-x="756" 
d="M312 637v66h101v-66q140 -6 219 -89t79 -195q0 -113 -79.5 -196.5t-218.5 -90.5v-66h-101v65q-72 3 -130 28.5t-94.5 65.5t-55.5 89.5t-19 102.5q0 113 79 196.5t220 89.5zM411 549v-397q95 7 147 59.5t52 138.5t-52.5 139t-146.5 60zM114 352q0 -84 53.5 -139.5
t146.5 -60.5v397q-95 -4 -147.5 -57.5t-52.5 -139.5z" />
    <glyph glyph-name="Chi" unicode="&#x3a7;" horiz-adv-x="642" 
d="M-11 700h124l190 -257l191 257h123l-253 -344l253 -356h-123l-191 275l-190 -275h-124l253 356z" />
    <glyph glyph-name="Psi" unicode="&#x3a8;" horiz-adv-x="737" 
d="M302 231v469h102v-470q88 11 130.5 65t43.5 134v271h103v-271q-1 -116 -69 -198t-208 -93v-138h-102v138q-139 12 -207.5 94t-69.5 196v272h102v-271q1 -75 45.5 -130t129.5 -68z" />
    <glyph glyph-name="Omega" unicode="&#x3a9;" horiz-adv-x="796" 
d="M383 616q-111 0 -183 -74.5t-72 -185.5q0 -99 53 -168.5t145 -107.5l-20 -80h-300v88h145q-59 41 -92 113t-33 155q0 157 100 256t257 99q158 0 257.5 -100.5t99.5 -254.5q0 -78 -35 -153t-91 -116h147v-87h-294l-16 82q92 43 140 108.5t48 165.5q0 111 -72.5 185.5
t-183.5 74.5z" />
    <glyph glyph-name="Iotadieresis" unicode="&#x3aa;" horiz-adv-x="408" 
d="M369 603v96h-361v-96h130v-506h-130v-97h361v97h-130v506h130zM95 850q25 0 41 -15.5t16 -40.5q0 -21 -16 -38t-41 -17q-22 0 -38 17t-16 38q0 24 15.5 40t38.5 16zM285 850q25 0 41 -15.5t16 -40.5q0 -21 -16 -38t-41 -17q-22 0 -38 17t-16 38q0 24 15.5 40t38.5 16z
" />
    <glyph glyph-name="Upsilondieresis" unicode="&#x3ab;" horiz-adv-x="587" 
d="M79 699h-119l259 -414v-285h102v285l260 414h-120l-191 -307zM173 848q25 0 41 -15.5t16 -40.5q0 -21 -16 -38t-41 -17q-22 0 -38 17t-16 38q0 24 15.5 40t38.5 16zM363 848q25 0 41 -15.5t16 -40.5q0 -21 -16 -38t-41 -17q-22 0 -38 17t-16 38q0 24 15.5 40t38.5 16z
" />
    <glyph glyph-name="alphatonos" unicode="&#x3ac;" horiz-adv-x="646" 
d="M311 548l-105 -276h210zM520 0l-67 177h-284l-68 -177h-109l281 709h74l281 -709h-108zM197 710l-75 -138h-88l56 138h107z" />
    <glyph glyph-name="epsilontonos" unicode="&#x3ad;" horiz-adv-x="641" 
d="M267 300v-199h325v-101h-427v700h426v-101h-324v-197h317v-102h-317zM150 700l-75 -138h-88l56 138h107z" />
    <glyph glyph-name="etatonos" unicode="&#x3ae;" horiz-adv-x="719" 
d="M262 700v-296h296v296h102v-700h-102v304h-296v-304h-101v700h101zM143 700l-75 -138h-88l56 138h107z" />
    <glyph glyph-name="iotatonos" unicode="&#x3af;" horiz-adv-x="554" 
d="M515 700v-96h-130v-507h130v-97h-361v97h130v507h-130v96h361zM143 700l-75 -138h-88l56 138h107z" />
    <glyph glyph-name="upsilondieresistonos" unicode="&#x3b0;" horiz-adv-x="630" 
d="M106 699h-119l259 -414v-285h102v285l260 414h-120l-191 -307zM329 734l68 130h-115l-44 -130h91zM120 801q0 32 26 45.5t52.5 0.5t26.5 -46q0 -31 -26.5 -44.5t-52.5 -0.5t-26 45zM402 801q0 32 26 45.5t52.5 0.5t26.5 -46q0 -31 -26.5 -44.5t-52.5 -0.5t-26 45z" />
    <glyph glyph-name="alpha" unicode="&#x3b1;" horiz-adv-x="647" 
d="M311 548l-105 -276h210zM520 0l-67 177h-284l-68 -177h-109l281 709h74l281 -709h-108z" />
    <glyph glyph-name="beta" unicode="&#x3b2;" horiz-adv-x="595" 
d="M131 603v-182h189q31 0 53 18.5t27 45.5t0.5 54t-26 45.5t-52.5 18.5h-191zM31 699h291q63 0 106 -31.5t64 -83.5q23 -50 11 -106.5t-62 -92.5q56 -24 82.5 -71.5t26.5 -102.5q0 -85 -54 -148t-149 -63h-316v699zM131 321v-223h216q48 0 75 33.5t27 78.5t-27 78t-75 33
h-216z" />
    <glyph glyph-name="gamma" unicode="&#x3b3;" horiz-adv-x="506" 
d="M132 601v-601h-102v699h426v-98h-324z" />
    <glyph glyph-name="delta" unicode="&#x3b4;" horiz-adv-x="649" 
d="M-8 0l281 709h74l281 -709h-636zM311 548l-176 -460h351z" />
    <glyph glyph-name="epsilon" unicode="&#x3b5;" horiz-adv-x="498" 
d="M124 300v-199h325v-101h-427v700h426v-101h-324v-197h317v-102h-317z" />
    <glyph glyph-name="zeta" unicode="&#x3b6;" horiz-adv-x="593" 
d="M547 707v-79l-390 -538h395v-90h-512v83l388 534h-388v90h507z" />
    <glyph glyph-name="eta" unicode="&#x3b7;" horiz-adv-x="583" 
d="M126 700v-296h296v296h102v-700h-102v304h-296v-304h-101v700h101z" />
    <glyph glyph-name="theta" unicode="&#x3b8;" horiz-adv-x="793" 
d="M182 302v93h395v-93h-395zM634 350q0 105 -74 181q-76 76 -181 76t-179 -76q-75 -75 -75 -181t75 -181q74 -76 179 -76t181 76q74 76 74 181zM23 350q0 146 104 253q104 106 252 106q147 0 253 -106q104 -107 104 -253t-104 -253q-104 -106 -253 -106t-252 106
q-104 107 -104 253z" />
    <glyph glyph-name="iota" unicode="&#x3b9;" horiz-adv-x="408" 
d="M369 699v-96h-130v-506h130v-97h-361v97h130v506h-130v96h361z" />
    <glyph glyph-name="kappa" unicode="&#x3ba;" horiz-adv-x="555" 
d="M27 699h100v-699h-100v699zM146 324v51l244 324h127l-267 -347l295 -352h-132z" />
    <glyph glyph-name="lambda" unicode="&#x3bb;" horiz-adv-x="650" 
d="M311 548l-210 -548h-109l281 709h74l281 -709h-108z" />
    <glyph glyph-name="mu" unicode="&#x3bc;" horiz-adv-x="719" 
d="M130 493v-493h-101v700h82l231 -340l231 340h80v-700h-100v493l-183 -272h-57z" />
    <glyph glyph-name="nu" unicode="&#x3bd;" horiz-adv-x="622" 
d="M138 0h-101v701l78 -1l341 -493v493h100v-700h-80l-338 489v-489z" />
    <glyph glyph-name="xi" unicode="&#x3be;" horiz-adv-x="507" 
d="M457 600h-436v100h436v-100zM21 99h437v-99h-437v99zM439 301h-404v98h404v-98z" />
    <glyph glyph-name="omicron" unicode="&#x3bf;" horiz-adv-x="793" 
d="M634 350q0 105 -74 181q-76 76 -181 76t-179 -76q-75 -75 -75 -181t75 -181q74 -76 179 -76t181 76q74 76 74 181zM23 350q0 146 104 253q104 106 252 106q147 0 253 -106q104 -107 104 -253t-104 -253q-104 -106 -253 -106t-252 106q-104 107 -104 253z" />
    <glyph glyph-name="pi" unicode="&#x3c0;" horiz-adv-x="583" 
d="M25 700h499v-700h-102v601h-296v-601h-101v700z" />
    <glyph glyph-name="rho" unicode="&#x3c1;" horiz-adv-x="547" 
d="M24 700h256q107 0 167 -69.5t60 -164.5t-60 -164t-167 -69h-154v-233h-102v700zM126 333h154q60 0 93.5 39t33.5 93t-33.5 93.5t-93.5 39.5h-154v-265z" />
    <glyph glyph-name="sigma1" unicode="&#x3c2;" horiz-adv-x="730" 
d="M13 348q0 144 100 251q101 104 242 104q120 0 208 -69.5t118 -188.5h-100q-27 77 -87 117.5t-139 40.5q-100 0 -172 -75t-72 -180q0 -103 72 -178t172 -75q80 0 142.5 44t89.5 123h99q-30 -120 -120 -193.5t-211 -73.5q-143 0 -242 104q-100 107 -100 249z" />
    <glyph glyph-name="sigma" unicode="&#x3c3;" horiz-adv-x="585" 
d="M333 382v-30l-184 -263h391v-89h-487l-41 56l217 312l-211 266l34 66h484v-91h-382z" />
    <glyph glyph-name="tau" unicode="&#x3c4;" horiz-adv-x="564" 
d="M320 0h-101v604h-212v96h524v-96h-211v-604z" />
    <glyph glyph-name="upsilon" unicode="&#x3c5;" horiz-adv-x="630" 
d="M-13 699h119l191 -307l191 307h120l-260 -414v-285h-102v285z" />
    <glyph glyph-name="phi" unicode="&#x3c6;" horiz-adv-x="756" 
d="M312 637v66h101v-66q140 -6 219 -89t79 -195q0 -113 -79.5 -196.5t-218.5 -90.5v-66h-101v65q-72 3 -130 28.5t-94.5 65.5t-55.5 89.5t-19 102.5q0 113 79 196.5t220 89.5zM411 549v-397q95 7 147 59.5t52 138.5t-52.5 139t-146.5 60zM114 352q0 -84 53.5 -139.5
t146.5 -60.5v397q-95 -4 -147.5 -57.5t-52.5 -139.5z" />
    <glyph glyph-name="chi" unicode="&#x3c7;" horiz-adv-x="642" 
d="M-11 700h124l190 -257l191 257h123l-253 -344l253 -356h-123l-191 275l-190 -275h-124l253 356z" />
    <glyph glyph-name="psi" unicode="&#x3c8;" horiz-adv-x="737" 
d="M302 231v469h102v-470q88 11 130.5 65t43.5 134v271h103v-271q-1 -116 -69 -198t-208 -93v-138h-102v138q-139 12 -207.5 94t-69.5 196v272h102v-271q1 -75 45.5 -130t129.5 -68z" />
    <glyph glyph-name="omega" unicode="&#x3c9;" horiz-adv-x="796" 
d="M383 616q-111 0 -183 -74.5t-72 -185.5q0 -99 53 -168.5t145 -107.5l-20 -80h-300v88h145q-59 41 -92 113t-33 155q0 157 100 256t257 99q158 0 257.5 -100.5t99.5 -254.5q0 -78 -35 -153t-91 -116h147v-87h-294l-16 82q92 43 140 108.5t48 165.5q0 111 -72.5 185.5
t-183.5 74.5z" />
    <glyph glyph-name="iotadieresis" unicode="&#x3ca;" horiz-adv-x="408" 
d="M369 604v96h-361v-96h130v-507h-130v-97h361v97h-130v507h130zM93 852q25 0 41 -15.5t16 -40.5q0 -21 -16 -38t-41 -17q-22 0 -38 17t-16 38q0 24 15.5 40t38.5 16zM283 852q25 0 41 -15.5t16 -40.5q0 -21 -16 -38t-41 -17q-22 0 -38 17t-16 38q0 24 15.5 40t38.5 16z
" />
    <glyph glyph-name="upsilondieresis" unicode="&#x3cb;" horiz-adv-x="587" 
d="M79 699h-119l259 -414v-285h102v285l260 414h-120l-191 -307zM173 848q25 0 41 -15.5t16 -40.5q0 -21 -16 -38t-41 -17q-22 0 -38 17t-16 38q0 24 15.5 40t38.5 16zM363 848q25 0 41 -15.5t16 -40.5q0 -21 -16 -38t-41 -17q-22 0 -38 17t-16 38q0 24 15.5 40t38.5 16z
" />
    <glyph glyph-name="omicrontonos" unicode="&#x3cc;" horiz-adv-x="793" 
d="M634 350q0 105 -74 181q-76 76 -181 76t-179 -76q-75 -75 -75 -181t75 -181q74 -76 179 -76t181 76q74 76 74 181zM23 350q0 146 104 253q104 106 252 106q147 0 253 -106q104 -107 104 -253t-104 -253q-104 -106 -253 -106t-252 106q-104 107 -104 253zM413 753h-87
l72 107h128z" />
    <glyph glyph-name="upsilontonos" unicode="&#x3cd;" horiz-adv-x="630" 
d="M-13 700h119l191 -308l191 308h120l-260 -415v-285h-102v285zM327 748h-87l72 107h128z" />
    <glyph glyph-name="omegatonos" unicode="&#x3ce;" horiz-adv-x="796" 
d="M383 616q-111 0 -183 -74.5t-72 -185.5q0 -99 53 -168.5t145 -107.5l-20 -80h-300v88h145q-59 41 -92 113t-33 155q0 157 100 256t257 99q158 0 257.5 -100.5t99.5 -254.5q0 -78 -35 -153t-91 -116h147v-87h-294l-16 82q92 43 140 108.5t48 165.5q0 111 -72.5 185.5
t-183.5 74.5zM421 749h-87l72 107h128z" />
    <glyph glyph-name="afii10023" unicode="&#x401;" horiz-adv-x="498" 
d="M124 101v198h317v102h-317v197h324v101h-426v-699h427v101h-325zM150 852q25 0 41 -15.5t16 -40.5q0 -21 -16 -38t-41 -17q-22 0 -38 17t-16 38q0 24 15.5 40t38.5 16zM340 852q25 0 41 -15.5t16 -40.5q0 -21 -16 -38t-41 -17q-22 0 -38 17t-16 38q0 24 15.5 40t38.5 16z
" />
    <glyph glyph-name="afii10051" unicode="&#x402;" horiz-adv-x="711" 
d="M312 0h-101v605h-212v95h524v-95h-211v-125q52 21 100 21q98 0 171 -57t73 -161v-79q1 -111 -50 -158t-172 -47v91q63 0 91.5 23.5t28.5 90.5v80q0 64 -45.5 96t-107.5 32q-51 0 -89 -31v-381z" />
    <glyph glyph-name="afii10052" unicode="&#x403;" horiz-adv-x="498" 
d="M124 602v-602h-102v700h426v-98h-324zM272 749h-87l72 107h128z" />
    <glyph glyph-name="afii10053" unicode="&#x404;" horiz-adv-x="735" 
d="M479 400v-94h-359q12 -78 68 -136q72 -75 172 -75q80 0 142.5 44t89.5 123h99q-30 -120 -120 -193.5t-211 -73.5q-143 0 -242 104q-100 107 -100 249q0 144 100 251q101 104 242 104q120 0 208 -69.5t118 -188.5h-100q-27 77 -87 117.5t-139 40.5q-100 0 -172 -75
q-53 -56 -67 -128h358z" />
    <glyph glyph-name="afii10054" unicode="&#x405;" horiz-adv-x="574" 
d="M508 523l-100 -4q-10 44 -51.5 67t-91.5 22q-87 -2 -127 -53q-20 -26 -17 -65q1 -21 12 -36t24 -24t37 -15t40.5 -8t45.5 -5q43 -5 75.5 -13t70 -23.5t62 -44t34.5 -68.5q5 -25 5 -46q0 -96 -79 -154.5t-181 -58.5q-56 0 -110 20.5t-95 65t-47 103.5l-1 19l102 2l1 -15v4
q5 -46 51 -72.5t100 -26.5q61 0 109 31.5t48 82.5q0 10 -3 24q-4 19 -18 32t-38.5 20t-44.5 10.5t-53 6.5q-39 4 -67.5 9t-63 17.5t-57.5 31t-40 50t-20 73.5v-1q-6 75 38 133q34 44 91.5 68.5t120.5 24.5q89 0 157 -47t81 -137z" />
    <glyph glyph-name="afii10055" unicode="&#x406;" horiz-adv-x="408" 
d="M369 699v-96h-130v-506h130v-97h-361v97h130v506h-130v96h361z" />
    <glyph glyph-name="afii10056" unicode="&#x407;" horiz-adv-x="408" 
d="M369 603v96h-361v-96h130v-506h-130v-97h361v97h-130v506h130zM93 852q25 0 41 -15.5t16 -40.5q0 -21 -16 -38t-41 -17q-22 0 -38 17t-16 38q0 24 15.5 40t38.5 16zM283 852q25 0 41 -15.5t16 -40.5q0 -21 -16 -38t-41 -17q-22 0 -38 17t-16 38q0 24 15.5 40t38.5 16z
" />
    <glyph glyph-name="afii10057" unicode="&#x408;" horiz-adv-x="432" 
d="M380 699v-396q0 -158 -85.5 -230.5t-284.5 -72.5v95q150 0 209.5 49.5t59.5 158.5v304h-189v92h290z" />
    <glyph glyph-name="afii10058" unicode="&#x409;" horiz-adv-x="887" 
d="M622 0h-233v591h-9l-274 -591h-112l328 700h169v-268h131q71 0 123.5 -32t75.5 -80t23 -104t-23.5 -104t-76 -80t-122.5 -32zM622 332h-131v-232h131q56 0 88.5 36t32.5 80t-32 80t-89 36z" />
    <glyph glyph-name="afii10059" unicode="&#x40a;" horiz-adv-x="882" 
d="M617 0h-233v332h-256v-332h-101v700h101v-268h256v268h102v-268h131q71 0 123.5 -32t75.5 -80t23 -104t-23.5 -104t-76 -80t-122.5 -32zM617 332h-131v-232h131q56 0 88.5 36t32.5 80t-32 80t-89 36z" />
    <glyph glyph-name="afii10060" unicode="&#x40b;" horiz-adv-x="713" 
d="M656 0h-102v279q0 64 -45.5 96t-107.5 32q-51 0 -89 -31v-376h-101v605h-212v95h524v-95h-211v-130q52 21 100 21q98 0 171 -57t73 -161v-278z" />
    <glyph glyph-name="afii10061" unicode="&#x40c;" horiz-adv-x="557" 
d="M25 700h102v-700h-102v700zM146 324v51l247 325h124l-267 -348l295 -352h-132zM288 749h-87l72 107h128z" />
    <glyph glyph-name="afii10062" unicode="&#x40e;" horiz-adv-x="572" 
d="M232 -1h-110l99 225l-232 476h114l124 -251l52 -112l45 111l108 252h115zM143 834h259v-88h-259v88z" />
    <glyph glyph-name="afii10145" unicode="&#x40f;" horiz-adv-x="583" 
d="M226 -115v115h-201v700h102v-601h294v601h103v-700h-199v-115h-99z" />
    <glyph glyph-name="bgA" unicode="&#x410;" horiz-adv-x="647" 
d="M311 548l-105 -276h210zM520 0l-67 177h-284l-68 -177h-109l281 709h74l281 -709h-108z" />
    <glyph glyph-name="afii10018" unicode="&#x411;" horiz-adv-x="594" 
d="M494 700v-98h-364v-181h216q91 0 147 -61.5t56 -148.5q0 -85 -54 -148t-149 -63h-316v700h464zM130 324v-226h216q48 0 75 33.5t27 78.5t-27 79.5t-75 34.5h-216z" />
    <glyph glyph-name="afii10019" unicode="&#x412;" horiz-adv-x="594" 
d="M130 604v-183h189q31 0 53 19t27 45.5t0.5 53.5t-26 46t-52.5 19h-191zM30 700h291q80 0 133 -57.5t51 -134t-66 -123.5q56 -24 83 -71.5t27 -102.5q0 -85 -54 -148t-149 -63h-316v700zM130 321v-223h216q48 0 75 33.5t27 78.5t-27 78t-75 33h-216z" />
    <glyph glyph-name="afii10020" unicode="&#x413;" horiz-adv-x="506" 
d="M132 602v-602h-102v700h426v-98h-324z" />
    <glyph glyph-name="afii10021" unicode="&#x414;" horiz-adv-x="670" 
d="M567 99h57v-211h-99v112h-416v-112h-101v193l56 11q46 48 60 196l27 412h416v-601zM178 99h285v504h-216l-15 -249q-3 -70 -6 -104.5t-15 -78t-33 -72.5z" />
    <glyph glyph-name="afii10022" unicode="&#x415;" horiz-adv-x="506" 
d="M132 300v-199h325v-101h-427v700h426v-101h-324v-197h317v-102h-317z" />
    <glyph glyph-name="afii10024" unicode="&#x416;" horiz-adv-x="898" 
d="M385 700h102v-700h-102v700zM506 324v51l226 325h119l-244 -348l270 -352h-126zM365 375v-51l-245 -324h-126l270 352l-244 348h119z" />
    <glyph glyph-name="afii10025" unicode="&#x417;" horiz-adv-x="557" 
d="M174 312v93h105q48 0 72 31.5t24 71.5q0 53 -38.5 77.5t-94.5 24.5q-42 0 -76.5 -22.5t-43.5 -61.5l-91 22q18 76 77.5 117.5t133.5 41.5q99 0 165.5 -49.5t67.5 -149.5q0 -103 -64 -146q95 -56 94 -168q-1 -82 -69.5 -142.5t-187.5 -60.5q-105 0 -164.5 52t-72.5 131
l94 17q7 -45 44 -75.5t99 -30.5q78 0 117.5 35t39.5 84q0 43 -31.5 75.5t-94.5 32.5h-105z" />
    <glyph glyph-name="afii10026" unicode="&#x418;" horiz-adv-x="619" 
d="M556 0h-101v489l-338 -489h-80v700h100v-493l341 493h78v-700z" />
    <glyph glyph-name="afii10027" unicode="&#x419;" horiz-adv-x="619" 
d="M556 0h-101v489l-338 -489h-80v700h100v-493l341 493h78v-700zM170 834h277v-88h-277v88z" />
    <glyph glyph-name="afii10028" unicode="&#x41a;" horiz-adv-x="564" 
d="M25 700h102v-700h-102v700zM146 324v51l247 325h124l-267 -348l295 -352h-132z" />
    <glyph glyph-name="afii10029" unicode="&#x41b;" horiz-adv-x="655" 
d="M311 534l-209 -534h-110l281 709h74l281 -709h-110z" />
    <glyph glyph-name="afii10030" unicode="&#x41c;" horiz-adv-x="719" 
d="M130 493v-493h-101v700h82l231 -340l231 340h80v-700h-100v493l-183 -272h-57z" />
    <glyph glyph-name="afii10031" unicode="&#x41d;" horiz-adv-x="583" 
d="M126 700v-296h296v296h102v-700h-102v304h-296v-304h-101v700h101z" />
    <glyph glyph-name="afii10032" unicode="&#x41e;" horiz-adv-x="793" 
d="M634 350q0 105 -74 181q-76 76 -181 76t-179 -76q-75 -75 -75 -181t75 -181q74 -76 179 -76t181 76q74 76 74 181zM23 350q0 146 104 253q104 106 252 106q147 0 253 -106q104 -107 104 -253t-104 -253q-104 -106 -253 -106t-252 106q-104 107 -104 253z" />
    <glyph glyph-name="afii10033" unicode="&#x41f;" horiz-adv-x="583" 
d="M25 700h499v-700h-103v601h-294v-601h-102v700z" />
    <glyph glyph-name="afii10034" unicode="&#x420;" horiz-adv-x="547" 
d="M24 700h256q107 0 167 -69.5t60 -164.5t-60 -164t-167 -69h-154v-233h-102v700zM126 333h154q60 0 93.5 39t33.5 93t-33.5 93.5t-93.5 39.5h-154v-265z" />
    <glyph glyph-name="afii10035" unicode="&#x421;" horiz-adv-x="741" 
d="M24 348q0 151 100.5 255t241.5 104q120 0 208 -69.5t118 -188.5h-100q-27 77 -87 117.5t-139 40.5q-111 0 -177.5 -78.5t-66.5 -180.5q0 -103 72 -178t172 -75q80 0 142.5 44t89.5 123h99q-30 -120 -120 -193.5t-211 -73.5q-143 0 -242 104q-100 107 -100 249z" />
    <glyph glyph-name="afii10036" unicode="&#x422;" horiz-adv-x="564" 
d="M320 0h-101v604h-212v96h524v-96h-211v-604z" />
    <glyph glyph-name="afii10037" unicode="&#x423;" horiz-adv-x="572" 
d="M232 -1h-110l99 225l-232 476h114l124 -251l52 -112l45 111l108 252h115z" />
    <glyph glyph-name="afii10038" unicode="&#x424;" horiz-adv-x="785" 
d="M331 637v66h101v-66q142 -6 221.5 -87.5t79.5 -196.5q0 -121 -79 -200.5t-222 -86.5v-66h-101v65q-145 7 -224 86t-79 200q0 119 79.5 199t223.5 87zM430 549v-397q95 7 147 59.5t52 138.5t-52.5 139t-146.5 60zM133 352q0 -84 53.5 -139.5t146.5 -60.5v397
q-95 -4 -147.5 -57.5t-52.5 -139.5z" />
    <glyph glyph-name="afii10039" unicode="&#x425;" horiz-adv-x="637" 
d="M-11 700h124l190 -257l191 257h123l-253 -344l253 -356h-123l-191 275l-190 -275h-124l253 356z" />
    <glyph glyph-name="afii10040" unicode="&#x426;" horiz-adv-x="591" 
d="M494 93h57v-235h-99v142h-424v700h103v-607h259v607h104v-607z" />
    <glyph glyph-name="afii10041" unicode="&#x427;" horiz-adv-x="561" 
d="M497 700v-700h-105v252q-46 -13 -97 -13q-112 0 -189 56t-77 167v238h106v-238q0 -62 48 -96.5t115 -34.5q43 0 94 14v355h105z" />
    <glyph glyph-name="afii10042" unicode="&#x428;" horiz-adv-x="871" 
d="M27 700h107v-608h232v608h106v-608h232v608h107v-700h-784v700z" />
    <glyph glyph-name="afii10043" unicode="&#x429;" horiz-adv-x="912" 
d="M27 700h106v-608h231v608h107v-608h232v608h107v-608h61v-234h-103v142h-741v700z" />
    <glyph glyph-name="afii10044" unicode="&#x42a;" horiz-adv-x="621" 
d="M1 601v99h197v-233h154q107 0 167 -69t60 -164t-60 -164.5t-167 -69.5h-256v601h-95zM352 367h-154v-267h154q60 0 93.5 40t33.5 95q0 54 -33.5 93t-93.5 39z" />
    <glyph glyph-name="afii10045" unicode="&#x42b;" horiz-adv-x="724" 
d="M280 0h-256v700h102v-233h154q107 0 167 -69t60 -164t-60 -164.5t-167 -69.5zM280 367h-154v-267h154q60 0 93.5 40t33.5 95q0 54 -33.5 93t-93.5 39zM561 0v700h103v-700h-103z" />
    <glyph glyph-name="afii10046" unicode="&#x42c;" horiz-adv-x="555" 
d="M280 0h-256v700h102v-233h154q107 0 167 -69t60 -164t-60 -164.5t-167 -69.5zM280 367h-154v-267h154q60 0 93.5 40t33.5 95q0 54 -33.5 93t-93.5 39z" />
    <glyph glyph-name="afii10047" unicode="&#x42d;" horiz-adv-x="727" 
d="M218 306v94h358q-14 72 -67 128q-72 75 -172 75q-79 0 -139 -40.5t-87 -117.5h-100q30 119 118 188.5t208 69.5q141 0 242 -104q100 -107 100 -251q0 -142 -100 -249q-99 -104 -242 -104q-121 0 -211 73.5t-120 193.5h99q27 -79 89.5 -123t142.5 -44q100 0 172 75
q56 58 68 136h-359z" />
    <glyph glyph-name="afii10048" unicode="&#x42e;" horiz-adv-x="1000" 
d="M337 603q104 106 252 106q147 0 253 -106q104 -107 104 -253t-104 -253q-104 -106 -253 -106t-252 106q-87 90 -101 207h-99v-304h-101v700h101v-296h100q18 115 100 199zM844 350q0 105 -74 181q-76 76 -181 76t-179 -76q-75 -75 -75 -181t75 -181q74 -76 179 -76
t181 76q74 76 74 181z" />
    <glyph glyph-name="bgQ" unicode="&#x42f;" horiz-adv-x="571" 
d="M374 355v-48l-255 -307h-131l221 263q-86 15 -133.5 75.5t-47.5 138.5q0 90 60 156.5t168 66.5h255v-700h-100v598h-155q-60 0 -93.5 -36t-33.5 -85q0 -50 33.5 -86t93.5 -36h118z" />
    <glyph glyph-name="bga" unicode="&#x430;" horiz-adv-x="647" 
d="M311 548l-105 -276h210zM520 0l-67 177h-284l-68 -177h-109l281 709h74l281 -709h-108z" />
    <glyph glyph-name="afii10066" unicode="&#x431;" horiz-adv-x="590" 
d="M490 700v-98h-364v-181h216q91 0 147 -61.5t56 -148.5q0 -85 -54 -148t-149 -63h-316v700h464zM126 324v-226h216q48 0 75 33.5t27 78.5t-27 79.5t-75 34.5h-216z" />
    <glyph glyph-name="afii10067" unicode="&#x432;" horiz-adv-x="590" 
d="M126 604v-183h189q31 0 53 19t27 45.5t0.5 53.5t-26 46t-52.5 19h-191zM26 700h291q80 0 133 -57.5t51 -134t-66 -123.5q56 -24 83 -71.5t27 -102.5q0 -85 -54 -148t-149 -63h-316v700zM126 321v-223h216q48 0 75 33.5t27 78.5t-27 78t-75 33h-216z" />
    <glyph glyph-name="afii10068" unicode="&#x433;" horiz-adv-x="506" 
d="M132 602v-602h-102v700h426v-98h-324z" />
    <glyph glyph-name="afii10069" unicode="&#x434;" horiz-adv-x="659" 
d="M565 99h57v-211h-99v112h-416v-112h-101v193l56 11q46 48 60 196l27 412h416v-601zM176 99h285v504h-216l-15 -249q-3 -70 -6 -104.5t-15 -78t-33 -72.5z" />
    <glyph glyph-name="afii10070" unicode="&#x435;" horiz-adv-x="498" 
d="M124 300v-199h325v-101h-427v700h426v-101h-324v-197h317v-102h-317z" />
    <glyph glyph-name="afii10072" unicode="&#x436;" horiz-adv-x="880" 
d="M376 700h102v-700h-102v700zM497 324v51l226 325h119l-244 -348l270 -352h-126zM356 375v-51l-245 -324h-126l270 352l-244 348h119z" />
    <glyph glyph-name="afii10073" unicode="&#x437;" horiz-adv-x="554" 
d="M172 312v93h105q48 0 72 31.5t24 71.5q0 53 -38.5 77.5t-94.5 24.5q-42 0 -76.5 -22.5t-43.5 -61.5l-91 22q18 76 77.5 117.5t133.5 41.5q99 0 165.5 -49.5t67.5 -149.5q0 -103 -64 -146q95 -56 94 -168q-1 -82 -69.5 -142.5t-187.5 -60.5q-105 0 -164.5 52t-72.5 131
l94 17q7 -45 44 -75.5t99 -30.5q78 0 117.5 35t39.5 84q0 43 -31.5 75.5t-94.5 32.5h-105z" />
    <glyph glyph-name="afii10074" unicode="&#x438;" horiz-adv-x="619" 
d="M556 0h-101v489l-338 -489h-80v700h100v-493l341 493h78v-700z" />
    <glyph glyph-name="afii10075" unicode="&#x439;" horiz-adv-x="619" 
d="M556 0h-101v489l-338 -489h-80v700h100v-493l341 493h78v-700zM170 834h277v-88h-277v88z" />
    <glyph glyph-name="afii10076" unicode="&#x43a;" horiz-adv-x="563" 
d="M31 700h102v-700h-102v700zM152 324v51l247 325h124l-267 -348l295 -352h-132z" />
    <glyph glyph-name="afii10077" unicode="&#x43b;" horiz-adv-x="650" 
d="M311 534l-209 -534h-110l281 709h74l281 -709h-110z" />
    <glyph glyph-name="afii10078" unicode="&#x43c;" horiz-adv-x="719" 
d="M130 493v-493h-101v700h82l231 -340l231 340h80v-700h-100v493l-183 -272h-57z" />
    <glyph glyph-name="afii10079" unicode="&#x43d;" horiz-adv-x="583" 
d="M126 700v-296h296v296h102v-700h-102v304h-296v-304h-101v700h101z" />
    <glyph glyph-name="afii10080" unicode="&#x43e;" horiz-adv-x="793" 
d="M634 350q0 105 -74 181q-76 76 -181 76t-179 -76q-75 -75 -75 -181t75 -181q74 -76 179 -76t181 76q74 76 74 181zM23 350q0 146 104 253q104 106 252 106q147 0 253 -106q104 -107 104 -253t-104 -253q-104 -106 -253 -106t-252 106q-104 107 -104 253z" />
    <glyph glyph-name="afii10081" unicode="&#x43f;" horiz-adv-x="583" 
d="M25 700h499v-700h-103v601h-294v-601h-102v700z" />
    <glyph glyph-name="afii10082" unicode="&#x440;" horiz-adv-x="560" 
d="M30 700h256q107 0 167 -69.5t60 -164.5t-60 -164t-167 -69h-154v-233h-102v700zM132 333h154q60 0 93.5 39t33.5 93t-33.5 93.5t-93.5 39.5h-154v-265z" />
    <glyph glyph-name="afii10083" unicode="&#x441;" horiz-adv-x="730" 
d="M13 348q0 144 100 251q101 104 242 104q120 0 208 -69.5t118 -188.5h-100q-27 77 -87 117.5t-139 40.5q-100 0 -172 -75t-72 -180q0 -103 72 -178t172 -75q80 0 142.5 44t89.5 123h99q-30 -120 -120 -193.5t-211 -73.5q-143 0 -242 104q-100 107 -100 249z" />
    <glyph glyph-name="afii10084" unicode="&#x442;" horiz-adv-x="564" 
d="M320 0h-101v604h-212v96h524v-96h-211v-604z" />
    <glyph glyph-name="afii10085" unicode="&#x443;" horiz-adv-x="572" 
d="M231 -3h-110l100 227l-232 480h114l124 -255l52 -112l45 111l108 256h115z" />
    <glyph glyph-name="afii10086" unicode="&#x444;" horiz-adv-x="764" 
d="M320 637v66h101v-66q140 -6 219 -89t79 -195q0 -113 -79.5 -196.5t-218.5 -90.5v-66h-101v65q-72 3 -130 28.5t-94.5 65.5t-55.5 89.5t-19 102.5q0 113 79 196.5t220 89.5zM419 549v-397q95 7 147 59.5t52 138.5t-52.5 139t-146.5 60zM122 352q0 -84 53.5 -139.5
t146.5 -60.5v397q-95 -4 -147.5 -57.5t-52.5 -139.5z" />
    <glyph glyph-name="afii10087" unicode="&#x445;" horiz-adv-x="637" 
d="M-11 700h124l190 -257l191 257h123l-253 -344l253 -356h-123l-191 275l-190 -275h-124l253 356z" />
    <glyph glyph-name="afii10088" unicode="&#x446;" horiz-adv-x="593" 
d="M496 93h57v-235h-99v142h-424v700h103v-607h259v607h104v-607z" />
    <glyph glyph-name="afii10089" unicode="&#x447;" horiz-adv-x="551" 
d="M487 700v-700h-101v252q-46 -13 -97 -13q-112 0 -189 56t-77 167v238h104v-238q0 -62 49 -96.5t116 -34.5q43 0 94 14v355h101z" />
    <glyph glyph-name="afii10090" unicode="&#x448;" horiz-adv-x="871" 
d="M27 700h107v-608h232v608h106v-608h232v608h107v-700h-784v700z" />
    <glyph glyph-name="afii10091" unicode="&#x449;" horiz-adv-x="912" 
d="M27 700h106v-608h231v608h107v-608h232v608h107v-608h61v-234h-103v142h-741v700z" />
    <glyph glyph-name="afii10092" unicode="&#x44a;" horiz-adv-x="621" 
d="M1 601v99h197v-233h154q107 0 167 -69t60 -164t-60 -164.5t-167 -69.5h-256v601h-95zM352 367h-154v-267h154q60 0 93.5 40t33.5 95q0 54 -33.5 93t-93.5 39z" />
    <glyph glyph-name="afii10093" unicode="&#x44b;" horiz-adv-x="724" 
d="M280 0h-256v700h102v-233h154q107 0 167 -69t60 -164t-60 -164.5t-167 -69.5zM280 367h-154v-267h154q60 0 93.5 40t33.5 95q0 54 -33.5 93t-93.5 39zM561 0v700h103v-700h-103z" />
    <glyph glyph-name="afii10094" unicode="&#x44c;" horiz-adv-x="549" 
d="M280 0h-256v700h102v-233h154q107 0 167 -69t60 -164t-60 -164.5t-167 -69.5zM280 367h-154v-267h154q60 0 93.5 40t33.5 95q0 54 -33.5 93t-93.5 39z" />
    <glyph glyph-name="afii10095" unicode="&#x44d;" horiz-adv-x="727" 
d="M218 306v94h358q-14 72 -67 128q-72 75 -172 75q-79 0 -139 -40.5t-87 -117.5h-100q30 119 118 188.5t208 69.5q141 0 242 -104q100 -107 100 -251q0 -142 -100 -249q-99 -104 -242 -104q-121 0 -211 73.5t-120 193.5h99q27 -79 89.5 -123t142.5 -44q100 0 172 75
q56 58 68 136h-359z" />
    <glyph glyph-name="afii10096" unicode="&#x44e;" horiz-adv-x="992" 
d="M329 603q104 106 252 106q147 0 253 -106q104 -107 104 -253t-104 -253q-104 -106 -253 -106t-252 106q-87 90 -101 207h-99v-304h-101v700h101v-296h100q18 115 100 199zM836 350q0 105 -74 181q-76 76 -181 76t-179 -76q-75 -75 -75 -181t75 -181q74 -76 179 -76
t181 76q74 76 74 181z" />
    <glyph glyph-name="bgq" unicode="&#x44f;" horiz-adv-x="571" 
d="M374 355v-48l-255 -307h-131l221 263q-86 15 -133.5 75.5t-47.5 138.5q0 90 60 156.5t168 66.5h255v-700h-101v598h-154q-60 0 -93.5 -36t-33.5 -85q0 -50 33.5 -86t93.5 -36h118z" />
    <glyph glyph-name="afii10071" unicode="&#x451;" horiz-adv-x="498" 
d="M124 101v198h317v102h-317v197h324v101h-426v-699h427v101h-325zM152 852q25 0 41 -15.5t16 -40.5q0 -21 -16 -38t-41 -17q-22 0 -38 17t-16 38q0 24 15.5 40t38.5 16zM342 852q25 0 41 -15.5t16 -40.5q0 -21 -16 -38t-41 -17q-22 0 -38 17t-16 38q0 24 15.5 40t38.5 16z
" />
    <glyph glyph-name="afii10099" unicode="&#x452;" horiz-adv-x="711" 
d="M312 0h-101v605h-212v95h524v-95h-211v-125q52 21 100 21q98 0 171 -57t73 -161v-79q1 -111 -50 -158t-172 -47v91q63 0 91.5 23.5t28.5 90.5v80q0 64 -45.5 96t-107.5 32q-51 0 -89 -31v-381z" />
    <glyph glyph-name="afii10100" unicode="&#x453;" horiz-adv-x="498" 
d="M124 602v-602h-102v700h426v-98h-324zM272 749h-87l72 107h128z" />
    <glyph glyph-name="afii10101" unicode="&#x454;" horiz-adv-x="735" 
d="M479 400v-94h-359q12 -78 68 -136q72 -75 172 -75q80 0 142.5 44t89.5 123h99q-30 -120 -120 -193.5t-211 -73.5q-143 0 -242 104q-100 107 -100 249q0 144 100 251q101 104 242 104q120 0 208 -69.5t118 -188.5h-100q-27 77 -87 117.5t-139 40.5q-100 0 -172 -75
q-53 -56 -67 -128h358z" />
    <glyph glyph-name="afii10102" unicode="&#x455;" horiz-adv-x="574" 
d="M508 523l-100 -4q-10 44 -51.5 67t-91.5 22q-87 -2 -127 -53q-20 -26 -17 -65q1 -21 12 -36t24 -24t37 -15t40.5 -8t45.5 -5q43 -5 75.5 -13t70 -23.5t62 -44t34.5 -68.5q5 -25 5 -46q0 -96 -79 -154.5t-181 -58.5q-56 0 -110 20.5t-95 65t-47 103.5l-1 19l102 2l1 -15v4
q5 -46 51 -72.5t100 -26.5q61 0 109 31.5t48 82.5q0 10 -3 24q-4 19 -18 32t-38.5 20t-44.5 10.5t-53 6.5q-39 4 -67.5 9t-63 17.5t-57.5 31t-40 50t-20 73.5v-1q-6 75 38 133q34 44 91.5 68.5t120.5 24.5q89 0 157 -47t81 -137z" />
    <glyph glyph-name="afii10103" unicode="&#x456;" horiz-adv-x="408" 
d="M369 699v-96h-130v-506h130v-97h-361v97h130v506h-130v96h361z" />
    <glyph glyph-name="afii10104" unicode="&#x457;" horiz-adv-x="408" 
d="M369 604v96h-361v-96h130v-507h-130v-97h361v97h-130v507h130zM93 852q25 0 41 -15.5t16 -40.5q0 -21 -16 -38t-41 -17q-22 0 -38 17t-16 38q0 24 15.5 40t38.5 16zM283 852q25 0 41 -15.5t16 -40.5q0 -21 -16 -38t-41 -17q-22 0 -38 17t-16 38q0 24 15.5 40t38.5 16z
" />
    <glyph glyph-name="afii10105" unicode="&#x458;" horiz-adv-x="432" 
d="M380 700v-397q0 -158 -85.5 -230.5t-284.5 -72.5v95q150 0 209.5 49.5t59.5 158.5v305h-189v92h290z" />
    <glyph glyph-name="afii10106" unicode="&#x459;" horiz-adv-x="887" 
d="M622 0h-233v591h-9l-274 -591h-112l328 700h169v-268h131q71 0 123.5 -32t75.5 -80t23 -104t-23.5 -104t-76 -80t-122.5 -32zM622 332h-131v-232h131q56 0 88.5 36t32.5 80t-32 80t-89 36z" />
    <glyph glyph-name="afii10107" unicode="&#x45a;" horiz-adv-x="882" 
d="M617 0h-233v332h-256v-332h-101v700h101v-268h256v268h102v-268h131q71 0 123.5 -32t75.5 -80t23 -104t-23.5 -104t-76 -80t-122.5 -32zM617 332h-131v-232h131q56 0 88.5 36t32.5 80t-32 80t-89 36z" />
    <glyph glyph-name="afii10108" unicode="&#x45b;" horiz-adv-x="713" 
d="M656 0h-102v279q0 64 -45.5 96t-107.5 32q-51 0 -89 -31v-376h-101v605h-212v95h524v-95h-211v-130q52 21 100 21q98 0 171 -57t73 -161v-278z" />
    <glyph glyph-name="afii10109" unicode="&#x45c;" horiz-adv-x="557" 
d="M25 700h102v-700h-102v700zM146 324v51l247 325h124l-267 -348l295 -352h-132zM288 749h-87l72 107h128z" />
    <glyph glyph-name="afii10110" unicode="&#x45e;" horiz-adv-x="572" 
d="M232 -1h-110l99 225l-232 476h114l124 -251l52 -112l45 111l108 252h115zM143 834h259v-88h-259v88z" />
    <glyph glyph-name="afii10193" unicode="&#x45f;" horiz-adv-x="583" 
d="M226 -115v115h-201v700h102v-601h294v601h103v-700h-199v-115h-99z" />
    <glyph glyph-name="afii10050" unicode="&#x490;" horiz-adv-x="498" 
d="M356 700v77h92v-175h-324v-602h-102v700h334z" />
    <glyph glyph-name="afii10098" unicode="&#x491;" horiz-adv-x="498" 
d="M356 700v77h92v-175h-324v-602h-102v700h334z" />
    <glyph glyph-name="uni1E9E" unicode="&#x1e9e;" horiz-adv-x="570" 
d="M145 515v-515h-108v515q0 84 65.5 135t155.5 51t153.5 -49.5t63.5 -132.5q0 -87 -76 -140q59 -25 90.5 -73t30.5 -103q2 -101 -68 -155.5t-173 -54.5q-51 0 -114 20v98q53 -30 100 -30q69 0 108.5 36.5t39.5 85.5q0 50 -39.5 86t-108.5 36h-73v93h73q51 0 80 31t26 71
t-36 64.5t-78 24.5q-44 0 -78 -26.5t-34 -67.5z" />
    <glyph glyph-name="thinspace" unicode="&#x2009;" horiz-adv-x="14" 
 />
    <glyph glyph-name="endash" unicode="&#x2013;" horiz-adv-x="605" 
d="M30 299v96h512v-96h-512z" />
    <glyph glyph-name="emdash" unicode="&#x2014;" horiz-adv-x="754" 
d="M19 299v94h685v-94h-685z" />
    <glyph glyph-name="quoteleft" unicode="&#x2018;" horiz-adv-x="218" 
d="M176 705l-52 -199h-104l75 199h81z" />
    <glyph glyph-name="quoteright" unicode="&#x2019;" horiz-adv-x="212" 
d="M20 505l52 199h104l-75 -199h-81z" />
    <glyph glyph-name="quotesinglbase" unicode="&#x201a;" horiz-adv-x="208" 
d="M77 -100h-92l73 184h112z" />
    <glyph glyph-name="quotedblleft" unicode="&#x201c;" horiz-adv-x="341" 
d="M166 705l-52 -199h-104l75 199h81zM306 705l-52 -199h-104l75 199h81z" />
    <glyph glyph-name="quotedblright" unicode="&#x201d;" horiz-adv-x="355" 
d="M154 505l52 199h104l-75 -199h-81zM14 505l52 199h104l-75 -199h-81z" />
    <glyph glyph-name="quotedblbase" unicode="&#x201e;" horiz-adv-x="355" 
d="M77 -100h-92l73 184h112zM225 -100h-92l73 184h112z" />
    <glyph glyph-name="dagger" unicode="&#x2020;" horiz-adv-x="478" 
d="M179 -48v467h-170v87h170v192h93v-192h172v-87h-172v-467h-93z" />
    <glyph glyph-name="daggerdbl" unicode="&#x2021;" horiz-adv-x="486" 
d="M13 165v82h171v174h-171v85h171v192h92v-192h171v-85h-171v-174h171v-82h-171v-213h-92v213h-171z" />
    <glyph glyph-name="bullet" unicode="&#x2022;" horiz-adv-x="339" 
d="M167 245q-47 0 -80 33t-33 81q0 47 33 80t80 33t80 -33t33 -80q0 -48 -33 -81t-80 -33z" />
    <glyph glyph-name="ellipsis" unicode="&#x2026;" horiz-adv-x="521" 
d="M74 120q28 0 45.5 -17t17.5 -45q0 -24 -18 -42.5t-45 -18.5q-24 0 -42 19t-18 42q0 27 17.5 44.5t42.5 17.5zM246 120q28 0 45.5 -17t17.5 -45q0 -24 -18 -42.5t-45 -18.5q-24 0 -42 19t-18 42q0 27 17.5 44.5t42.5 17.5zM416 120q28 0 45.5 -17t17.5 -45
q0 -24 -18 -42.5t-45 -18.5q-24 0 -42 19t-18 42q0 27 17.5 44.5t42.5 17.5z" />
    <glyph glyph-name="perthousand" unicode="&#x2030;" horiz-adv-x="1137" 
d="M362 527q0 -70 -50.5 -119.5t-121.5 -49.5q-70 0 -120.5 49.5t-50.5 119.5q0 71 50.5 120.5t120.5 49.5q71 0 121.5 -49.5t50.5 -120.5zM542 692h115l-456 -701h-114zM269 527q0 35 -23 59.5t-56 24.5t-55.5 -24.5t-22.5 -59.5t22.5 -59t55.5 -24q34 0 56.5 24t22.5 59z
M727 164q0 -70 -50.5 -119.5t-121.5 -49.5t-121 49.5t-50 119.5q0 71 50 120.5t121 49.5t121.5 -49.5t50.5 -120.5zM634 164q0 35 -23 59.5t-56 24.5t-56 -24.5t-23 -59.5t23 -59t56 -24q34 0 56.5 24t22.5 59zM1099 164q0 -70 -50.5 -119.5t-121.5 -49.5t-121 49.5
t-50 119.5q0 71 50 120.5t121 49.5t121.5 -49.5t50.5 -120.5zM1006 164q0 35 -23 59.5t-56 24.5t-56 -24.5t-23 -59.5t23 -59t56 -24q34 0 56.5 24t22.5 59z" />
    <glyph glyph-name="guilsinglleft" unicode="&#x2039;" horiz-adv-x="332" 
d="M173 98l-166 207l166 208h117l-165 -208q24 -31 81.5 -102.5t83.5 -104.5h-117z" />
    <glyph glyph-name="guilsinglright" unicode="&#x203a;" horiz-adv-x="329" 
d="M16 134l163 207l-165 208h117l165 -208l-165 -207h-115z" />
    <glyph glyph-name="fraction" unicode="&#x2044;" horiz-adv-x="220" 
d="M-34 -47h-99l363 761h99z" />
    <glyph glyph-name="zerosuperior" unicode="&#x2070;" horiz-adv-x="572" 
d="M263 574q-76 0 -118 -71t-42 -169t42 -168.5t118 -70.5t118 71t42 168q0 98 -42 169t-118 71zM263 -2q-82 0 -141.5 50t-87 124.5t-27.5 161.5t27.5 162t87 125t141.5 50q120 0 188 -100.5t68 -236.5q0 -87 -27.5 -161.5t-87.5 -124.5t-141 -50z" />
    <glyph glyph-name="foursuperior" unicode="&#x2074;" horiz-adv-x="549" 
d="M-3 229l371 471h78v-444h57v-98h-57v-158h-100v158h-349v71zM129 254h219v271z" />
    <glyph glyph-name="fivesuperior" unicode="&#x2075;" horiz-adv-x="554" 
d="M9 159l93 38q47 -95 146 -95q74 0 114.5 42t39.5 100q0 38 -21.5 72t-59.5 51q-122 50 -246 -23l-57 26v333h446v-98h-344v-140q126 41 237 -4q70 -29 108 -87.5t39 -129.5q1 -99 -67 -171.5t-189 -72.5q-176 0 -239 159z" />
    <glyph glyph-name="sixsuperior" unicode="&#x2076;" horiz-adv-x="562" 
d="M258 380q-73 0 -113.5 -41.5t-40.5 -98.5t40.5 -97.5t113.5 -40.5q74 0 114 40.5t40 97.5t-40 98.5t-114 41.5zM46 380l228 320h124l-171 -241q38 14 86 11t84 -23q56 -32 86 -88t30 -119q0 -98 -67.5 -169t-187.5 -71t-187.5 71.5t-67.5 168.5q0 75 43 140z" />
    <glyph glyph-name="sevensuperior" unicode="&#x2077;" horiz-adv-x="527" 
d="M3 700h493v-69l-345 -631h-116l328 601h-360v99z" />
    <glyph glyph-name="eightsuperior" unicode="&#x2078;" horiz-adv-x="553" 
d="M256 87q72 0 112.5 35t40.5 80t-40 78.5t-113 33.5q-71 0 -111.5 -33.5t-40.5 -78.5t40.5 -80t111.5 -35zM256 617q-48 0 -85.5 -29t-37.5 -77q0 -40 32.5 -72t90.5 -32q59 0 91.5 32t32.5 73q0 47 -38 76t-86 29zM480 509q0 -41 -23.5 -83t-64.5 -60q58 -22 88 -67
t30 -96q0 -85 -67 -147.5t-187 -62.5t-186 60.5t-66 149.5q0 48 32 93t89 70q-51 21 -71.5 62t-20.5 82q1 93 68 144.5t155 51.5q106 0 165 -58.5t59 -138.5z" />
    <glyph glyph-name="ninesuperior" unicode="&#x2079;" horiz-adv-x="568" 
d="M265 323q74 0 114.5 42t40.5 99q0 58 -40.5 99t-114.5 41t-114.5 -41t-40.5 -99q0 -57 40.5 -99t114.5 -42zM480 323l-230 -323h-125l172 244q-39 -15 -87.5 -12t-83.5 23q-57 33 -87.5 89.5t-30.5 119.5q0 99 68 171t189 72t189.5 -72t68.5 -171q0 -74 -43 -141z" />
    <glyph glyph-name="zeroinferior" unicode="&#x2080;" horiz-adv-x="572" 
d="M263 574q-76 0 -118 -71t-42 -169t42 -168.5t118 -70.5t118 71t42 168q0 98 -42 169t-118 71zM263 -2q-82 0 -141.5 50t-87 124.5t-27.5 161.5t27.5 162t87 125t141.5 50q120 0 188 -100.5t68 -236.5q0 -87 -27.5 -161.5t-87.5 -124.5t-141 -50z" />
    <glyph glyph-name="oneinferior" unicode="&#x2081;" horiz-adv-x="289" 
d="M227 0h-100v510l-94 -128l-76 55l189 266h81v-703z" />
    <glyph glyph-name="twoinferior" unicode="&#x2082;" horiz-adv-x="551" 
d="M114 469l-101 8q14 100 77 163.5t167 63.5q76 0 135 -31t86.5 -80.5t32.5 -105.5t-23 -112t-83 -94q-48 -39 -111 -90t-115 -94h321v-97h-491v78l329 280h-1q54 39 65 97.5t-28.5 103t-116.5 44.5q-62 0 -98 -36t-45 -98z" />
    <glyph glyph-name="threeinferior" unicode="&#x2083;" horiz-adv-x="539" 
d="M163 304v95h105q48 0 72 32t24 72q0 49 -39.5 75.5t-93.5 26.5q-42 0 -76.5 -22.5t-43.5 -61.5l-91 22q18 76 77.5 117t133.5 41q94 0 163 -51.5t70 -146.5q0 -103 -64 -146q92 -54 90 -163q-1 -82 -67.5 -142.5t-185.5 -60.5q-105 0 -164.5 52t-72.5 131l94 17
q7 -45 44 -75.5t99 -30.5q78 0 120 36t38 83q-4 38 -34.5 69t-92.5 31h-105z" />
    <glyph glyph-name="fourinferior" unicode="&#x2084;" horiz-adv-x="549" 
d="M-3 229l371 471h78v-444h57v-98h-57v-158h-100v158h-349v71zM129 254h219v271z" />
    <glyph glyph-name="fiveinferior" unicode="&#x2085;" horiz-adv-x="554" 
d="M9 159l93 38q47 -95 146 -95q74 0 114.5 42t39.5 100q0 38 -21.5 72t-59.5 51q-122 50 -246 -23l-57 26v333h446v-98h-344v-140q126 41 237 -4q70 -29 108 -87.5t39 -129.5q1 -99 -67 -171.5t-189 -72.5q-176 0 -239 159z" />
    <glyph glyph-name="sixinferior" unicode="&#x2086;" horiz-adv-x="562" 
d="M258 380q-73 0 -113.5 -41.5t-40.5 -98.5t40.5 -97.5t113.5 -40.5q74 0 114 40.5t40 97.5t-40 98.5t-114 41.5zM46 380l228 320h124l-171 -241q38 14 86 11t84 -23q56 -32 86 -88t30 -119q0 -98 -67.5 -169t-187.5 -71t-187.5 71.5t-67.5 168.5q0 75 43 140z" />
    <glyph glyph-name="seveninferior" unicode="&#x2087;" horiz-adv-x="527" 
d="M3 700h493v-69l-345 -631h-116l328 601h-360v99z" />
    <glyph glyph-name="eightinferior" unicode="&#x2088;" horiz-adv-x="553" 
d="M256 87q72 0 112.5 35t40.5 80t-40 78.5t-113 33.5q-71 0 -111.5 -33.5t-40.5 -78.5t40.5 -80t111.5 -35zM256 617q-48 0 -85.5 -29t-37.5 -77q0 -40 32.5 -72t90.5 -32q59 0 91.5 32t32.5 73q0 47 -38 76t-86 29zM480 509q0 -41 -23.5 -83t-64.5 -60q58 -22 88 -67
t30 -96q0 -85 -67 -147.5t-187 -62.5t-186 60.5t-66 149.5q0 48 32 93t89 70q-51 21 -71.5 62t-20.5 82q1 93 68 144.5t155 51.5q106 0 165 -58.5t59 -138.5z" />
    <glyph glyph-name="nineinferior" unicode="&#x2089;" horiz-adv-x="568" 
d="M265 323q74 0 114.5 42t40.5 99q0 58 -40.5 99t-114.5 41t-114.5 -41t-40.5 -99q0 -57 40.5 -99t114.5 -42zM480 323l-230 -323h-125l172 244q-39 -15 -87.5 -12t-83.5 23q-57 33 -87.5 89.5t-30.5 119.5q0 99 68 171t189 72t189.5 -72t68.5 -171q0 -74 -43 -141z" />
    <glyph glyph-name="Euro" unicode="&#x20ac;" horiz-adv-x="758" 
d="M41 324v24l1 28h-48l19 84h46q22 79 82 144q101 104 242 104q120 0 208 -69t118 -187h-100q-27 77 -86.5 116.5t-139.5 39.5q-102 0 -173 -74q-32 -33 -49 -74h303l-19 -84h-305l-1 -28q0 -16 1 -24h288l-17 -81h-250q19 -44 49 -74q71 -74 173 -74q80 0 142.5 44
t89.5 123h99q-30 -120 -120 -193.5t-211 -73.5q-143 0 -242 104q-59 62 -84 144h-69l19 81h34z" />
    <glyph glyph-name="afii61352" unicode="&#x2116;" horiz-adv-x="1161" 
d="M699 253q0 -81 45.5 -125.5t109.5 -44.5q65 0 110.5 44t45.5 126q0 81 -45.5 124.5t-110.5 43.5q-64 0 -109.5 -43.5t-45.5 -124.5zM1112 253q0 -113 -72.5 -189t-185.5 -76t-185 76t-72 189q0 112 72 188t185 76t185.5 -75.5t72.5 -188.5zM138 0h-101v700h78l341 -493
v493h100v-700h-80l-338 489v-489z" />
    <glyph glyph-name="trademark" unicode="&#x2122;" horiz-adv-x="866" 
d="M326 622h-107v-305h-89v305h-107v78h303v-78zM550 363l-97 178q0 -37 1 -112.5t1 -111.5h-89v382h90l127 -224q63 106 130 224h88v-382h-90l2 221l-95 -175h-68z" />
    <glyph glyph-name="minus" unicode="&#x2212;" horiz-adv-x="512" 
d="M16 305v100h451v-100h-451z" />
    <glyph glyph-name="infinity" unicode="&#x221e;" horiz-adv-x="474" 
d="M243 184q-68 0 -116.5 48.5t-48.5 116.5q0 69 48 116.5t117 47.5t117 -47.5t48 -116.5q0 -68 -48 -116.5t-117 -48.5z" />
    <glyph glyph-name="approxequal" unicode="&#x2248;" horiz-adv-x="544" 
d="M59 319l-57 68q78 82 162 82q50 0 116 -39q50 -28 72 -28q59 0 106 53l48 -62q-81 -85 -154 -85q-24 0 -48 7.5t-33.5 12t-34.5 18.5q-43 27 -87.5 21.5t-89.5 -48.5zM59 152l-57 69q79 81 162 81q50 0 116 -39q48 -27 72 -27q59 0 106 52l56 -70q-75 -77 -162 -77
q-51 0 -116 38q-46 27 -72 27q-54 0 -105 -54z" />
    <glyph glyph-name="notequal" unicode="&#x2260;" horiz-adv-x="503" 
d="M51 98l47 67h-88v90h148l74 99h-222v91h283l79 110l62 -45l-47 -65h77v-91h-137l-74 -99h211v-90h-271l-78 -112z" />
    <glyph glyph-name="lessequal" unicode="&#x2264;" horiz-adv-x="481" 
d="M21 98h414v-97h-414v97zM424 626v-111l-283 -140l283 -142v-106l-408 212v69z" />
    <glyph glyph-name="greaterequal" unicode="&#x2265;" horiz-adv-x="479" 
d="M15 98h414v-97h-414v97zM26 515v111l408 -218v-69l-408 -212v106l283 142z" />
    <glyph glyph-name="fontfabric" horiz-adv-x="1750" 
d="M1331 699h350v-176h-14q-22 80 -63.5 121.5t-116.5 41.5h-59v-674h110v-13h-207v700zM735 12h234v-13h-234v13zM1176 699h123v-13v-687h-32l-428 687h-104v13h215l330 -537h6v524h-110v13zM781 491q26 -63 26 -141q0 -68 -26 -131q-39 -78 -71 -110q-58 -58 -113.5 -84
t-132.5 -26h-6v13h6q126 0 182 84q28 38 38 104q13 100 13 150q0 154 -45 232q-43 104 -188 104h-6v13h6q101 0 188.5 -57.5t128.5 -150.5zM238 439q2 7 10.5 29t14.5 43h7v-305h-7q-8 64 -39.5 107.5t-89.5 42.5h-65v13h57q45 -1 71 14.5t41 55.5zM69 699h336v-169h-6
q-20 74 -61 115t-121 41h-148v13z" />
    <glyph glyph-name="zero.tnum" horiz-adv-x="572" 
d="M263 574q-76 0 -118 -71t-42 -169t42 -168.5t118 -70.5t118 71t42 168q0 98 -42 169t-118 71zM263 -2q-82 0 -141.5 50t-87 124.5t-27.5 161.5t27.5 162t87 125t141.5 50q120 0 188 -100.5t68 -236.5q0 -87 -27.5 -161.5t-87.5 -124.5t-141 -50z" />
    <glyph glyph-name="one.tnum" horiz-adv-x="289" 
d="M227 0h-100v510l-94 -128l-76 55l189 266h81v-703z" />
    <glyph glyph-name="two.tnum" horiz-adv-x="551" 
d="M114 469l-101 8q14 100 77 163.5t167 63.5q76 0 135 -31t86.5 -80.5t32.5 -105.5t-23 -112t-83 -94q-48 -39 -111 -90t-115 -94h321v-97h-491v78l329 280h-1q54 39 65 97.5t-28.5 103t-116.5 44.5q-62 0 -98 -36t-45 -98z" />
    <glyph glyph-name="three.tnum" horiz-adv-x="539" 
d="M163 304v95h105q48 0 72 32t24 72q0 49 -39.5 75.5t-93.5 26.5q-42 0 -76.5 -22.5t-43.5 -61.5l-91 22q18 76 77.5 117t133.5 41q94 0 163 -51.5t70 -146.5q0 -103 -64 -146q92 -54 90 -163q-1 -82 -67.5 -142.5t-185.5 -60.5q-105 0 -164.5 52t-72.5 131l94 17
q7 -45 44 -75.5t99 -30.5q78 0 120 36t38 83q-4 38 -34.5 69t-92.5 31h-105z" />
    <glyph glyph-name="four.tnum" horiz-adv-x="549" 
d="M-3 229l371 471h78v-444h57v-98h-57v-158h-100v158h-349v71zM129 254h219v271z" />
    <glyph glyph-name="five.tnum" horiz-adv-x="554" 
d="M9 159l93 38q47 -95 146 -95q74 0 114.5 42t39.5 100q0 38 -21.5 72t-59.5 51q-122 50 -246 -23l-57 26v333h446v-98h-344v-140q126 41 237 -4q70 -29 108 -87.5t39 -129.5q1 -99 -67 -171.5t-189 -72.5q-176 0 -239 159z" />
    <glyph glyph-name="six.tnum" horiz-adv-x="562" 
d="M258 380q-73 0 -113.5 -41.5t-40.5 -98.5t40.5 -97.5t113.5 -40.5q74 0 114 40.5t40 97.5t-40 98.5t-114 41.5zM46 380l228 320h124l-171 -241q38 14 86 11t84 -23q56 -32 86 -88t30 -119q0 -98 -67.5 -169t-187.5 -71t-187.5 71.5t-67.5 168.5q0 75 43 140z" />
    <glyph glyph-name="seven.tnum" horiz-adv-x="527" 
d="M3 700h493v-69l-345 -631h-116l328 601h-360v99z" />
    <glyph glyph-name="eight.tnum" horiz-adv-x="553" 
d="M256 87q72 0 112.5 35t40.5 80t-40 78.5t-113 33.5q-71 0 -111.5 -33.5t-40.5 -78.5t40.5 -80t111.5 -35zM256 617q-48 0 -85.5 -29t-37.5 -77q0 -40 32.5 -72t90.5 -32q59 0 91.5 32t32.5 73q0 47 -38 76t-86 29zM480 509q0 -41 -23.5 -83t-64.5 -60q58 -22 88 -67
t30 -96q0 -85 -67 -147.5t-187 -62.5t-186 60.5t-66 149.5q0 48 32 93t89 70q-51 21 -71.5 62t-20.5 82q1 93 68 144.5t155 51.5q106 0 165 -58.5t59 -138.5z" />
    <glyph glyph-name="nine.tnum" horiz-adv-x="568" 
d="M265 323q74 0 114.5 42t40.5 99q0 58 -40.5 99t-114.5 41t-114.5 -41t-40.5 -99q0 -57 40.5 -99t114.5 -42zM480 323l-230 -323h-125l172 244q-39 -15 -87.5 -12t-83.5 23q-57 33 -87.5 89.5t-30.5 119.5q0 99 68 171t189 72t189.5 -72t68.5 -171q0 -74 -43 -141z" />
    <glyph glyph-name="zero.p_osf" horiz-adv-x="572" 
d="M263 574q-76 0 -118 -71t-42 -169t42 -168.5t118 -70.5t118 71t42 168q0 98 -42 169t-118 71zM263 -2q-82 0 -141.5 50t-87 124.5t-27.5 161.5t27.5 162t87 125t141.5 50q120 0 188 -100.5t68 -236.5q0 -87 -27.5 -161.5t-87.5 -124.5t-141 -50z" />
    <glyph glyph-name="one.p_osf" horiz-adv-x="289" 
d="M227 0h-100v510l-94 -128l-76 55l189 266h81v-703z" />
    <glyph glyph-name="two.p_osf" horiz-adv-x="551" 
d="M114 469l-101 8q14 100 77 163.5t167 63.5q76 0 135 -31t86.5 -80.5t32.5 -105.5t-23 -112t-83 -94q-48 -39 -111 -90t-115 -94h321v-97h-491v78l329 280h-1q54 39 65 97.5t-28.5 103t-116.5 44.5q-62 0 -98 -36t-45 -98z" />
    <glyph glyph-name="three.p_osf" horiz-adv-x="539" 
d="M163 304v95h105q48 0 72 32t24 72q0 49 -39.5 75.5t-93.5 26.5q-42 0 -76.5 -22.5t-43.5 -61.5l-91 22q18 76 77.5 117t133.5 41q94 0 163 -51.5t70 -146.5q0 -103 -64 -146q92 -54 90 -163q-1 -82 -67.5 -142.5t-185.5 -60.5q-105 0 -164.5 52t-72.5 131l94 17
q7 -45 44 -75.5t99 -30.5q78 0 120 36t38 83q-4 38 -34.5 69t-92.5 31h-105z" />
    <glyph glyph-name="four.p_osf" horiz-adv-x="549" 
d="M-3 229l371 471h78v-444h57v-98h-57v-158h-100v158h-349v71zM129 254h219v271z" />
    <glyph glyph-name="five.p_osf" horiz-adv-x="554" 
d="M9 159l93 38q47 -95 146 -95q74 0 114.5 42t39.5 100q0 38 -21.5 72t-59.5 51q-122 50 -246 -23l-57 26v333h446v-98h-344v-140q126 41 237 -4q70 -29 108 -87.5t39 -129.5q1 -99 -67 -171.5t-189 -72.5q-176 0 -239 159z" />
    <glyph glyph-name="six.p_osf" horiz-adv-x="562" 
d="M258 380q-73 0 -113.5 -41.5t-40.5 -98.5t40.5 -97.5t113.5 -40.5q74 0 114 40.5t40 97.5t-40 98.5t-114 41.5zM46 380l228 320h124l-171 -241q38 14 86 11t84 -23q56 -32 86 -88t30 -119q0 -98 -67.5 -169t-187.5 -71t-187.5 71.5t-67.5 168.5q0 75 43 140z" />
    <glyph glyph-name="seven.p_osf" horiz-adv-x="527" 
d="M3 700h493v-69l-345 -631h-116l328 601h-360v99z" />
    <glyph glyph-name="eight.p_osf" horiz-adv-x="553" 
d="M256 87q72 0 112.5 35t40.5 80t-40 78.5t-113 33.5q-71 0 -111.5 -33.5t-40.5 -78.5t40.5 -80t111.5 -35zM256 617q-48 0 -85.5 -29t-37.5 -77q0 -40 32.5 -72t90.5 -32q59 0 91.5 32t32.5 73q0 47 -38 76t-86 29zM480 509q0 -41 -23.5 -83t-64.5 -60q58 -22 88 -67
t30 -96q0 -85 -67 -147.5t-187 -62.5t-186 60.5t-66 149.5q0 48 32 93t89 70q-51 21 -71.5 62t-20.5 82q1 93 68 144.5t155 51.5q106 0 165 -58.5t59 -138.5z" />
    <glyph glyph-name="nine.p_osf" horiz-adv-x="568" 
d="M265 323q74 0 114.5 42t40.5 99q0 58 -40.5 99t-114.5 41t-114.5 -41t-40.5 -99q0 -57 40.5 -99t114.5 -42zM480 323l-230 -323h-125l172 244q-39 -15 -87.5 -12t-83.5 23q-57 33 -87.5 89.5t-30.5 119.5q0 99 68 171t189 72t189.5 -72t68.5 -171q0 -74 -43 -141z" />
    <glyph glyph-name="zero.t_osf" horiz-adv-x="572" 
d="M263 574q-76 0 -118 -71t-42 -169t42 -168.5t118 -70.5t118 71t42 168q0 98 -42 169t-118 71zM263 -2q-82 0 -141.5 50t-87 124.5t-27.5 161.5t27.5 162t87 125t141.5 50q120 0 188 -100.5t68 -236.5q0 -87 -27.5 -161.5t-87.5 -124.5t-141 -50z" />
    <glyph glyph-name="one.t_osf" horiz-adv-x="289" 
d="M227 0h-100v510l-94 -128l-76 55l189 266h81v-703z" />
    <glyph glyph-name="two.t_osf" horiz-adv-x="551" 
d="M114 469l-101 8q14 100 77 163.5t167 63.5q76 0 135 -31t86.5 -80.5t32.5 -105.5t-23 -112t-83 -94q-48 -39 -111 -90t-115 -94h321v-97h-491v78l329 280h-1q54 39 65 97.5t-28.5 103t-116.5 44.5q-62 0 -98 -36t-45 -98z" />
    <glyph glyph-name="three.t_osf" horiz-adv-x="539" 
d="M163 304v95h105q48 0 72 32t24 72q0 49 -39.5 75.5t-93.5 26.5q-42 0 -76.5 -22.5t-43.5 -61.5l-91 22q18 76 77.5 117t133.5 41q94 0 163 -51.5t70 -146.5q0 -103 -64 -146q92 -54 90 -163q-1 -82 -67.5 -142.5t-185.5 -60.5q-105 0 -164.5 52t-72.5 131l94 17
q7 -45 44 -75.5t99 -30.5q78 0 120 36t38 83q-4 38 -34.5 69t-92.5 31h-105z" />
    <glyph glyph-name="four.t_osf" horiz-adv-x="549" 
d="M-3 229l371 471h78v-444h57v-98h-57v-158h-100v158h-349v71zM129 254h219v271z" />
    <glyph glyph-name="five.t_osf" horiz-adv-x="554" 
d="M9 159l93 38q47 -95 146 -95q74 0 114.5 42t39.5 100q0 38 -21.5 72t-59.5 51q-122 50 -246 -23l-57 26v333h446v-98h-344v-140q126 41 237 -4q70 -29 108 -87.5t39 -129.5q1 -99 -67 -171.5t-189 -72.5q-176 0 -239 159z" />
    <glyph glyph-name="six.t_osf" horiz-adv-x="562" 
d="M258 380q-73 0 -113.5 -41.5t-40.5 -98.5t40.5 -97.5t113.5 -40.5q74 0 114 40.5t40 97.5t-40 98.5t-114 41.5zM46 380l228 320h124l-171 -241q38 14 86 11t84 -23q56 -32 86 -88t30 -119q0 -98 -67.5 -169t-187.5 -71t-187.5 71.5t-67.5 168.5q0 75 43 140z" />
    <glyph glyph-name="seven.t_osf" horiz-adv-x="527" 
d="M3 700h493v-69l-345 -631h-116l328 601h-360v99z" />
    <glyph glyph-name="eight.t_osf" horiz-adv-x="553" 
d="M256 87q72 0 112.5 35t40.5 80t-40 78.5t-113 33.5q-71 0 -111.5 -33.5t-40.5 -78.5t40.5 -80t111.5 -35zM256 617q-48 0 -85.5 -29t-37.5 -77q0 -40 32.5 -72t90.5 -32q59 0 91.5 32t32.5 73q0 47 -38 76t-86 29zM480 509q0 -41 -23.5 -83t-64.5 -60q58 -22 88 -67
t30 -96q0 -85 -67 -147.5t-187 -62.5t-186 60.5t-66 149.5q0 48 32 93t89 70q-51 21 -71.5 62t-20.5 82q1 93 68 144.5t155 51.5q106 0 165 -58.5t59 -138.5z" />
    <glyph glyph-name="nine.t_osf" horiz-adv-x="568" 
d="M265 323q74 0 114.5 42t40.5 99q0 58 -40.5 99t-114.5 41t-114.5 -41t-40.5 -99q0 -57 40.5 -99t114.5 -42zM480 323l-230 -323h-125l172 244q-39 -15 -87.5 -12t-83.5 23q-57 33 -87.5 89.5t-30.5 119.5q0 99 68 171t189 72t189.5 -72t68.5 -171q0 -74 -43 -141z" />
    <glyph glyph-name="dollar.osf" horiz-adv-x="570" 
d="M215 704v54h100v-54q74 -13 127 -55.5t62 -116.5l-99 -10q-7 31 -32.5 53t-57.5 27v-204q89 -3 148 -50t59 -138q0 -97 -56.5 -144t-150.5 -65v-61h-100v61q-77 13 -136 61t-67 123v7l101 1l1 -1q7 -31 37 -58.5t64 -36.5v211q-58 -6 -106 22.5t-71.5 74.5t-21 103.5
t38.5 106.5q56 73 160 89zM315 297v-200q62 -2 92 50.5t4.5 103.5t-96.5 46zM134 557h-1q-31 -49 -4 -98.5t86 -48.5v193q-57 -14 -81 -46z" />
    <glyph glyph-name="cent.osf" horiz-adv-x="730" 
d="M310 700v92h95v-93q102 -14 175.5 -81t100.5 -173h-100q-23 64 -69 103t-107 50v-499q63 12 111.5 54.5t70.5 108.5h99q-27 -108 -102 -178.5t-179 -84.5v-100h-95v99q-116 15 -197 101q-100 107 -100 249q0 144 100 251q81 84 197 101zM183 528q-72 -75 -72 -180
q0 -103 72 -178q53 -56 127 -71v499q-74 -15 -127 -70z" />
    <glyph glyph-name="sterling.osf" horiz-adv-x="562" 
d="M512 527h-95q0 64 -59 89t-119.5 -5.5t-64.5 -102.5v-113h212v-82h-212v-225h336v-88h-492v72l55 15v226h-57v82h57v113q0 77 45 129t109.5 64.5t129.5 2t110 -58.5t45 -118z" />
    <glyph glyph-name="yen.osf" horiz-adv-x="624" 
d="M94 161v82h148v42l-3 5h-145v82h93l-204 327h119l191 -316l191 316h120l-206 -327h94v-82h-145l-3 -5v-42h148v-82h-148v-161h-102v161h-148z" />
    <glyph glyph-name="florin.osf" horiz-adv-x="497" 
d="M467 703l-14 -85q-18 3 -33.5 3.5t-28 -2.5t-22.5 -6.5t-18 -10.5t-13.5 -13t-10.5 -16.5t-8 -17.5t-6 -20l-4.5 -19.5t-3.5 -20.5h104l-15 -90h-104l-84 -444q-19 -107 -89.5 -147.5t-176.5 -12.5l13 86q65 -17 98 1.5t52 89.5l81 427h-91l15 90h94q1 4 2 9t2 8
q10 46 27 81t46 64t77 41.5t111 4.5z" />
    <glyph glyph-name="Euro.osf" horiz-adv-x="758" 
d="M41 324v24v15h-48l16 84h46q23 84 86 152q101 104 242 104q120 0 208 -69.5t118 -188.5h-100q-27 77 -87 117.5t-139 40.5q-102 0 -173 -74q-33 -35 -53 -82h303l-16 -84h-305v-15q0 -16 1 -24h288l-17 -81h-250q19 -44 49 -74q71 -74 173 -74q80 0 142.5 44t89.5 123h99
q-30 -120 -120 -193.5t-211 -73.5q-143 0 -242 104q-59 62 -84 144h-69l19 81h34z" />
    <glyph glyph-name="zero.numerator" horiz-adv-x="572" 
d="M263 574q-76 0 -118 -71t-42 -169t42 -168.5t118 -70.5t118 71t42 168q0 98 -42 169t-118 71zM263 -2q-82 0 -141.5 50t-87 124.5t-27.5 161.5t27.5 162t87 125t141.5 50q120 0 188 -100.5t68 -236.5q0 -87 -27.5 -161.5t-87.5 -124.5t-141 -50z" />
    <glyph glyph-name="one.numerator" horiz-adv-x="289" 
d="M227 0h-100v510l-94 -128l-76 55l189 266h81v-703z" />
    <glyph glyph-name="two.numerator" horiz-adv-x="551" 
d="M114 469l-101 8q14 100 77 163.5t167 63.5q76 0 135 -31t86.5 -80.5t32.5 -105.5t-23 -112t-83 -94q-48 -39 -111 -90t-115 -94h321v-97h-491v78l329 280h-1q54 39 65 97.5t-28.5 103t-116.5 44.5q-62 0 -98 -36t-45 -98z" />
    <glyph glyph-name="three.numerator" horiz-adv-x="539" 
d="M163 304v95h105q48 0 72 32t24 72q0 49 -39.5 75.5t-93.5 26.5q-42 0 -76.5 -22.5t-43.5 -61.5l-91 22q18 76 77.5 117t133.5 41q94 0 163 -51.5t70 -146.5q0 -103 -64 -146q92 -54 90 -163q-1 -82 -67.5 -142.5t-185.5 -60.5q-105 0 -164.5 52t-72.5 131l94 17
q7 -45 44 -75.5t99 -30.5q78 0 120 36t38 83q-4 38 -34.5 69t-92.5 31h-105z" />
    <glyph glyph-name="four.numerator" horiz-adv-x="549" 
d="M-3 229l371 471h78v-444h57v-98h-57v-158h-100v158h-349v71zM129 254h219v271z" />
    <glyph glyph-name="five.numerator" horiz-adv-x="554" 
d="M9 159l93 38q47 -95 146 -95q74 0 114.5 42t39.5 100q0 38 -21.5 72t-59.5 51q-122 50 -246 -23l-57 26v333h446v-98h-344v-140q126 41 237 -4q70 -29 108 -87.5t39 -129.5q1 -99 -67 -171.5t-189 -72.5q-176 0 -239 159z" />
    <glyph glyph-name="six.numerator" horiz-adv-x="562" 
d="M258 380q-73 0 -113.5 -41.5t-40.5 -98.5t40.5 -97.5t113.5 -40.5q74 0 114 40.5t40 97.5t-40 98.5t-114 41.5zM46 380l228 320h124l-171 -241q38 14 86 11t84 -23q56 -32 86 -88t30 -119q0 -98 -67.5 -169t-187.5 -71t-187.5 71.5t-67.5 168.5q0 75 43 140z" />
    <glyph glyph-name="seven.numerator" horiz-adv-x="527" 
d="M3 700h493v-69l-345 -631h-116l328 601h-360v99z" />
    <glyph glyph-name="eight.numerator" horiz-adv-x="553" 
d="M256 87q72 0 112.5 35t40.5 80t-40 78.5t-113 33.5q-71 0 -111.5 -33.5t-40.5 -78.5t40.5 -80t111.5 -35zM256 617q-48 0 -85.5 -29t-37.5 -77q0 -40 32.5 -72t90.5 -32q59 0 91.5 32t32.5 73q0 47 -38 76t-86 29zM480 509q0 -41 -23.5 -83t-64.5 -60q58 -22 88 -67
t30 -96q0 -85 -67 -147.5t-187 -62.5t-186 60.5t-66 149.5q0 48 32 93t89 70q-51 21 -71.5 62t-20.5 82q1 93 68 144.5t155 51.5q106 0 165 -58.5t59 -138.5z" />
    <glyph glyph-name="nine.numerator" horiz-adv-x="568" 
d="M265 323q74 0 114.5 42t40.5 99q0 58 -40.5 99t-114.5 41t-114.5 -41t-40.5 -99q0 -57 40.5 -99t114.5 -42zM480 323l-230 -323h-125l172 244q-39 -15 -87.5 -12t-83.5 23q-57 33 -87.5 89.5t-30.5 119.5q0 99 68 171t189 72t189.5 -72t68.5 -171q0 -74 -43 -141z" />
    <glyph glyph-name="zero.denominator" horiz-adv-x="572" 
d="M263 574q-76 0 -118 -71t-42 -169t42 -168.5t118 -70.5t118 71t42 168q0 98 -42 169t-118 71zM263 -2q-82 0 -141.5 50t-87 124.5t-27.5 161.5t27.5 162t87 125t141.5 50q120 0 188 -100.5t68 -236.5q0 -87 -27.5 -161.5t-87.5 -124.5t-141 -50z" />
    <glyph glyph-name="one.denominator" horiz-adv-x="289" 
d="M227 0h-100v510l-94 -128l-76 55l189 266h81v-703z" />
    <glyph glyph-name="two.denominator" horiz-adv-x="551" 
d="M114 469l-101 8q14 100 77 163.5t167 63.5q76 0 135 -31t86.5 -80.5t32.5 -105.5t-23 -112t-83 -94q-48 -39 -111 -90t-115 -94h321v-97h-491v78l329 280h-1q54 39 65 97.5t-28.5 103t-116.5 44.5q-62 0 -98 -36t-45 -98z" />
    <glyph glyph-name="three.denominator" horiz-adv-x="539" 
d="M163 304v95h105q48 0 72 32t24 72q0 49 -39.5 75.5t-93.5 26.5q-42 0 -76.5 -22.5t-43.5 -61.5l-91 22q18 76 77.5 117t133.5 41q94 0 163 -51.5t70 -146.5q0 -103 -64 -146q92 -54 90 -163q-1 -82 -67.5 -142.5t-185.5 -60.5q-105 0 -164.5 52t-72.5 131l94 17
q7 -45 44 -75.5t99 -30.5q78 0 120 36t38 83q-4 38 -34.5 69t-92.5 31h-105z" />
    <glyph glyph-name="four.denominator" horiz-adv-x="549" 
d="M-3 229l371 471h78v-444h57v-98h-57v-158h-100v158h-349v71zM129 254h219v271z" />
    <glyph glyph-name="five.denominator" horiz-adv-x="554" 
d="M9 159l93 38q47 -95 146 -95q74 0 114.5 42t39.5 100q0 38 -21.5 72t-59.5 51q-122 50 -246 -23l-57 26v333h446v-98h-344v-140q126 41 237 -4q70 -29 108 -87.5t39 -129.5q1 -99 -67 -171.5t-189 -72.5q-176 0 -239 159z" />
    <glyph glyph-name="six.denominator" horiz-adv-x="562" 
d="M258 380q-73 0 -113.5 -41.5t-40.5 -98.5t40.5 -97.5t113.5 -40.5q74 0 114 40.5t40 97.5t-40 98.5t-114 41.5zM46 380l228 320h124l-171 -241q38 14 86 11t84 -23q56 -32 86 -88t30 -119q0 -98 -67.5 -169t-187.5 -71t-187.5 71.5t-67.5 168.5q0 75 43 140z" />
    <glyph glyph-name="seven.denominator" horiz-adv-x="527" 
d="M3 700h493v-69l-345 -631h-116l328 601h-360v99z" />
    <glyph glyph-name="eight.denominator" horiz-adv-x="553" 
d="M256 87q72 0 112.5 35t40.5 80t-40 78.5t-113 33.5q-71 0 -111.5 -33.5t-40.5 -78.5t40.5 -80t111.5 -35zM256 617q-48 0 -85.5 -29t-37.5 -77q0 -40 32.5 -72t90.5 -32q59 0 91.5 32t32.5 73q0 47 -38 76t-86 29zM480 509q0 -41 -23.5 -83t-64.5 -60q58 -22 88 -67
t30 -96q0 -85 -67 -147.5t-187 -62.5t-186 60.5t-66 149.5q0 48 32 93t89 70q-51 21 -71.5 62t-20.5 82q1 93 68 144.5t155 51.5q106 0 165 -58.5t59 -138.5z" />
    <glyph glyph-name="nine.denominator" horiz-adv-x="568" 
d="M265 323q74 0 114.5 42t40.5 99q0 58 -40.5 99t-114.5 41t-114.5 -41t-40.5 -99q0 -57 40.5 -99t114.5 -42zM480 323l-230 -323h-125l172 244q-39 -15 -87.5 -12t-83.5 23q-57 33 -87.5 89.5t-30.5 119.5q0 99 68 171t189 72t189.5 -72t68.5 -171q0 -74 -43 -141z" />
    </font>
</defs>
</svg>
